G04*
G04 #@! TF.GenerationSoftware,Altium Limited,Altium Designer,22.9.1 (49)*
G04*
G04 Layer_Color=16711935*
%FSLAX25Y25*%
%MOIN*%
G70*
G04*
G04 #@! TF.SameCoordinates,8A5C06B3-4C5D-48ED-891A-8E98A4BE319D*
G04*
G04*
G04 #@! TF.FilePolarity,Positive*
G04*
G01*
G75*
%ADD55C,0.00050*%
D55*
X1459269Y879091D02*
X1459267Y880091D01*
X1459263Y881091D01*
X1459255Y882091D01*
X1459245Y883091D01*
X1459231Y884091D01*
X1459214Y885091D01*
X1459195Y886091D01*
X1459172Y887090D01*
X1459146Y888090D01*
X1459118Y889089D01*
X1459086Y890089D01*
X1459051Y891088D01*
X1459013Y892088D01*
X1458972Y893087D01*
X1458929Y894086D01*
X1458882Y895084D01*
X1458832Y896083D01*
X1458779Y897082D01*
X1458723Y898080D01*
X1458664Y899078D01*
X1458602Y900076D01*
X1458537Y901074D01*
X1458469Y902072D01*
X1458398Y903069D01*
X1458324Y904067D01*
X1458247Y905064D01*
X1458167Y906060D01*
X1458084Y907057D01*
X1457998Y908053D01*
X1457909Y909049D01*
X1457817Y910045D01*
X1457722Y911040D01*
X1457624Y912035D01*
X1457523Y913030D01*
X1457419Y914025D01*
X1457311Y915019D01*
X1457201Y916013D01*
X1457088Y917006D01*
X1456972Y917999D01*
X1456853Y918992D01*
X1456731Y919985D01*
X1456606Y920977D01*
X1456477Y921968D01*
X1456346Y922960D01*
X1456212Y923951D01*
X1456075Y924941D01*
X1455935Y925931D01*
X1455792Y926921D01*
X1455646Y927910D01*
X1455497Y928899D01*
X1455344Y929887D01*
X1455189Y930875D01*
X1455031Y931863D01*
X1454870Y932849D01*
X1454706Y933836D01*
X1454539Y934822D01*
X1454369Y935807D01*
X1454196Y936792D01*
X1454020Y937776D01*
X1453841Y938760D01*
X1453659Y939743D01*
X1453475Y940726D01*
X1453287Y941708D01*
X1453096Y942690D01*
X1452902Y943671D01*
X1452705Y944651D01*
X1452505Y945631D01*
X1452303Y946610D01*
X1452097Y947589D01*
X1451889Y948567D01*
X1451677Y949544D01*
X1451463Y950521D01*
X1451245Y951497D01*
X1451025Y952472D01*
X1450801Y953447D01*
X1450575Y954421D01*
X1450346Y955394D01*
X1450114Y956367D01*
X1449879Y957339D01*
X1449640Y958310D01*
X1449399Y959280D01*
X1449156Y960250D01*
X1448909Y961219D01*
X1448659Y962187D01*
X1448406Y963155D01*
X1448151Y964122D01*
X1447892Y965088D01*
X1447631Y966053D01*
X1447366Y967017D01*
X1447099Y967981D01*
X1446828Y968943D01*
X1446555Y969905D01*
X1446279Y970866D01*
X1446000Y971827D01*
X1445718Y972786D01*
X1445434Y973745D01*
X1445146Y974702D01*
X1444856Y975659D01*
X1444562Y976615D01*
X1444266Y977570D01*
X1443967Y978524D01*
X1443665Y979478D01*
X1443360Y980430D01*
X1443052Y981381D01*
X1442741Y982332D01*
X1442427Y983281D01*
X1442111Y984230D01*
X1441792Y985177D01*
X1441469Y986124D01*
X1441144Y987070D01*
X1440816Y988014D01*
X1440486Y988958D01*
X1440152Y989900D01*
X1439816Y990842D01*
X1439476Y991783D01*
X1439134Y992722D01*
X1438789Y993661D01*
X1438441Y994598D01*
X1438091Y995535D01*
X1437737Y996470D01*
X1437381Y997404D01*
X1437022Y998338D01*
X1436660Y999270D01*
X1436295Y1000201D01*
X1435927Y1001131D01*
X1435557Y1002060D01*
X1435184Y1002987D01*
X1434808Y1003914D01*
X1434429Y1004839D01*
X1434047Y1005764D01*
X1433663Y1006687D01*
X1433276Y1007609D01*
X1432886Y1008529D01*
X1432493Y1009449D01*
X1432097Y1010367D01*
X1431699Y1011285D01*
X1431298Y1012201D01*
X1430894Y1013115D01*
X1430487Y1014029D01*
X1430078Y1014941D01*
X1429666Y1015852D01*
X1429251Y1016762D01*
X1428833Y1017671D01*
X1428413Y1018578D01*
X1427990Y1019484D01*
X1427564Y1020389D01*
X1427135Y1021292D01*
X1426704Y1022194D01*
X1426270Y1023095D01*
X1425833Y1023995D01*
X1425394Y1024893D01*
X1424951Y1025790D01*
X1424507Y1026685D01*
X1424059Y1027579D01*
X1423609Y1028472D01*
X1423156Y1029364D01*
X1422700Y1030254D01*
X1422241Y1031142D01*
X1421780Y1032030D01*
X1421317Y1032915D01*
X1420850Y1033800D01*
X1420381Y1034683D01*
X1419909Y1035565D01*
X1419435Y1036445D01*
X1418958Y1037324D01*
X1418478Y1038201D01*
X1417995Y1039077D01*
X1417511Y1039951D01*
X1417023Y1040824D01*
X1416532Y1041696D01*
X1416039Y1042566D01*
X1415544Y1043434D01*
X1415046Y1044301D01*
X1414545Y1045167D01*
X1414041Y1046031D01*
X1413535Y1046893D01*
X1413027Y1047754D01*
X1412515Y1048613D01*
X1412001Y1049471D01*
X1411485Y1050327D01*
X1410966Y1051182D01*
X1410444Y1052035D01*
X1409920Y1052887D01*
X1409393Y1053737D01*
X1408864Y1054585D01*
X1408332Y1055432D01*
X1407798Y1056277D01*
X1407261Y1057120D01*
X1406721Y1057962D01*
X1406179Y1058803D01*
X1405634Y1059641D01*
X1405087Y1060478D01*
X1404537Y1061313D01*
X1403985Y1062147D01*
X1403430Y1062979D01*
X1402873Y1063809D01*
X1402313Y1064638D01*
X1401751Y1065465D01*
X1401186Y1066290D01*
X1400619Y1067113D01*
X1400049Y1067935D01*
X1399477Y1068755D01*
X1398902Y1069573D01*
X1398325Y1070390D01*
X1397745Y1071205D01*
X1397163Y1072018D01*
X1396579Y1072829D01*
X1395992Y1073639D01*
X1395402Y1074446D01*
X1394810Y1075252D01*
X1394216Y1076056D01*
X1393619Y1076859D01*
X1393020Y1077659D01*
X1392418Y1078458D01*
X1391814Y1079255D01*
X1391208Y1080050D01*
X1390599Y1080843D01*
X1389988Y1081635D01*
X1389374Y1082424D01*
X1388758Y1083212D01*
X1388140Y1083998D01*
X1387519Y1084782D01*
X1386896Y1085564D01*
X1386270Y1086344D01*
X1385643Y1087122D01*
X1385012Y1087899D01*
X1384380Y1088673D01*
X1383745Y1089446D01*
X1383108Y1090216D01*
X1382468Y1090985D01*
X1381826Y1091752D01*
X1381182Y1092517D01*
X1380536Y1093280D01*
X1379887Y1094040D01*
X1379236Y1094800D01*
X1378582Y1095556D01*
X1377927Y1096311D01*
X1377269Y1097064D01*
X1376608Y1097816D01*
X1375946Y1098565D01*
X1375281Y1099312D01*
X1374614Y1100056D01*
X1373945Y1100799D01*
X1373273Y1101540D01*
X1372600Y1102279D01*
X1371924Y1103016D01*
X1371246Y1103751D01*
X1370565Y1104484D01*
X1369883Y1105215D01*
X1369198Y1105943D01*
X1368511Y1106670D01*
X1367822Y1107394D01*
X1367130Y1108117D01*
X1366436Y1108837D01*
X1365741Y1109555D01*
X1365043Y1110271D01*
X1364343Y1110985D01*
X1363640Y1111697D01*
X1362936Y1112407D01*
X1362230Y1113114D01*
X1361521Y1113820D01*
X1360810Y1114523D01*
X1360097Y1115224D01*
X1359382Y1115924D01*
X1358665Y1116620D01*
X1357946Y1117315D01*
X1357224Y1118007D01*
X1356501Y1118698D01*
X1355775Y1119386D01*
X1355048Y1120072D01*
X1354318Y1120756D01*
X1353586Y1121437D01*
X1352853Y1122116D01*
X1352117Y1122793D01*
X1351379Y1123468D01*
X1350639Y1124141D01*
X1349897Y1124811D01*
X1349153Y1125480D01*
X1348407Y1126145D01*
X1347659Y1126809D01*
X1346909Y1127470D01*
X1346157Y1128129D01*
X1345403Y1128786D01*
X1344647Y1129441D01*
X1343889Y1130093D01*
X1343129Y1130743D01*
X1342367Y1131391D01*
X1341603Y1132036D01*
X1340837Y1132679D01*
X1340070Y1133320D01*
X1339300Y1133958D01*
X1338528Y1134594D01*
X1337755Y1135228D01*
X1336979Y1135859D01*
X1336202Y1136488D01*
X1335423Y1137115D01*
X1334642Y1137739D01*
X1333859Y1138361D01*
X1333074Y1138981D01*
X1332287Y1139598D01*
X1331498Y1140213D01*
X1330708Y1140825D01*
X1329916Y1141435D01*
X1329121Y1142043D01*
X1328325Y1142648D01*
X1327528Y1143251D01*
X1326728Y1143851D01*
X1325926Y1144449D01*
X1325123Y1145045D01*
X1324318Y1145638D01*
X1323511Y1146229D01*
X1322703Y1146817D01*
X1321892Y1147403D01*
X1321080Y1147986D01*
X1320266Y1148567D01*
X1319450Y1149145D01*
X1318633Y1149721D01*
X1317814Y1150295D01*
X1316993Y1150866D01*
X1316170Y1151434D01*
X1315346Y1152000D01*
X1314520Y1152564D01*
X1313692Y1153125D01*
X1312863Y1153683D01*
X1312032Y1154239D01*
X1311199Y1154793D01*
X1310365Y1155344D01*
X1309528Y1155892D01*
X1308691Y1156438D01*
X1307851Y1156982D01*
X1307010Y1157522D01*
X1306167Y1158061D01*
X1305323Y1158597D01*
X1304477Y1159130D01*
X1303629Y1159660D01*
X1302780Y1160188D01*
X1301930Y1160714D01*
X1301077Y1161237D01*
X1300223Y1161757D01*
X1299368Y1162275D01*
X1298511Y1162790D01*
X1297652Y1163303D01*
X1296792Y1163813D01*
X1295930Y1164320D01*
X1295067Y1164825D01*
X1294203Y1165327D01*
X1293336Y1165827D01*
X1292469Y1166323D01*
X1291599Y1166818D01*
X1290729Y1167309D01*
X1289856Y1167799D01*
X1288983Y1168285D01*
X1288107Y1168769D01*
X1287231Y1169250D01*
X1286353Y1169728D01*
X1285473Y1170204D01*
X1284592Y1170677D01*
X1283710Y1171148D01*
X1282826Y1171615D01*
X1281941Y1172080D01*
X1281054Y1172543D01*
X1280166Y1173003D01*
X1279277Y1173460D01*
X1278386Y1173914D01*
X1277494Y1174366D01*
X1276601Y1174815D01*
X1275706Y1175261D01*
X1274809Y1175705D01*
X1273912Y1176145D01*
X1273013Y1176583D01*
X1272113Y1177019D01*
X1271212Y1177452D01*
X1270309Y1177882D01*
X1269405Y1178309D01*
X1268499Y1178733D01*
X1267593Y1179155D01*
X1266685Y1179574D01*
X1265776Y1179990D01*
X1264865Y1180404D01*
X1263953Y1180815D01*
X1263041Y1181223D01*
X1262126Y1181628D01*
X1261211Y1182030D01*
X1260295Y1182430D01*
X1259377Y1182827D01*
X1258458Y1183221D01*
X1257538Y1183613D01*
X1256616Y1184001D01*
X1255694Y1184387D01*
X1254770Y1184770D01*
X1253845Y1185150D01*
X1252919Y1185528D01*
X1251992Y1185902D01*
X1251064Y1186274D01*
X1250134Y1186643D01*
X1249204Y1187009D01*
X1248273Y1187372D01*
X1247340Y1187733D01*
X1246406Y1188091D01*
X1245471Y1188446D01*
X1244535Y1188798D01*
X1243598Y1189147D01*
X1242660Y1189493D01*
X1241721Y1189837D01*
X1240781Y1190178D01*
X1239840Y1190516D01*
X1238898Y1190851D01*
X1237955Y1191183D01*
X1237011Y1191512D01*
X1236065Y1191839D01*
X1235119Y1192162D01*
X1234172Y1192483D01*
X1233224Y1192801D01*
X1232275Y1193116D01*
X1231325Y1193428D01*
X1230374Y1193738D01*
X1229422Y1194044D01*
X1228470Y1194347D01*
X1227516Y1194648D01*
X1226562Y1194946D01*
X1225606Y1195241D01*
X1224650Y1195533D01*
X1223692Y1195822D01*
X1222734Y1196108D01*
X1221775Y1196391D01*
X1220816Y1196672D01*
X1219855Y1196949D01*
X1218893Y1197224D01*
X1217931Y1197495D01*
X1216968Y1197764D01*
X1216004Y1198030D01*
X1215039Y1198293D01*
X1214074Y1198553D01*
X1213107Y1198810D01*
X1212140Y1199064D01*
X1211172Y1199315D01*
X1210204Y1199564D01*
X1209235Y1199809D01*
X1208264Y1200052D01*
X1207294Y1200291D01*
X1206322Y1200528D01*
X1205350Y1200762D01*
X1204377Y1200992D01*
X1203403Y1201220D01*
X1202429Y1201445D01*
X1201454Y1201667D01*
X1200478Y1201886D01*
X1199502Y1202102D01*
X1198525Y1202315D01*
X1197547Y1202525D01*
X1196569Y1202732D01*
X1195590Y1202936D01*
X1194611Y1203137D01*
X1193631Y1203335D01*
X1192650Y1203531D01*
X1191669Y1203723D01*
X1190687Y1203912D01*
X1189704Y1204099D01*
X1188721Y1204282D01*
X1187738Y1204462D01*
X1186754Y1204640D01*
X1185769Y1204814D01*
X1184784Y1204986D01*
X1183798Y1205154D01*
X1182812Y1205320D01*
X1181826Y1205482D01*
X1180838Y1205642D01*
X1179851Y1205799D01*
X1178863Y1205952D01*
X1177874Y1206103D01*
X1176885Y1206250D01*
X1175896Y1206395D01*
X1174906Y1206537D01*
X1173916Y1206675D01*
X1172925Y1206811D01*
X1171934Y1206944D01*
X1170942Y1207073D01*
X1169950Y1207200D01*
X1168958Y1207323D01*
X1167966Y1207444D01*
X1166973Y1207562D01*
X1165979Y1207676D01*
X1164986Y1207788D01*
X1163992Y1207897D01*
X1162997Y1208002D01*
X1162003Y1208105D01*
X1161008Y1208204D01*
X1160012Y1208301D01*
X1159017Y1208395D01*
X1158021Y1208485D01*
X1157025Y1208573D01*
X1156028Y1208657D01*
X1155032Y1208739D01*
X1154035Y1208817D01*
X1153038Y1208893D01*
X1152041Y1208966D01*
X1151043Y1209035D01*
X1150045Y1209101D01*
X1149047Y1209165D01*
X1148049Y1209225D01*
X1147051Y1209283D01*
X1146053Y1209337D01*
X1145054Y1209389D01*
X1144055Y1209437D01*
X1143056Y1209482D01*
X1142057Y1209525D01*
X1141058Y1209564D01*
X1140059Y1209600D01*
X1139060Y1209634D01*
X1138060Y1209664D01*
X1137061Y1209691D01*
X1136061Y1209715D01*
X1135061Y1209736D01*
X1134061Y1209754D01*
X1133062Y1209770D01*
X1132062Y1209782D01*
X1131062Y1209791D01*
X1130062Y1209797D01*
X1129062Y1209800D01*
X1128062D01*
X1127062Y1209797D01*
X1126062Y1209791D01*
X1125062Y1209782D01*
X1124062Y1209770D01*
X1123063Y1209754D01*
X1122063Y1209736D01*
X1121063Y1209715D01*
X1120063Y1209691D01*
X1119064Y1209664D01*
X1118064Y1209634D01*
X1117065Y1209600D01*
X1116066Y1209564D01*
X1115067Y1209525D01*
X1114067Y1209482D01*
X1113069Y1209437D01*
X1112070Y1209389D01*
X1111071Y1209337D01*
X1110073Y1209283D01*
X1109074Y1209226D01*
X1108076Y1209165D01*
X1107078Y1209102D01*
X1106081Y1209035D01*
X1105083Y1208966D01*
X1104086Y1208893D01*
X1103089Y1208818D01*
X1102092Y1208739D01*
X1101095Y1208658D01*
X1100099Y1208573D01*
X1099103Y1208486D01*
X1098107Y1208395D01*
X1097112Y1208302D01*
X1096116Y1208205D01*
X1095121Y1208105D01*
X1094127Y1208003D01*
X1093132Y1207897D01*
X1092138Y1207788D01*
X1091145Y1207677D01*
X1090151Y1207562D01*
X1089158Y1207445D01*
X1088166Y1207324D01*
X1087173Y1207200D01*
X1086181Y1207074D01*
X1085190Y1206944D01*
X1084199Y1206811D01*
X1083208Y1206676D01*
X1082218Y1206537D01*
X1081228Y1206396D01*
X1080239Y1206251D01*
X1079250Y1206103D01*
X1078261Y1205953D01*
X1077273Y1205799D01*
X1076285Y1205643D01*
X1075298Y1205483D01*
X1074312Y1205320D01*
X1073326Y1205155D01*
X1072340Y1204986D01*
X1071355Y1204815D01*
X1070370Y1204640D01*
X1069386Y1204463D01*
X1068402Y1204283D01*
X1067420Y1204099D01*
X1066437Y1203913D01*
X1065455Y1203724D01*
X1064474Y1203531D01*
X1063493Y1203336D01*
X1062513Y1203138D01*
X1061534Y1202937D01*
X1060555Y1202733D01*
X1059577Y1202526D01*
X1058599Y1202315D01*
X1057622Y1202102D01*
X1056646Y1201886D01*
X1055670Y1201667D01*
X1054695Y1201446D01*
X1053721Y1201221D01*
X1052747Y1200993D01*
X1051774Y1200762D01*
X1050802Y1200529D01*
X1049830Y1200292D01*
X1048859Y1200053D01*
X1047889Y1199810D01*
X1046920Y1199565D01*
X1045951Y1199317D01*
X1044983Y1199065D01*
X1044016Y1198811D01*
X1043050Y1198554D01*
X1042085Y1198294D01*
X1041120Y1198031D01*
X1040156Y1197765D01*
X1039193Y1197497D01*
X1038230Y1197225D01*
X1037269Y1196950D01*
X1036308Y1196673D01*
X1035348Y1196392D01*
X1034389Y1196109D01*
X1033431Y1195823D01*
X1032474Y1195534D01*
X1031518Y1195242D01*
X1030562Y1194947D01*
X1029608Y1194649D01*
X1028654Y1194349D01*
X1027701Y1194045D01*
X1026749Y1193739D01*
X1025798Y1193429D01*
X1024848Y1193117D01*
X1023899Y1192802D01*
X1022951Y1192484D01*
X1022004Y1192164D01*
X1021058Y1191840D01*
X1020113Y1191514D01*
X1019169Y1191184D01*
X1018226Y1190852D01*
X1017284Y1190517D01*
X1016343Y1190179D01*
X1015402Y1189838D01*
X1014463Y1189495D01*
X1013525Y1189148D01*
X1012588Y1188799D01*
X1011652Y1188447D01*
X1010718Y1188092D01*
X1009784Y1187734D01*
X1008851Y1187374D01*
X1007920Y1187010D01*
X1006989Y1186644D01*
X1006060Y1186275D01*
X1005132Y1185903D01*
X1004204Y1185529D01*
X1003278Y1185151D01*
X1002353Y1184771D01*
X1001430Y1184388D01*
X1000507Y1184002D01*
X999586Y1183614D01*
X998666Y1183223D01*
X997747Y1182829D01*
X996829Y1182432D01*
X995912Y1182032D01*
X994997Y1181629D01*
X994083Y1181224D01*
X993170Y1180816D01*
X992258Y1180406D01*
X991348Y1179992D01*
X990439Y1179576D01*
X989531Y1179157D01*
X988624Y1178735D01*
X987719Y1178310D01*
X986815Y1177883D01*
X985912Y1177453D01*
X985011Y1177021D01*
X984110Y1176585D01*
X983212Y1176147D01*
X982314Y1175706D01*
X981418Y1175263D01*
X980523Y1174817D01*
X979629Y1174368D01*
X978737Y1173916D01*
X977847Y1173462D01*
X976957Y1173004D01*
X976069Y1172545D01*
X975183Y1172082D01*
X974297Y1171617D01*
X973414Y1171149D01*
X972531Y1170679D01*
X971650Y1170206D01*
X970771Y1169730D01*
X969893Y1169252D01*
X969016Y1168771D01*
X968141Y1168287D01*
X967267Y1167801D01*
X966395Y1167311D01*
X965524Y1166820D01*
X964655Y1166326D01*
X963787Y1165829D01*
X962921Y1165329D01*
X962057Y1164827D01*
X961193Y1164322D01*
X960332Y1163815D01*
X959472Y1163305D01*
X958613Y1162792D01*
X957756Y1162277D01*
X956901Y1161760D01*
X956047Y1161239D01*
X955194Y1160716D01*
X954344Y1160191D01*
X953494Y1159663D01*
X952647Y1159132D01*
X951801Y1158599D01*
X950957Y1158063D01*
X950114Y1157525D01*
X949273Y1156984D01*
X948433Y1156441D01*
X947596Y1155895D01*
X946760Y1155346D01*
X945925Y1154795D01*
X945092Y1154242D01*
X944261Y1153686D01*
X943432Y1153127D01*
X942604Y1152567D01*
X941778Y1152003D01*
X940954Y1151437D01*
X940131Y1150869D01*
X939310Y1150298D01*
X938491Y1149724D01*
X937674Y1149148D01*
X936858Y1148570D01*
X936044Y1147989D01*
X935232Y1147406D01*
X934421Y1146820D01*
X933613Y1146232D01*
X932806Y1145641D01*
X932001Y1145048D01*
X931198Y1144452D01*
X930396Y1143854D01*
X929597Y1143254D01*
X928799Y1142651D01*
X928003Y1142046D01*
X927209Y1141438D01*
X926416Y1140828D01*
X925626Y1140216D01*
X924837Y1139601D01*
X924050Y1138984D01*
X923265Y1138364D01*
X922482Y1137742D01*
X921701Y1137118D01*
X920922Y1136491D01*
X920145Y1135862D01*
X919369Y1135231D01*
X918596Y1134597D01*
X917824Y1133961D01*
X917054Y1133323D01*
X916287Y1132682D01*
X915521Y1132039D01*
X914757Y1131394D01*
X913995Y1130746D01*
X913235Y1130096D01*
X912477Y1129444D01*
X911721Y1128790D01*
X910967Y1128133D01*
X910215Y1127474D01*
X909465Y1126812D01*
X908717Y1126149D01*
X907971Y1125483D01*
X907227Y1124815D01*
X906485Y1124144D01*
X905745Y1123472D01*
X905007Y1122797D01*
X904271Y1122120D01*
X903537Y1121440D01*
X902805Y1120759D01*
X902076Y1120075D01*
X901348Y1119389D01*
X900622Y1118701D01*
X899899Y1118011D01*
X899178Y1117318D01*
X898458Y1116623D01*
X897741Y1115927D01*
X897026Y1115228D01*
X896313Y1114526D01*
X895602Y1113823D01*
X894894Y1113118D01*
X894187Y1112410D01*
X893483Y1111700D01*
X892780Y1110988D01*
X892080Y1110274D01*
X891382Y1109558D01*
X890687Y1108840D01*
X889993Y1108120D01*
X889301Y1107397D01*
X888612Y1106673D01*
X887925Y1105946D01*
X887240Y1105218D01*
X886558Y1104487D01*
X885877Y1103754D01*
X885199Y1103019D01*
X884523Y1102282D01*
X883849Y1101543D01*
X883178Y1100803D01*
X882508Y1100060D01*
X881841Y1099314D01*
X881177Y1098567D01*
X880514Y1097818D01*
X879854Y1097067D01*
X879196Y1096314D01*
X878540Y1095559D01*
X877887Y1094802D01*
X877236Y1094043D01*
X876587Y1093283D01*
X875940Y1092520D01*
X875296Y1091755D01*
X874654Y1090988D01*
X874015Y1090219D01*
X873378Y1089449D01*
X872743Y1088676D01*
X872110Y1087902D01*
X871480Y1087125D01*
X870852Y1086347D01*
X870226Y1085567D01*
X869603Y1084785D01*
X868983Y1084001D01*
X868364Y1083215D01*
X867748Y1082427D01*
X867134Y1081638D01*
X866523Y1080846D01*
X865914Y1080053D01*
X865308Y1079258D01*
X864704Y1078461D01*
X864102Y1077662D01*
X863503Y1076862D01*
X862906Y1076059D01*
X862312Y1075255D01*
X861720Y1074449D01*
X861130Y1073641D01*
X860543Y1072832D01*
X859959Y1072021D01*
X859377Y1071207D01*
X858797Y1070393D01*
X858220Y1069576D01*
X857645Y1068758D01*
X857073Y1067938D01*
X856503Y1067116D01*
X855936Y1066292D01*
X855371Y1065467D01*
X854809Y1064640D01*
X854249Y1063812D01*
X853691Y1062981D01*
X853137Y1062149D01*
X852584Y1061316D01*
X852035Y1060480D01*
X851488Y1059643D01*
X850943Y1058805D01*
X850401Y1057965D01*
X849861Y1057123D01*
X849324Y1056279D01*
X848790Y1055434D01*
X848258Y1054587D01*
X847728Y1053739D01*
X847201Y1052889D01*
X846677Y1052037D01*
X846155Y1051184D01*
X845636Y1050330D01*
X845120Y1049473D01*
X844606Y1048615D01*
X844095Y1047756D01*
X843586Y1046895D01*
X843080Y1046033D01*
X842577Y1045169D01*
X842076Y1044303D01*
X841577Y1043436D01*
X841082Y1042568D01*
X840589Y1041698D01*
X840098Y1040826D01*
X839611Y1039953D01*
X839126Y1039079D01*
X838643Y1038203D01*
X838163Y1037325D01*
X837686Y1036447D01*
X837212Y1035566D01*
X836740Y1034685D01*
X836271Y1033802D01*
X835804Y1032917D01*
X835340Y1032031D01*
X834879Y1031144D01*
X834421Y1030255D01*
X833965Y1029365D01*
X833512Y1028474D01*
X833062Y1027581D01*
X832614Y1026687D01*
X832169Y1025791D01*
X831727Y1024894D01*
X831287Y1023996D01*
X830851Y1023096D01*
X830417Y1022196D01*
X829985Y1021293D01*
X829557Y1020390D01*
X829131Y1019485D01*
X828708Y1018579D01*
X828287Y1017672D01*
X827870Y1016763D01*
X827455Y1015853D01*
X827042Y1014942D01*
X826633Y1014030D01*
X826227Y1013116D01*
X825823Y1012202D01*
X825422Y1011286D01*
X825023Y1010368D01*
X824628Y1009450D01*
X824235Y1008530D01*
X823845Y1007609D01*
X823458Y1006688D01*
X823073Y1005764D01*
X822692Y1004840D01*
X822313Y1003915D01*
X821937Y1002988D01*
X821564Y1002060D01*
X821193Y1001132D01*
X820825Y1000202D01*
X820461Y999271D01*
X820099Y998338D01*
X819740Y997405D01*
X819383Y996471D01*
X819030Y995535D01*
X818679Y994599D01*
X818331Y993661D01*
X817986Y992723D01*
X817644Y991783D01*
X817305Y990843D01*
X816968Y989901D01*
X816634Y988958D01*
X816304Y988015D01*
X815976Y987070D01*
X815651Y986124D01*
X815329Y985178D01*
X815009Y984230D01*
X814693Y983281D01*
X814379Y982332D01*
X814068Y981381D01*
X813760Y980430D01*
X813455Y979478D01*
X813153Y978524D01*
X812854Y977570D01*
X812558Y976615D01*
X812264Y975659D01*
X811974Y974702D01*
X811686Y973744D01*
X811401Y972786D01*
X811120Y971826D01*
X810841Y970866D01*
X810565Y969905D01*
X810291Y968943D01*
X810021Y967980D01*
X809754Y967017D01*
X809490Y966052D01*
X809228Y965087D01*
X808969Y964121D01*
X808714Y963155D01*
X808461Y962187D01*
X808211Y961219D01*
X807964Y960250D01*
X807720Y959280D01*
X807479Y958309D01*
X807241Y957338D01*
X807006Y956366D01*
X806774Y955394D01*
X806545Y954420D01*
X806318Y953446D01*
X806095Y952472D01*
X805875Y951496D01*
X805657Y950520D01*
X805443Y949543D01*
X805231Y948566D01*
X805023Y947588D01*
X804817Y946609D01*
X804614Y945630D01*
X804415Y944650D01*
X804218Y943670D01*
X804024Y942689D01*
X803833Y941707D01*
X803645Y940725D01*
X803461Y939742D01*
X803279Y938759D01*
X803100Y937775D01*
X802924Y936791D01*
X802751Y935806D01*
X802581Y934820D01*
X802414Y933834D01*
X802250Y932848D01*
X802089Y931861D01*
X801931Y930874D01*
X801775Y929886D01*
X801623Y928898D01*
X801474Y927909D01*
X801328Y926919D01*
X801185Y925930D01*
X801045Y924940D01*
X800908Y923949D01*
X800774Y922958D01*
X800642Y921967D01*
X800514Y920975D01*
X800389Y919983D01*
X800267Y918991D01*
X800148Y917998D01*
X800032Y917004D01*
X799919Y916011D01*
X799809Y915017D01*
X799701Y914023D01*
X799597Y913028D01*
X799496Y912033D01*
X799398Y911038D01*
X799303Y910043D01*
X799211Y909047D01*
X799122Y908051D01*
X799036Y907055D01*
X798953Y906058D01*
X798873Y905062D01*
X798796Y904064D01*
X798722Y903067D01*
X798651Y902070D01*
X798583Y901072D01*
X798518Y900074D01*
X798456Y899076D01*
X798397Y898078D01*
X798341Y897079D01*
X798288Y896081D01*
X798238Y895082D01*
X798191Y894083D01*
X798147Y893084D01*
X798107Y892085D01*
X798069Y891086D01*
X798034Y890086D01*
X798002Y889087D01*
X797974Y888087D01*
X797948Y887088D01*
X797925Y886088D01*
X797906Y885088D01*
X797889Y884088D01*
X797875Y883088D01*
X797865Y882089D01*
X797857Y881089D01*
X797853Y880089D01*
X797851Y879089D01*
X797853Y878089D01*
X797857Y877089D01*
X797865Y876089D01*
X797876Y875089D01*
X797889Y874089D01*
X797906Y873089D01*
X797926Y872089D01*
X797948Y871090D01*
X797974Y870090D01*
X798003Y869090D01*
X798034Y868091D01*
X798069Y867092D01*
X798107Y866092D01*
X798148Y865093D01*
X798192Y864094D01*
X798238Y863095D01*
X798288Y862097D01*
X798341Y861098D01*
X798397Y860100D01*
X798456Y859101D01*
X798518Y858103D01*
X798583Y857105D01*
X798651Y856108D01*
X798722Y855110D01*
X798796Y854113D01*
X798873Y853116D01*
X798953Y852119D01*
X799036Y851123D01*
X799122Y850126D01*
X799211Y849130D01*
X799303Y848135D01*
X799399Y847139D01*
X799497Y846144D01*
X799598Y845149D01*
X799702Y844155D01*
X799809Y843160D01*
X799919Y842167D01*
X800032Y841173D01*
X800148Y840180D01*
X800268Y839187D01*
X800390Y838194D01*
X800515Y837202D01*
X800643Y836211D01*
X800774Y835219D01*
X800908Y834228D01*
X801046Y833238D01*
X801186Y832248D01*
X801329Y831258D01*
X801475Y830269D01*
X801624Y829280D01*
X801776Y828292D01*
X801931Y827304D01*
X802090Y826316D01*
X802251Y825329D01*
X802415Y824343D01*
X802582Y823357D01*
X802752Y822372D01*
X802925Y821387D01*
X803101Y820402D01*
X803280Y819419D01*
X803461Y818435D01*
X803646Y817453D01*
X803834Y816470D01*
X804025Y815489D01*
X804219Y814508D01*
X804416Y813527D01*
X804615Y812547D01*
X804818Y811568D01*
X805024Y810590D01*
X805232Y809612D01*
X805444Y808634D01*
X805659Y807658D01*
X805876Y806682D01*
X806096Y805706D01*
X806320Y804731D01*
X806546Y803757D01*
X806775Y802784D01*
X807008Y801811D01*
X807243Y800839D01*
X807481Y799868D01*
X807722Y798898D01*
X807966Y797928D01*
X808213Y796959D01*
X808462Y795991D01*
X808715Y795023D01*
X808971Y794056D01*
X809229Y793090D01*
X809491Y792125D01*
X809755Y791161D01*
X810023Y790197D01*
X810293Y789234D01*
X810566Y788272D01*
X810842Y787311D01*
X811121Y786351D01*
X811403Y785392D01*
X811688Y784433D01*
X811975Y783475D01*
X812266Y782519D01*
X812560Y781563D01*
X812856Y780608D01*
X813155Y779653D01*
X813457Y778700D01*
X813762Y777748D01*
X814070Y776796D01*
X814381Y775846D01*
X814694Y774896D01*
X815011Y773948D01*
X815330Y773000D01*
X815652Y772054D01*
X815978Y771108D01*
X816306Y770163D01*
X816636Y769220D01*
X816970Y768277D01*
X817307Y767335D01*
X817646Y766395D01*
X817988Y765455D01*
X818333Y764516D01*
X818681Y763579D01*
X819032Y762642D01*
X819385Y761707D01*
X819742Y760773D01*
X820101Y759839D01*
X820463Y758907D01*
X820827Y757976D01*
X821195Y757046D01*
X821566Y756117D01*
X821939Y755190D01*
X822315Y754263D01*
X822694Y753338D01*
X823075Y752413D01*
X823460Y751490D01*
X823847Y750568D01*
X824237Y749648D01*
X824630Y748728D01*
X825025Y747810D01*
X825424Y746892D01*
X825825Y745976D01*
X826229Y745061D01*
X826635Y744148D01*
X827045Y743236D01*
X827457Y742324D01*
X827872Y741415D01*
X828290Y740506D01*
X828710Y739599D01*
X829133Y738693D01*
X829559Y737788D01*
X829988Y736885D01*
X830419Y735982D01*
X830853Y735082D01*
X831290Y734182D01*
X831730Y733284D01*
X832172Y732387D01*
X832617Y731491D01*
X833064Y730597D01*
X833515Y729704D01*
X833968Y728813D01*
X834424Y727923D01*
X834882Y727034D01*
X835343Y726147D01*
X835807Y725261D01*
X836273Y724376D01*
X836743Y723493D01*
X837214Y722612D01*
X837689Y721731D01*
X838166Y720853D01*
X838646Y719975D01*
X839128Y719099D01*
X839613Y718225D01*
X840101Y717352D01*
X840592Y716480D01*
X841084Y715611D01*
X841580Y714742D01*
X842078Y713875D01*
X842579Y713010D01*
X843083Y712146D01*
X843589Y711283D01*
X844098Y710422D01*
X844609Y709563D01*
X845123Y708705D01*
X845639Y707849D01*
X846158Y706994D01*
X846680Y706141D01*
X847204Y705289D01*
X847731Y704439D01*
X848261Y703591D01*
X848792Y702744D01*
X849327Y701899D01*
X849864Y701056D01*
X850404Y700214D01*
X850946Y699373D01*
X851490Y698535D01*
X852038Y697698D01*
X852588Y696863D01*
X853140Y696029D01*
X853695Y695197D01*
X854252Y694367D01*
X854812Y693538D01*
X855374Y692711D01*
X855939Y691886D01*
X856506Y691062D01*
X857076Y690241D01*
X857648Y689421D01*
X858223Y688602D01*
X858800Y687786D01*
X859380Y686971D01*
X859962Y686158D01*
X860547Y685347D01*
X861134Y684537D01*
X861723Y683729D01*
X862315Y682924D01*
X862910Y682119D01*
X863506Y681317D01*
X864106Y680516D01*
X864707Y679718D01*
X865311Y678921D01*
X865918Y678126D01*
X866527Y677332D01*
X867138Y676541D01*
X867752Y675751D01*
X868368Y674964D01*
X868986Y674178D01*
X869607Y673394D01*
X870230Y672612D01*
X870856Y671832D01*
X871483Y671054D01*
X872114Y670277D01*
X872746Y669503D01*
X873381Y668730D01*
X874018Y667959D01*
X874658Y667191D01*
X875300Y666424D01*
X875944Y665659D01*
X876591Y664896D01*
X877239Y664135D01*
X877890Y663376D01*
X878544Y662619D01*
X879200Y661864D01*
X879858Y661111D01*
X880518Y660360D01*
X881180Y659611D01*
X881845Y658864D01*
X882512Y658119D01*
X883181Y657376D01*
X883853Y656636D01*
X884527Y655897D01*
X885203Y655160D01*
X885881Y654425D01*
X886561Y653692D01*
X887244Y652961D01*
X887929Y652233D01*
X888616Y651506D01*
X889305Y650782D01*
X889997Y650059D01*
X890690Y649339D01*
X891386Y648621D01*
X892084Y647905D01*
X892784Y647191D01*
X893487Y646479D01*
X894191Y645769D01*
X894898Y645061D01*
X895606Y644356D01*
X896317Y643653D01*
X897030Y642951D01*
X897745Y642252D01*
X898462Y641556D01*
X899182Y640861D01*
X899903Y640169D01*
X900627Y639478D01*
X901352Y638790D01*
X902080Y638104D01*
X902810Y637420D01*
X903541Y636739D01*
X904275Y636060D01*
X905011Y635383D01*
X905749Y634708D01*
X906489Y634035D01*
X907231Y633365D01*
X907975Y632697D01*
X908721Y632031D01*
X909469Y631367D01*
X910219Y630706D01*
X910971Y630047D01*
X911725Y629390D01*
X912481Y628735D01*
X913239Y628083D01*
X913999Y627433D01*
X914761Y626786D01*
X915525Y626140D01*
X916291Y625497D01*
X917059Y624857D01*
X917828Y624218D01*
X918600Y623582D01*
X919374Y622949D01*
X920149Y622317D01*
X920926Y621688D01*
X921706Y621062D01*
X922487Y620437D01*
X923270Y619815D01*
X924055Y619196D01*
X924842Y618578D01*
X925630Y617964D01*
X926421Y617351D01*
X927213Y616741D01*
X928007Y616134D01*
X928803Y615528D01*
X929601Y614926D01*
X930401Y614325D01*
X931202Y613727D01*
X932006Y613132D01*
X932811Y612539D01*
X933618Y611948D01*
X934426Y611360D01*
X935237Y610774D01*
X936049Y610190D01*
X936863Y609610D01*
X937679Y609031D01*
X938496Y608455D01*
X939315Y607882D01*
X940136Y607311D01*
X940959Y606742D01*
X941783Y606176D01*
X942609Y605613D01*
X943437Y605052D01*
X944267Y604493D01*
X945098Y603937D01*
X945931Y603384D01*
X946765Y602833D01*
X947601Y602284D01*
X948439Y601739D01*
X949279Y601195D01*
X950120Y600654D01*
X950963Y600116D01*
X951807Y599580D01*
X952653Y599047D01*
X953500Y598517D01*
X954350Y597988D01*
X955200Y597463D01*
X956053Y596940D01*
X956907Y596420D01*
X957762Y595902D01*
X958619Y595387D01*
X959478Y594874D01*
X960338Y594364D01*
X961200Y593857D01*
X962063Y593352D01*
X962928Y592850D01*
X963794Y592350D01*
X964662Y591854D01*
X965531Y591359D01*
X966402Y590868D01*
X967274Y590379D01*
X968148Y589892D01*
X969023Y589409D01*
X969900Y588928D01*
X970778Y588449D01*
X971657Y587973D01*
X972538Y587500D01*
X973421Y587030D01*
X974305Y586562D01*
X975190Y586097D01*
X976077Y585635D01*
X976965Y585175D01*
X977854Y584718D01*
X978745Y584263D01*
X979637Y583812D01*
X980530Y583363D01*
X981425Y582916D01*
X982322Y582473D01*
X983219Y582032D01*
X984118Y581594D01*
X985018Y581159D01*
X985920Y580726D01*
X986823Y580296D01*
X987727Y579869D01*
X988632Y579444D01*
X989539Y579023D01*
X990447Y578604D01*
X991356Y578187D01*
X992267Y577774D01*
X993178Y577363D01*
X994091Y576955D01*
X995006Y576550D01*
X995921Y576148D01*
X996838Y575748D01*
X997755Y575351D01*
X998674Y574957D01*
X999595Y574565D01*
X1000516Y574177D01*
X1001439Y573791D01*
X1002362Y573408D01*
X1003287Y573028D01*
X1004213Y572650D01*
X1005140Y572276D01*
X1006069Y571904D01*
X1006998Y571535D01*
X1007929Y571169D01*
X1008860Y570806D01*
X1009793Y570445D01*
X1010727Y570087D01*
X1011662Y569733D01*
X1012598Y569380D01*
X1013535Y569031D01*
X1014473Y568685D01*
X1015412Y568341D01*
X1016352Y568001D01*
X1017293Y567663D01*
X1018235Y567328D01*
X1019179Y566995D01*
X1020123Y566666D01*
X1021068Y566340D01*
X1022014Y566016D01*
X1022961Y565695D01*
X1023909Y565378D01*
X1024858Y565063D01*
X1025809Y564750D01*
X1026760Y564441D01*
X1027711Y564135D01*
X1028664Y563831D01*
X1029618Y563531D01*
X1030573Y563233D01*
X1031528Y562938D01*
X1032485Y562646D01*
X1033442Y562357D01*
X1034400Y562071D01*
X1035359Y561788D01*
X1036319Y561507D01*
X1037280Y561230D01*
X1038241Y560955D01*
X1039203Y560684D01*
X1040167Y560415D01*
X1041131Y560149D01*
X1042095Y559886D01*
X1043061Y559626D01*
X1044028Y559369D01*
X1044995Y559115D01*
X1045963Y558864D01*
X1046931Y558615D01*
X1047901Y558370D01*
X1048871Y558128D01*
X1049842Y557888D01*
X1050813Y557652D01*
X1051785Y557418D01*
X1052759Y557187D01*
X1053732Y556959D01*
X1054707Y556735D01*
X1055682Y556513D01*
X1056657Y556294D01*
X1057634Y556078D01*
X1058611Y555865D01*
X1059589Y555655D01*
X1060567Y555448D01*
X1061546Y555244D01*
X1062525Y555043D01*
X1063505Y554845D01*
X1064486Y554649D01*
X1065467Y554457D01*
X1066449Y554268D01*
X1067432Y554081D01*
X1068415Y553898D01*
X1069398Y553718D01*
X1070383Y553540D01*
X1071367Y553366D01*
X1072352Y553194D01*
X1073338Y553026D01*
X1074324Y552860D01*
X1075311Y552698D01*
X1076298Y552538D01*
X1077286Y552382D01*
X1078274Y552228D01*
X1079263Y552078D01*
X1080252Y551930D01*
X1081241Y551786D01*
X1082231Y551644D01*
X1083221Y551506D01*
X1084212Y551370D01*
X1085203Y551237D01*
X1086195Y551108D01*
X1087187Y550981D01*
X1088179Y550857D01*
X1089172Y550737D01*
X1090165Y550619D01*
X1091158Y550505D01*
X1092152Y550393D01*
X1093146Y550284D01*
X1094140Y550179D01*
X1095135Y550076D01*
X1096130Y549977D01*
X1097125Y549880D01*
X1098121Y549787D01*
X1099117Y549696D01*
X1100113Y549609D01*
X1101109Y549524D01*
X1102106Y549443D01*
X1103103Y549364D01*
X1104100Y549289D01*
X1105097Y549216D01*
X1106095Y549147D01*
X1107093Y549080D01*
X1108091Y549017D01*
X1109089Y548957D01*
X1110087Y548899D01*
X1111086Y548845D01*
X1112084Y548794D01*
X1113083Y548745D01*
X1114082Y548700D01*
X1115081Y548658D01*
X1116080Y548618D01*
X1117080Y548582D01*
X1118079Y548549D01*
X1119079Y548519D01*
X1120078Y548492D01*
X1121078Y548467D01*
X1122078Y548446D01*
X1123077Y548428D01*
X1124077Y548413D01*
X1125077Y548401D01*
X1126077Y548392D01*
X1127077Y548386D01*
X1128077Y548383D01*
X1129077Y548383D01*
X1130077Y548386D01*
X1131077Y548392D01*
X1132077Y548402D01*
X1133077Y548414D01*
X1134077Y548429D01*
X1135077Y548447D01*
X1136076Y548468D01*
X1137076Y548492D01*
X1138076Y548520D01*
X1139075Y548550D01*
X1140075Y548583D01*
X1141074Y548620D01*
X1142073Y548659D01*
X1143072Y548701D01*
X1144071Y548747D01*
X1145070Y548795D01*
X1146069Y548847D01*
X1147067Y548901D01*
X1148065Y548959D01*
X1149064Y549019D01*
X1150062Y549083D01*
X1151059Y549149D01*
X1152057Y549219D01*
X1153054Y549291D01*
X1154051Y549367D01*
X1155048Y549445D01*
X1156045Y549527D01*
X1157041Y549612D01*
X1158037Y549699D01*
X1159033Y549790D01*
X1160029Y549884D01*
X1161024Y549980D01*
X1162019Y550080D01*
X1163014Y550182D01*
X1164008Y550288D01*
X1165002Y550397D01*
X1165996Y550509D01*
X1166990Y550623D01*
X1167982Y550741D01*
X1168975Y550862D01*
X1169967Y550985D01*
X1170959Y551112D01*
X1171951Y551242D01*
X1172942Y551374D01*
X1173933Y551510D01*
X1174923Y551649D01*
X1175913Y551791D01*
X1176902Y551935D01*
X1177892Y552083D01*
X1178880Y552234D01*
X1179868Y552387D01*
X1180856Y552544D01*
X1181843Y552704D01*
X1182830Y552866D01*
X1183816Y553032D01*
X1184801Y553200D01*
X1185787Y553372D01*
X1186771Y553546D01*
X1187755Y553724D01*
X1188739Y553904D01*
X1189722Y554088D01*
X1190704Y554274D01*
X1191686Y554464D01*
X1192667Y554656D01*
X1193648Y554851D01*
X1194628Y555050D01*
X1195608Y555251D01*
X1196587Y555455D01*
X1197565Y555662D01*
X1198543Y555872D01*
X1199520Y556085D01*
X1200496Y556301D01*
X1201472Y556521D01*
X1202447Y556742D01*
X1203421Y556967D01*
X1204395Y557195D01*
X1205368Y557426D01*
X1206340Y557660D01*
X1207312Y557896D01*
X1208283Y558136D01*
X1209253Y558378D01*
X1210222Y558624D01*
X1211191Y558872D01*
X1212159Y559124D01*
X1213126Y559378D01*
X1214092Y559635D01*
X1215058Y559895D01*
X1216022Y560158D01*
X1216986Y560424D01*
X1217950Y560693D01*
X1218912Y560965D01*
X1219874Y561239D01*
X1220834Y561517D01*
X1221794Y561797D01*
X1222753Y562081D01*
X1223711Y562367D01*
X1224668Y562656D01*
X1225625Y562948D01*
X1226580Y563243D01*
X1227535Y563541D01*
X1228489Y563842D01*
X1229441Y564145D01*
X1230393Y564452D01*
X1231344Y564761D01*
X1232294Y565073D01*
X1233243Y565388D01*
X1234191Y565706D01*
X1235138Y566027D01*
X1236084Y566351D01*
X1237030Y566678D01*
X1237974Y567007D01*
X1238917Y567339D01*
X1239859Y567674D01*
X1240800Y568012D01*
X1241740Y568353D01*
X1242679Y568697D01*
X1243618Y569043D01*
X1244555Y569392D01*
X1245490Y569745D01*
X1246425Y570100D01*
X1247359Y570457D01*
X1248292Y570818D01*
X1249223Y571181D01*
X1250154Y571548D01*
X1251083Y571917D01*
X1252011Y572289D01*
X1252939Y572663D01*
X1253865Y573041D01*
X1254789Y573421D01*
X1255713Y573804D01*
X1256636Y574190D01*
X1257557Y574579D01*
X1258477Y574970D01*
X1259396Y575364D01*
X1260314Y575762D01*
X1261230Y576161D01*
X1262146Y576564D01*
X1263060Y576969D01*
X1263973Y577377D01*
X1264885Y577788D01*
X1265795Y578202D01*
X1266704Y578618D01*
X1267612Y579037D01*
X1268519Y579459D01*
X1269424Y579883D01*
X1270328Y580311D01*
X1271231Y580741D01*
X1272133Y581174D01*
X1273033Y581609D01*
X1273932Y582047D01*
X1274829Y582488D01*
X1275725Y582932D01*
X1276620Y583378D01*
X1277514Y583827D01*
X1278406Y584279D01*
X1279297Y584733D01*
X1280186Y585190D01*
X1281074Y585650D01*
X1281960Y586113D01*
X1282846Y586578D01*
X1283729Y587046D01*
X1284612Y587516D01*
X1285493Y587990D01*
X1286372Y588465D01*
X1287250Y588944D01*
X1288127Y589425D01*
X1289002Y589909D01*
X1289876Y590395D01*
X1290748Y590884D01*
X1291619Y591376D01*
X1292488Y591871D01*
X1293356Y592368D01*
X1294222Y592867D01*
X1295087Y593369D01*
X1295950Y593874D01*
X1296811Y594382D01*
X1297672Y594892D01*
X1298530Y595404D01*
X1299387Y595920D01*
X1300243Y596438D01*
X1301097Y596958D01*
X1301949Y597481D01*
X1302800Y598006D01*
X1303649Y598535D01*
X1304496Y599065D01*
X1305342Y599599D01*
X1306186Y600135D01*
X1307029Y600673D01*
X1307870Y601214D01*
X1308710Y601757D01*
X1309547Y602303D01*
X1310384Y602852D01*
X1311218Y603403D01*
X1312051Y603956D01*
X1312882Y604512D01*
X1313711Y605071D01*
X1314539Y605632D01*
X1315365Y606196D01*
X1316189Y606762D01*
X1317012Y607330D01*
X1317833Y607901D01*
X1318652Y608475D01*
X1319469Y609051D01*
X1320285Y609630D01*
X1321099Y610211D01*
X1321911Y610794D01*
X1322721Y611380D01*
X1323530Y611968D01*
X1324337Y612559D01*
X1325142Y613152D01*
X1325945Y613748D01*
X1326747Y614346D01*
X1327546Y614946D01*
X1328344Y615549D01*
X1329140Y616154D01*
X1329934Y616762D01*
X1330726Y617372D01*
X1331517Y617985D01*
X1332306Y618600D01*
X1333092Y619217D01*
X1333877Y619837D01*
X1334660Y620459D01*
X1335441Y621083D01*
X1336220Y621710D01*
X1336998Y622339D01*
X1337773Y622970D01*
X1338546Y623604D01*
X1339318Y624240D01*
X1340088Y624879D01*
X1340856Y625519D01*
X1341621Y626162D01*
X1342385Y626808D01*
X1343147Y627456D01*
X1343907Y628105D01*
X1344665Y628758D01*
X1345421Y629412D01*
X1346175Y630069D01*
X1346927Y630728D01*
X1347677Y631390D01*
X1348425Y632054D01*
X1349171Y632720D01*
X1349915Y633388D01*
X1350657Y634058D01*
X1351396Y634731D01*
X1352134Y635406D01*
X1352870Y636083D01*
X1353604Y636762D01*
X1354336Y637444D01*
X1355065Y638128D01*
X1355793Y638814D01*
X1356518Y639502D01*
X1357242Y640192D01*
X1357963Y640885D01*
X1358682Y641579D01*
X1359399Y642276D01*
X1360114Y642976D01*
X1360827Y643677D01*
X1361538Y644380D01*
X1362247Y645086D01*
X1362953Y645793D01*
X1363658Y646503D01*
X1364360Y647215D01*
X1365060Y647929D01*
X1365758Y648645D01*
X1366453Y649364D01*
X1367147Y650084D01*
X1367838Y650807D01*
X1368528Y651531D01*
X1369215Y652258D01*
X1369899Y652986D01*
X1370582Y653717D01*
X1371262Y654450D01*
X1371941Y655185D01*
X1372616Y655922D01*
X1373290Y656661D01*
X1373962Y657402D01*
X1374631Y658145D01*
X1375298Y658890D01*
X1375962Y659637D01*
X1376625Y660386D01*
X1377285Y661137D01*
X1377943Y661890D01*
X1378599Y662645D01*
X1379252Y663402D01*
X1379903Y664161D01*
X1380552Y664922D01*
X1381198Y665685D01*
X1381842Y666450D01*
X1382484Y667217D01*
X1383124Y667986D01*
X1383761Y668757D01*
X1384396Y669529D01*
X1385028Y670304D01*
X1385658Y671080D01*
X1386286Y671859D01*
X1386911Y672639D01*
X1387535Y673421D01*
X1388155Y674205D01*
X1388774Y674991D01*
X1389390Y675779D01*
X1390003Y676568D01*
X1390614Y677360D01*
X1391223Y678153D01*
X1391829Y678948D01*
X1392433Y679745D01*
X1393035Y680544D01*
X1393634Y681345D01*
X1394231Y682147D01*
X1394825Y682951D01*
X1395417Y683757D01*
X1396006Y684565D01*
X1396593Y685374D01*
X1397178Y686186D01*
X1397760Y686999D01*
X1398340Y687814D01*
X1398917Y688630D01*
X1399492Y689449D01*
X1400064Y690269D01*
X1400633Y691091D01*
X1401201Y691914D01*
X1401765Y692740D01*
X1402328Y693567D01*
X1402887Y694395D01*
X1403444Y695225D01*
X1403999Y696058D01*
X1404551Y696891D01*
X1405101Y697727D01*
X1405648Y698564D01*
X1406193Y699402D01*
X1406735Y700243D01*
X1407274Y701085D01*
X1407811Y701928D01*
X1408346Y702773D01*
X1408878Y703620D01*
X1409407Y704468D01*
X1409934Y705318D01*
X1410458Y706170D01*
X1410979Y707023D01*
X1411499Y707878D01*
X1412015Y708734D01*
X1412529Y709592D01*
X1413040Y710452D01*
X1413549Y711313D01*
X1414055Y712175D01*
X1414558Y713039D01*
X1415059Y713905D01*
X1415557Y714772D01*
X1416053Y715640D01*
X1416545Y716510D01*
X1417036Y717382D01*
X1417523Y718255D01*
X1418008Y719129D01*
X1418491Y720005D01*
X1418970Y720883D01*
X1419448Y721762D01*
X1419922Y722642D01*
X1420394Y723524D01*
X1420863Y724407D01*
X1421329Y725291D01*
X1421793Y726177D01*
X1422254Y727065D01*
X1422712Y727953D01*
X1423168Y728844D01*
X1423621Y729735D01*
X1424071Y730628D01*
X1424519Y731522D01*
X1424963Y732418D01*
X1425406Y733315D01*
X1425845Y734213D01*
X1426282Y735112D01*
X1426716Y736013D01*
X1427147Y736916D01*
X1427576Y737819D01*
X1428001Y738724D01*
X1428424Y739630D01*
X1428845Y740537D01*
X1429262Y741446D01*
X1429677Y742356D01*
X1430089Y743267D01*
X1430499Y744179D01*
X1430905Y745093D01*
X1431309Y746008D01*
X1431710Y746924D01*
X1432108Y747841D01*
X1432504Y748760D01*
X1432896Y749679D01*
X1433286Y750600D01*
X1433673Y751522D01*
X1434058Y752445D01*
X1434439Y753370D01*
X1434818Y754295D01*
X1435194Y755222D01*
X1435567Y756149D01*
X1435938Y757078D01*
X1436305Y758008D01*
X1436670Y758939D01*
X1437032Y759871D01*
X1437391Y760805D01*
X1437747Y761739D01*
X1438101Y762675D01*
X1438451Y763611D01*
X1438799Y764549D01*
X1439144Y765487D01*
X1439486Y766427D01*
X1439825Y767368D01*
X1440162Y768309D01*
X1440495Y769252D01*
X1440826Y770196D01*
X1441154Y771140D01*
X1441479Y772086D01*
X1441801Y773033D01*
X1442120Y773980D01*
X1442436Y774929D01*
X1442750Y775879D01*
X1443061Y776829D01*
X1443368Y777780D01*
X1443673Y778733D01*
X1443975Y779686D01*
X1444274Y780640D01*
X1444571Y781596D01*
X1444864Y782551D01*
X1445154Y783508D01*
X1445442Y784466D01*
X1445727Y785425D01*
X1446008Y786384D01*
X1446287Y787344D01*
X1446563Y788306D01*
X1446836Y789267D01*
X1447107Y790230D01*
X1447374Y791194D01*
X1447638Y792158D01*
X1447900Y793124D01*
X1448158Y794090D01*
X1448414Y795056D01*
X1448666Y796024D01*
X1448916Y796992D01*
X1449163Y797961D01*
X1449407Y798931D01*
X1449648Y799902D01*
X1449885Y800873D01*
X1450121Y801845D01*
X1450353Y802817D01*
X1450582Y803791D01*
X1450808Y804765D01*
X1451031Y805740D01*
X1451252Y806715D01*
X1451469Y807691D01*
X1451683Y808668D01*
X1451895Y809645D01*
X1452103Y810623D01*
X1452309Y811602D01*
X1452512Y812581D01*
X1452711Y813561D01*
X1452908Y814541D01*
X1453102Y815522D01*
X1453292Y816504D01*
X1453480Y817486D01*
X1453665Y818469D01*
X1453847Y819452D01*
X1454025Y820436D01*
X1454201Y821420D01*
X1454374Y822405D01*
X1454544Y823391D01*
X1454711Y824377D01*
X1454875Y825363D01*
X1455036Y826350D01*
X1455194Y827338D01*
X1455349Y828325D01*
X1455501Y829314D01*
X1455650Y830303D01*
X1455796Y831292D01*
X1455939Y832282D01*
X1456079Y833272D01*
X1456216Y834262D01*
X1456350Y835253D01*
X1456481Y836245D01*
X1456609Y837236D01*
X1456734Y838229D01*
X1456857Y839221D01*
X1456975Y840214D01*
X1457092Y841207D01*
X1457205Y842201D01*
X1457315Y843195D01*
X1457422Y844189D01*
X1457526Y845183D01*
X1457627Y846178D01*
X1457725Y847173D01*
X1457820Y848169D01*
X1457912Y849165D01*
X1458001Y850161D01*
X1458087Y851157D01*
X1458170Y852153D01*
X1458250Y853150D01*
X1458327Y854147D01*
X1458401Y855145D01*
X1458471Y856142D01*
X1458539Y857140D01*
X1458604Y858138D01*
X1458666Y859136D01*
X1458725Y860134D01*
X1458781Y861132D01*
X1458834Y862131D01*
X1458883Y863130D01*
X1458930Y864128D01*
X1458974Y865127D01*
X1459014Y866127D01*
X1459052Y867126D01*
X1459087Y868125D01*
X1459118Y869125D01*
X1459147Y870124D01*
X1459173Y871124D01*
X1459195Y872124D01*
X1459215Y873123D01*
X1459231Y874123D01*
X1459245Y875123D01*
X1459255Y876123D01*
X1459263Y877123D01*
X1459267Y878123D01*
X1459269Y879091D01*
M02*
