G04*
G04 #@! TF.GenerationSoftware,Altium Limited,Altium Designer,22.9.1 (49)*
G04*
G04 Layer_Color=65535*
%FSLAX25Y25*%
%MOIN*%
G70*
G04*
G04 #@! TF.SameCoordinates,8A5C06B3-4C5D-48ED-891A-8E98A4BE319D*
G04*
G04*
G04 #@! TF.FilePolarity,Positive*
G04*
G01*
G75*
%ADD10C,0.00787*%
%ADD11C,0.00200*%
%ADD12C,0.00394*%
%ADD13C,0.00591*%
%ADD14C,0.01000*%
D10*
X1273064Y1153708D02*
X1273458Y1154390D01*
X1273064Y1153708D01*
X970364Y1150720D02*
X970032Y1151433D01*
X970364Y1150720D01*
X960936Y619792D02*
X960542Y619110D01*
X960936Y619792D01*
X1300523Y620934D02*
X1300916Y620252D01*
X1300523Y620934D01*
X1405208Y733436D02*
X1405890Y733042D01*
X1405208Y733436D01*
X1390755Y1040247D02*
X1391358Y1040753D01*
X1390755Y1040247D01*
X863436Y1040342D02*
X862791Y1040794D01*
X863436Y1040342D01*
X844862Y752908D02*
X844122Y752639D01*
X844862Y752908D01*
D11*
X1164835Y578500D02*
X1164813Y579503D01*
X1164746Y580504D01*
X1164637Y581501D01*
X1164483Y582493D01*
X1164286Y583476D01*
X1164046Y584450D01*
X1163763Y585413D01*
X1163438Y586362D01*
X1163072Y587296D01*
X1162666Y588213D01*
X1162219Y589112D01*
X1161734Y589990D01*
X1161210Y590845D01*
X1160649Y591677D01*
X1160052Y592484D01*
X1159420Y593263D01*
X1158755Y594014D01*
X1158058Y594735D01*
X1157329Y595425D01*
X1156571Y596082D01*
X1155785Y596705D01*
X1154972Y597293D01*
X1154134Y597844D01*
X1153272Y598358D01*
X1152389Y598834D01*
X1151486Y599271D01*
X1150564Y599668D01*
X1149626Y600024D01*
X1148674Y600338D01*
X1147708Y600610D01*
X1146731Y600839D01*
X1145745Y601025D01*
X1144752Y601168D01*
X1143754Y601267D01*
X1142752Y601322D01*
X1141749Y601333D01*
X1140746Y601300D01*
X1139746Y601223D01*
X1138750Y601102D01*
X1137761Y600938D01*
X1136779Y600730D01*
X1135808Y600479D01*
X1134848Y600186D01*
X1133903Y599851D01*
X1132973Y599474D01*
X1132060Y599058D01*
X1131167Y598601D01*
X1130294Y598106D01*
X1129444Y597573D01*
X1128619Y597003D01*
X1127819Y596397D01*
X1127046Y595757D01*
X1126303Y595084D01*
X1125590Y594378D01*
X1124908Y593642D01*
X1124259Y592877D01*
X1123645Y592084D01*
X1123066Y591264D01*
X1122524Y590420D01*
X1122019Y589553D01*
X1121553Y588665D01*
X1121126Y587757D01*
X1120739Y586831D01*
X1120394Y585889D01*
X1120090Y584933D01*
X1119829Y583965D01*
X1119610Y582986D01*
X1119435Y581998D01*
X1119303Y581003D01*
X1119215Y580004D01*
X1119171Y579002D01*
Y577998D01*
X1119215Y576996D01*
X1119303Y575997D01*
X1119435Y575002D01*
X1119610Y574014D01*
X1119829Y573035D01*
X1120090Y572067D01*
X1120394Y571111D01*
X1120739Y570169D01*
X1121126Y569243D01*
X1121553Y568335D01*
X1122019Y567447D01*
X1122524Y566580D01*
X1123066Y565736D01*
X1123645Y564916D01*
X1124259Y564123D01*
X1124908Y563358D01*
X1125590Y562622D01*
X1126303Y561916D01*
X1127046Y561243D01*
X1127819Y560603D01*
X1128619Y559997D01*
X1129444Y559427D01*
X1130294Y558894D01*
X1131167Y558399D01*
X1132060Y557942D01*
X1132973Y557525D01*
X1133903Y557149D01*
X1134848Y556814D01*
X1135808Y556521D01*
X1136779Y556270D01*
X1137761Y556062D01*
X1138750Y555898D01*
X1139746Y555777D01*
X1140746Y555700D01*
X1141749Y555667D01*
X1142752Y555678D01*
X1143754Y555733D01*
X1144753Y555832D01*
X1145745Y555975D01*
X1146731Y556161D01*
X1147708Y556390D01*
X1148674Y556662D01*
X1149626Y556977D01*
X1150564Y557332D01*
X1151486Y557729D01*
X1152389Y558166D01*
X1153272Y558642D01*
X1154134Y559156D01*
X1154972Y559707D01*
X1155785Y560295D01*
X1156571Y560919D01*
X1157329Y561575D01*
X1158058Y562265D01*
X1158755Y562986D01*
X1159420Y563737D01*
X1160052Y564516D01*
X1160649Y565323D01*
X1161210Y566155D01*
X1161734Y567010D01*
X1162219Y567888D01*
X1162666Y568787D01*
X1163072Y569704D01*
X1163439Y570638D01*
X1163763Y571587D01*
X1164046Y572550D01*
X1164286Y573524D01*
X1164483Y574508D01*
X1164637Y575499D01*
X1164747Y576496D01*
X1164813Y577497D01*
X1164835Y578500D01*
X1140835Y1181500D02*
X1140813Y1182503D01*
X1140746Y1183504D01*
X1140637Y1184501D01*
X1140483Y1185493D01*
X1140286Y1186476D01*
X1140046Y1187450D01*
X1139763Y1188413D01*
X1139438Y1189362D01*
X1139072Y1190296D01*
X1138666Y1191213D01*
X1138219Y1192112D01*
X1137733Y1192990D01*
X1137210Y1193845D01*
X1136649Y1194677D01*
X1136052Y1195484D01*
X1135421Y1196263D01*
X1134755Y1197014D01*
X1134058Y1197735D01*
X1133329Y1198425D01*
X1132571Y1199082D01*
X1131785Y1199705D01*
X1130972Y1200292D01*
X1130134Y1200844D01*
X1129272Y1201359D01*
X1128389Y1201834D01*
X1127486Y1202271D01*
X1126564Y1202668D01*
X1125626Y1203024D01*
X1124673Y1203338D01*
X1123708Y1203610D01*
X1122731Y1203839D01*
X1121745Y1204025D01*
X1120752Y1204168D01*
X1119754Y1204267D01*
X1118752Y1204322D01*
X1117749Y1204333D01*
X1116747Y1204300D01*
X1115746Y1204223D01*
X1114750Y1204102D01*
X1113761Y1203938D01*
X1112779Y1203730D01*
X1111808Y1203479D01*
X1110848Y1203186D01*
X1109903Y1202851D01*
X1108973Y1202474D01*
X1108060Y1202058D01*
X1107167Y1201601D01*
X1106294Y1201106D01*
X1105444Y1200573D01*
X1104619Y1200003D01*
X1103819Y1199397D01*
X1103047Y1198757D01*
X1102303Y1198084D01*
X1101590Y1197378D01*
X1100908Y1196642D01*
X1100259Y1195877D01*
X1099645Y1195084D01*
X1099066Y1194264D01*
X1098524Y1193420D01*
X1098019Y1192553D01*
X1097553Y1191665D01*
X1097126Y1190757D01*
X1096739Y1189831D01*
X1096394Y1188889D01*
X1096090Y1187933D01*
X1095829Y1186965D01*
X1095610Y1185986D01*
X1095435Y1184998D01*
X1095303Y1184003D01*
X1095215Y1183004D01*
X1095171Y1182002D01*
Y1180998D01*
X1095215Y1179996D01*
X1095303Y1178997D01*
X1095435Y1178002D01*
X1095610Y1177014D01*
X1095829Y1176035D01*
X1096090Y1175067D01*
X1096394Y1174111D01*
X1096739Y1173169D01*
X1097126Y1172243D01*
X1097553Y1171335D01*
X1098019Y1170447D01*
X1098524Y1169580D01*
X1099066Y1168736D01*
X1099645Y1167916D01*
X1100259Y1167123D01*
X1100908Y1166358D01*
X1101590Y1165622D01*
X1102303Y1164916D01*
X1103047Y1164243D01*
X1103819Y1163603D01*
X1104619Y1162997D01*
X1105444Y1162427D01*
X1106294Y1161894D01*
X1107167Y1161399D01*
X1108060Y1160942D01*
X1108973Y1160526D01*
X1109903Y1160149D01*
X1110848Y1159814D01*
X1111808Y1159521D01*
X1112779Y1159270D01*
X1113761Y1159062D01*
X1114750Y1158898D01*
X1115746Y1158777D01*
X1116747Y1158700D01*
X1117749Y1158667D01*
X1118752Y1158678D01*
X1119754Y1158733D01*
X1120753Y1158832D01*
X1121745Y1158975D01*
X1122731Y1159161D01*
X1123708Y1159390D01*
X1124674Y1159662D01*
X1125626Y1159976D01*
X1126564Y1160332D01*
X1127486Y1160729D01*
X1128389Y1161166D01*
X1129272Y1161642D01*
X1130134Y1162156D01*
X1130972Y1162708D01*
X1131785Y1163295D01*
X1132571Y1163918D01*
X1133329Y1164575D01*
X1134058Y1165265D01*
X1134755Y1165986D01*
X1135421Y1166737D01*
X1136052Y1167516D01*
X1136649Y1168323D01*
X1137210Y1169155D01*
X1137733Y1170010D01*
X1138219Y1170888D01*
X1138666Y1171787D01*
X1139072Y1172704D01*
X1139439Y1173638D01*
X1139763Y1174587D01*
X1140046Y1175550D01*
X1140286Y1176524D01*
X1140483Y1177507D01*
X1140637Y1178499D01*
X1140747Y1179496D01*
X1140813Y1180497D01*
X1140835Y1181500D01*
X1452835Y883000D02*
X1452813Y884003D01*
X1452746Y885004D01*
X1452637Y886001D01*
X1452483Y886993D01*
X1452286Y887976D01*
X1452046Y888950D01*
X1451763Y889913D01*
X1451438Y890862D01*
X1451072Y891796D01*
X1450666Y892713D01*
X1450219Y893612D01*
X1449734Y894490D01*
X1449210Y895345D01*
X1448649Y896177D01*
X1448052Y896984D01*
X1447421Y897763D01*
X1446755Y898514D01*
X1446058Y899235D01*
X1445329Y899925D01*
X1444571Y900582D01*
X1443785Y901205D01*
X1442972Y901793D01*
X1442134Y902344D01*
X1441272Y902859D01*
X1440389Y903334D01*
X1439486Y903771D01*
X1438564Y904168D01*
X1437626Y904523D01*
X1436674Y904838D01*
X1435708Y905110D01*
X1434731Y905339D01*
X1433745Y905525D01*
X1432752Y905668D01*
X1431754Y905767D01*
X1430752Y905822D01*
X1429749Y905833D01*
X1428747Y905800D01*
X1427746Y905723D01*
X1426750Y905602D01*
X1425761Y905438D01*
X1424779Y905230D01*
X1423808Y904979D01*
X1422848Y904686D01*
X1421903Y904351D01*
X1420973Y903975D01*
X1420060Y903558D01*
X1419167Y903101D01*
X1418294Y902606D01*
X1417444Y902073D01*
X1416619Y901503D01*
X1415819Y900898D01*
X1415047Y900257D01*
X1414303Y899584D01*
X1413590Y898878D01*
X1412908Y898142D01*
X1412259Y897377D01*
X1411645Y896584D01*
X1411066Y895764D01*
X1410524Y894920D01*
X1410019Y894053D01*
X1409553Y893165D01*
X1409126Y892257D01*
X1408739Y891331D01*
X1408394Y890389D01*
X1408090Y889433D01*
X1407829Y888465D01*
X1407610Y887486D01*
X1407435Y886498D01*
X1407303Y885503D01*
X1407215Y884504D01*
X1407171Y883502D01*
Y882498D01*
X1407215Y881496D01*
X1407303Y880497D01*
X1407435Y879502D01*
X1407610Y878514D01*
X1407829Y877535D01*
X1408090Y876567D01*
X1408394Y875611D01*
X1408739Y874669D01*
X1409126Y873743D01*
X1409553Y872835D01*
X1410019Y871947D01*
X1410524Y871080D01*
X1411066Y870236D01*
X1411645Y869416D01*
X1412259Y868623D01*
X1412908Y867858D01*
X1413590Y867122D01*
X1414303Y866416D01*
X1415047Y865743D01*
X1415819Y865102D01*
X1416619Y864497D01*
X1417444Y863927D01*
X1418294Y863394D01*
X1419167Y862899D01*
X1420060Y862442D01*
X1420973Y862026D01*
X1421903Y861649D01*
X1422848Y861314D01*
X1423808Y861021D01*
X1424779Y860770D01*
X1425761Y860562D01*
X1426750Y860398D01*
X1427746Y860277D01*
X1428747Y860200D01*
X1429749Y860167D01*
X1430752Y860178D01*
X1431754Y860233D01*
X1432753Y860332D01*
X1433745Y860475D01*
X1434731Y860661D01*
X1435708Y860890D01*
X1436674Y861162D01*
X1437626Y861477D01*
X1438564Y861832D01*
X1439486Y862229D01*
X1440389Y862666D01*
X1441272Y863142D01*
X1442134Y863656D01*
X1442972Y864207D01*
X1443785Y864795D01*
X1444571Y865418D01*
X1445329Y866075D01*
X1446058Y866765D01*
X1446755Y867486D01*
X1447421Y868237D01*
X1448052Y869016D01*
X1448649Y869823D01*
X1449210Y870655D01*
X1449734Y871510D01*
X1450219Y872388D01*
X1450666Y873287D01*
X1451072Y874204D01*
X1451439Y875138D01*
X1451763Y876087D01*
X1452046Y877050D01*
X1452286Y878024D01*
X1452483Y879008D01*
X1452637Y879999D01*
X1452747Y880996D01*
X1452813Y881997D01*
X1452835Y883000D01*
X849835Y869000D02*
X849813Y870003D01*
X849747Y871004D01*
X849637Y872001D01*
X849483Y872993D01*
X849286Y873976D01*
X849046Y874950D01*
X848763Y875913D01*
X848438Y876862D01*
X848072Y877796D01*
X847666Y878713D01*
X847219Y879612D01*
X846733Y880490D01*
X846210Y881345D01*
X845649Y882177D01*
X845052Y882984D01*
X844421Y883763D01*
X843755Y884514D01*
X843058Y885235D01*
X842329Y885925D01*
X841571Y886582D01*
X840784Y887205D01*
X839972Y887792D01*
X839134Y888344D01*
X838272Y888859D01*
X837389Y889334D01*
X836486Y889771D01*
X835564Y890168D01*
X834626Y890524D01*
X833673Y890838D01*
X832708Y891110D01*
X831731Y891339D01*
X830745Y891525D01*
X829752Y891668D01*
X828754Y891767D01*
X827752Y891822D01*
X826749Y891833D01*
X825747Y891800D01*
X824746Y891723D01*
X823750Y891602D01*
X822761Y891438D01*
X821779Y891230D01*
X820808Y890979D01*
X819848Y890686D01*
X818903Y890351D01*
X817973Y889974D01*
X817060Y889558D01*
X816167Y889101D01*
X815294Y888606D01*
X814444Y888073D01*
X813619Y887503D01*
X812819Y886897D01*
X812047Y886257D01*
X811303Y885584D01*
X810590Y884878D01*
X809908Y884142D01*
X809259Y883377D01*
X808645Y882584D01*
X808066Y881764D01*
X807524Y880920D01*
X807019Y880053D01*
X806553Y879165D01*
X806126Y878257D01*
X805739Y877331D01*
X805394Y876389D01*
X805090Y875433D01*
X804829Y874465D01*
X804610Y873486D01*
X804435Y872498D01*
X804303Y871503D01*
X804215Y870504D01*
X804171Y869502D01*
Y868498D01*
X804215Y867496D01*
X804303Y866497D01*
X804435Y865502D01*
X804610Y864514D01*
X804829Y863535D01*
X805090Y862567D01*
X805394Y861611D01*
X805739Y860669D01*
X806126Y859743D01*
X806553Y858835D01*
X807019Y857947D01*
X807524Y857080D01*
X808066Y856236D01*
X808645Y855416D01*
X809259Y854623D01*
X809908Y853858D01*
X810590Y853122D01*
X811303Y852416D01*
X812047Y851743D01*
X812819Y851103D01*
X813619Y850497D01*
X814444Y849927D01*
X815294Y849394D01*
X816167Y848899D01*
X817060Y848442D01*
X817973Y848026D01*
X818903Y847649D01*
X819848Y847314D01*
X820808Y847021D01*
X821779Y846770D01*
X822761Y846562D01*
X823750Y846398D01*
X824746Y846277D01*
X825747Y846200D01*
X826749Y846167D01*
X827752Y846178D01*
X828754Y846233D01*
X829753Y846332D01*
X830746Y846475D01*
X831731Y846661D01*
X832708Y846890D01*
X833674Y847162D01*
X834626Y847476D01*
X835564Y847832D01*
X836486Y848229D01*
X837389Y848666D01*
X838272Y849142D01*
X839134Y849656D01*
X839972Y850208D01*
X840784Y850795D01*
X841571Y851418D01*
X842329Y852075D01*
X843058Y852765D01*
X843755Y853486D01*
X844421Y854237D01*
X845052Y855016D01*
X845649Y855823D01*
X846210Y856655D01*
X846733Y857510D01*
X847219Y858388D01*
X847666Y859287D01*
X848072Y860204D01*
X848438Y861138D01*
X848763Y862087D01*
X849046Y863050D01*
X849286Y864024D01*
X849483Y865007D01*
X849637Y865999D01*
X849747Y866996D01*
X849813Y867997D01*
X849835Y869000D01*
D12*
X1276533Y1132157D02*
X1280624Y1129795D01*
X1286376Y1149205D02*
X1290467Y1146843D01*
X990008Y1141200D02*
X994289Y1143197D01*
X981688Y1159041D02*
X985970Y1161038D01*
X953376Y643705D02*
X957467Y641343D01*
X943533Y626657D02*
X947624Y624295D01*
X1276033Y626343D02*
X1280124Y628705D01*
X1285876Y609295D02*
X1289967Y611657D01*
X1381295Y725876D02*
X1383657Y729967D01*
X1398343Y716033D02*
X1400705Y720124D01*
X1386644Y1018810D02*
X1389681Y1015191D01*
X1401724Y1031463D02*
X1404760Y1027844D01*
X885208Y1041920D02*
X887917Y1045790D01*
X869083Y1053210D02*
X871792Y1057080D01*
X854441Y776086D02*
X856057Y771647D01*
X835943Y769353D02*
X837559Y764914D01*
D13*
X1359889Y660772D02*
X1364111Y657229D01*
X1366746Y661545D02*
X1367325Y661059D01*
X1360897Y653398D02*
X1367325Y661059D01*
X1360318Y653884D02*
X1360897Y653398D01*
X1356675Y656941D02*
X1357254Y656455D01*
X1356675Y656941D02*
X1363103Y664602D01*
X1363682Y664116D01*
X1347889Y672271D02*
X1352111Y668728D01*
X1354746Y673045D02*
X1355325Y672559D01*
X1348897Y664898D02*
X1355325Y672559D01*
X1348318Y665384D02*
X1348897Y664898D01*
X1344675Y668441D02*
X1345254Y667955D01*
X1344675Y668441D02*
X1351103Y676102D01*
X1351682Y675616D01*
X1337534Y679232D02*
X1341756Y675689D01*
X1344391Y680005D02*
X1344970Y679519D01*
X1338542Y671859D02*
X1344970Y679519D01*
X1337963Y672344D02*
X1338542Y671859D01*
X1334320Y675402D02*
X1334899Y674916D01*
X1334320Y675402D02*
X1340748Y683062D01*
X1341327Y682576D01*
X873744Y681689D02*
X877966Y685232D01*
X876958Y677859D02*
X877537Y678345D01*
X870530Y685519D02*
X876958Y677859D01*
X870530Y685519D02*
X871109Y686005D01*
X874173Y688576D02*
X874752Y689062D01*
X881180Y681402D01*
X880601Y680916D02*
X881180Y681402D01*
X884744Y690189D02*
X888966Y693732D01*
X887958Y686359D02*
X888537Y686845D01*
X881530Y694019D02*
X887958Y686359D01*
X881530Y694019D02*
X882109Y694505D01*
X885173Y697076D02*
X885752Y697562D01*
X892180Y689902D01*
X891601Y689416D02*
X892180Y689902D01*
X896889Y698729D02*
X901111Y702272D01*
X900103Y694898D02*
X900682Y695384D01*
X893675Y702559D02*
X900103Y694898D01*
X893675Y702559D02*
X894254Y703045D01*
X897318Y705616D02*
X897897Y706102D01*
X904325Y698441D01*
X903746Y697955D02*
X904325Y698441D01*
X822669Y972618D02*
X823380Y972359D01*
X826800Y981756D01*
X826089Y982014D02*
X826800Y981756D01*
X821620Y983641D02*
X822331Y983383D01*
X818200Y974244D02*
X821620Y983641D01*
X818200Y974244D02*
X818911Y973985D01*
X819910Y978943D02*
X825090Y977057D01*
X840044Y965522D02*
X840755Y965264D01*
X844175Y974661D01*
X843465Y974919D02*
X844175Y974661D01*
X838996Y976546D02*
X839706Y976287D01*
X835575Y967149D02*
X838996Y976546D01*
X835575Y967149D02*
X836286Y966890D01*
X837286Y971847D02*
X842465Y969962D01*
X854169Y961617D02*
X854880Y961359D01*
X858300Y970756D01*
X857590Y971014D02*
X858300Y970756D01*
X853120Y972641D02*
X853831Y972383D01*
X849700Y963244D02*
X853120Y972641D01*
X849700Y963244D02*
X850410Y962986D01*
X851410Y967943D02*
X856590Y966057D01*
X921242Y1091139D02*
X925139Y1087242D01*
X917706Y1087604D02*
X918241Y1087069D01*
X917706Y1087604D02*
X924777Y1094675D01*
X925312Y1094140D01*
X928140Y1091312D02*
X928675Y1090777D01*
X921604Y1083706D02*
X928675Y1090777D01*
X921069Y1084241D02*
X921604Y1083706D01*
X912051Y1101449D02*
X915949Y1097551D01*
X908516Y1097913D02*
X909050Y1097379D01*
X908516Y1097913D02*
X915587Y1104984D01*
X916121Y1104450D01*
X918950Y1101621D02*
X919484Y1101087D01*
X912413Y1094016D02*
X919484Y1101087D01*
X911879Y1094550D02*
X912413Y1094016D01*
X903742Y1111139D02*
X907639Y1107242D01*
X900206Y1107604D02*
X900741Y1107069D01*
X900206Y1107604D02*
X907277Y1114675D01*
X907812Y1114140D01*
X910640Y1111312D02*
X911175Y1110777D01*
X904104Y1103706D02*
X911175Y1110777D01*
X903569Y1104241D02*
X904104Y1103706D01*
X1037057Y598410D02*
X1038943Y603590D01*
X1041756Y596700D02*
X1042014Y597410D01*
X1032359Y600120D02*
X1041756Y596700D01*
X1032359Y600120D02*
X1032617Y600831D01*
X1033986Y604590D02*
X1034244Y605300D01*
X1043641Y601880D01*
X1043382Y601169D02*
X1043641Y601880D01*
X1033462Y589035D02*
X1035347Y594214D01*
X1038161Y587325D02*
X1038419Y588035D01*
X1028764Y590745D02*
X1038161Y587325D01*
X1028764Y590745D02*
X1029022Y591455D01*
X1030390Y595214D02*
X1030649Y595925D01*
X1040046Y592504D01*
X1039787Y591794D02*
X1040046Y592504D01*
X1032057Y567910D02*
X1033943Y573090D01*
X1036756Y566200D02*
X1037014Y566911D01*
X1027359Y569620D02*
X1036756Y566200D01*
X1027359Y569620D02*
X1027617Y570331D01*
X1028986Y574089D02*
X1029244Y574800D01*
X1038641Y571380D01*
X1038383Y570669D02*
X1038641Y571380D01*
X1410286Y807479D02*
X1415714Y806522D01*
X1415838Y811577D02*
X1416582Y811446D01*
X1414846Y801597D02*
X1416582Y811446D01*
X1414101Y801729D02*
X1414846Y801597D01*
X1409418Y802555D02*
X1410162Y802423D01*
X1409418Y802555D02*
X1411154Y812403D01*
X1411899Y812271D01*
X1424730Y805999D02*
X1430159Y805042D01*
X1430282Y810097D02*
X1431027Y809966D01*
X1429290Y800118D02*
X1431027Y809966D01*
X1428546Y800249D02*
X1429290Y800118D01*
X1423862Y801075D02*
X1424607Y800943D01*
X1423862Y801075D02*
X1425599Y810923D01*
X1426343Y810791D01*
X1315228Y1094889D02*
X1318771Y1099111D01*
X1314455Y1101746D02*
X1314941Y1102325D01*
X1322602Y1095897D01*
X1322116Y1095318D02*
X1322602Y1095897D01*
X1319059Y1091675D02*
X1319545Y1092254D01*
X1311398Y1098103D02*
X1319059Y1091675D01*
X1311398Y1098103D02*
X1311884Y1098682D01*
X1438730Y804499D02*
X1444158Y803542D01*
X1444282Y808597D02*
X1445027Y808466D01*
X1443290Y798618D02*
X1445027Y808466D01*
X1442546Y798749D02*
X1443290Y798618D01*
X1437862Y799575D02*
X1438606Y799443D01*
X1437862Y799575D02*
X1439599Y809423D01*
X1440343Y809291D01*
X1326768Y1107534D02*
X1330311Y1111756D01*
X1325995Y1114391D02*
X1326481Y1114970D01*
X1334141Y1108542D01*
X1333655Y1107963D02*
X1334141Y1108542D01*
X1330598Y1104320D02*
X1331084Y1104899D01*
X1322938Y1110748D02*
X1330598Y1104320D01*
X1322938Y1110748D02*
X1323424Y1111327D01*
X1337768Y1120034D02*
X1341311Y1124256D01*
X1336995Y1126891D02*
X1337481Y1127470D01*
X1345141Y1121042D01*
X1344656Y1120463D02*
X1345141Y1121042D01*
X1341598Y1116820D02*
X1342084Y1117399D01*
X1333938Y1123248D02*
X1341598Y1116820D01*
X1333938Y1123248D02*
X1334424Y1123827D01*
X1221057Y1148410D02*
X1222943Y1153590D01*
X1217986Y1154589D02*
X1218244Y1155300D01*
X1227641Y1151880D01*
X1227382Y1151169D02*
X1227641Y1151880D01*
X1225756Y1146700D02*
X1226015Y1147410D01*
X1216359Y1150120D02*
X1225756Y1146700D01*
X1216359Y1150120D02*
X1216617Y1150831D01*
X1227462Y1165035D02*
X1229347Y1170214D01*
X1224390Y1171214D02*
X1224649Y1171924D01*
X1234046Y1168504D01*
X1233787Y1167794D02*
X1234046Y1168504D01*
X1232161Y1163325D02*
X1232419Y1164035D01*
X1222764Y1166745D02*
X1232161Y1163325D01*
X1222764Y1166745D02*
X1223022Y1167455D01*
X1233462Y1181035D02*
X1235347Y1186215D01*
X1230390Y1187214D02*
X1230649Y1187924D01*
X1240046Y1184504D01*
X1239787Y1183794D02*
X1240046Y1184504D01*
X1238161Y1179325D02*
X1238419Y1180035D01*
X1228764Y1182745D02*
X1238161Y1179325D01*
X1228764Y1182745D02*
X1229022Y1183455D01*
D14*
X812929Y966246D02*
X814980Y971883D01*
X817799Y970857D01*
X818396Y969576D01*
X817712Y967697D01*
X816431Y967099D01*
X813613Y968125D01*
X815491Y967441D02*
X816686Y964878D01*
X818565Y964195D02*
X820444Y963511D01*
X819505Y963853D01*
X821556Y969489D01*
X820275Y968892D01*
X824972Y967182D02*
X826253Y967780D01*
X828132Y967096D01*
X828729Y965814D01*
X828387Y964875D01*
X827106Y964278D01*
X827703Y962996D01*
X827362Y962057D01*
X826080Y961459D01*
X824201Y962143D01*
X823604Y963425D01*
X823946Y964364D01*
X825227Y964961D01*
X824630Y966243D01*
X824972Y967182D01*
X825227Y964961D02*
X827106Y964278D01*
X805100Y923198D02*
Y917200D01*
X808099D01*
X809099Y918200D01*
Y919199D01*
X808099Y920199D01*
X805100D01*
X808099D01*
X809099Y921199D01*
Y922198D01*
X808099Y923198D01*
X805100D01*
X811098D02*
X815097D01*
X813097D01*
Y917200D01*
X820095D02*
Y923198D01*
X817096Y920199D01*
X821095D01*
X1077003Y567499D02*
Y561501D01*
X1080002D01*
X1081001Y562501D01*
Y563500D01*
X1080002Y564500D01*
X1077003D01*
X1080002D01*
X1081001Y565500D01*
Y566499D01*
X1080002Y567499D01*
X1077003D01*
X1083001D02*
X1086999D01*
X1085000D01*
Y561501D01*
X1088999Y566499D02*
X1089998Y567499D01*
X1091998D01*
X1092997Y566499D01*
Y565500D01*
X1091998Y564500D01*
X1090998D01*
X1091998D01*
X1092997Y563500D01*
Y562501D01*
X1091998Y561501D01*
X1089998D01*
X1088999Y562501D01*
X1424003Y938499D02*
Y932501D01*
X1427002D01*
X1428001Y933501D01*
Y934500D01*
X1427002Y935500D01*
X1424003D01*
X1427002D01*
X1428001Y936500D01*
Y937499D01*
X1427002Y938499D01*
X1424003D01*
X1430001D02*
X1433999D01*
X1432000D01*
Y932501D01*
X1439997D02*
X1435999D01*
X1439997Y936500D01*
Y937499D01*
X1438998Y938499D01*
X1436998D01*
X1435999Y937499D01*
X1057002Y1182999D02*
Y1177001D01*
X1060001D01*
X1061001Y1178001D01*
Y1179000D01*
X1060001Y1180000D01*
X1057002D01*
X1060001D01*
X1061001Y1181000D01*
Y1181999D01*
X1060001Y1182999D01*
X1057002D01*
X1063000D02*
X1066999D01*
X1065000D01*
Y1177001D01*
X1068998D02*
X1070998D01*
X1069998D01*
Y1182999D01*
X1068998Y1181999D01*
X881383Y717316D02*
X885978Y721171D01*
X887906Y718874D01*
X887783Y717465D01*
X886251Y716180D01*
X884843Y716303D01*
X882915Y718601D01*
X884200Y717069D02*
X883954Y714253D01*
X885239Y712721D02*
X886524Y711189D01*
X885881Y711955D01*
X890476Y715811D01*
X889068Y715934D01*
X889217Y709535D02*
X889094Y708126D01*
X890379Y706595D01*
X891788Y706471D01*
X894851Y709042D01*
X894974Y710450D01*
X893689Y711982D01*
X892281Y712105D01*
X891515Y711462D01*
X891392Y710054D01*
X893319Y707757D01*
X890883Y683316D02*
X895478Y687171D01*
X897406Y684874D01*
X897283Y683465D01*
X895751Y682180D01*
X894343Y682303D01*
X892415Y684601D01*
X893700Y683069D02*
X893454Y680253D01*
X894739Y678721D02*
X896024Y677189D01*
X895381Y677955D01*
X899976Y681811D01*
X898568Y681934D01*
X902546Y678748D02*
X905117Y675684D01*
X904351Y675042D01*
X898717Y675535D01*
X897952Y674892D01*
X878883Y672816D02*
X883478Y676671D01*
X885406Y674374D01*
X885283Y672965D01*
X883751Y671680D01*
X882343Y671804D01*
X880415Y674101D01*
X881700Y672569D02*
X881454Y669753D01*
X882739Y668221D02*
X884024Y666689D01*
X883381Y667455D01*
X887976Y671311D01*
X886568Y671434D01*
X893117Y665184D02*
X890546Y668248D01*
X888249Y666320D01*
X890300Y665431D01*
X890943Y664665D01*
X890819Y663257D01*
X889288Y661971D01*
X887879Y662095D01*
X886594Y663626D01*
X886717Y665035D01*
X1329978Y675329D02*
X1325383Y679184D01*
X1327311Y681482D01*
X1328719Y681605D01*
X1330251Y680320D01*
X1330374Y678911D01*
X1328446Y676614D01*
X1329732Y678146D02*
X1332548Y678392D01*
X1333834Y679924D02*
X1335119Y681455D01*
X1334476Y680689D01*
X1329881Y684545D01*
X1330005Y683137D01*
X1333217Y686965D02*
X1333094Y688374D01*
X1334379Y689905D01*
X1335788Y690029D01*
X1336553Y689386D01*
X1336677Y687978D01*
X1336034Y687212D01*
X1336677Y687978D01*
X1338085Y688101D01*
X1338851Y687458D01*
X1338974Y686050D01*
X1337689Y684518D01*
X1336281Y684395D01*
X1352121Y677095D02*
X1347526Y680950D01*
X1349454Y683248D01*
X1350862Y683371D01*
X1352394Y682086D01*
X1352517Y680677D01*
X1350589Y678380D01*
X1351874Y679911D02*
X1354691Y680158D01*
X1355976Y681689D02*
X1357261Y683221D01*
X1356619Y682455D01*
X1352024Y686311D01*
X1352147Y684902D01*
X1359189Y685518D02*
X1360474Y687050D01*
X1359832Y686284D01*
X1355237Y690140D01*
X1355360Y688731D01*
X1350585Y653743D02*
X1345990Y657599D01*
X1347917Y659896D01*
X1349326Y660019D01*
X1350857Y658734D01*
X1350981Y657326D01*
X1349053Y655028D01*
X1350338Y656560D02*
X1353155Y656807D01*
X1353674Y658981D02*
X1355083Y659104D01*
X1356368Y660636D01*
X1356244Y662044D01*
X1353181Y664614D01*
X1351773Y664491D01*
X1350488Y662959D01*
X1350611Y661551D01*
X1351377Y660908D01*
X1352785Y661032D01*
X1354713Y663329D01*
X826141Y792557D02*
X828192Y786921D01*
X831950Y788288D01*
X835535Y795976D02*
X831777Y794609D01*
X833829Y788972D01*
X837586Y790340D01*
X832803Y791790D02*
X834682Y792474D01*
X837414Y796660D02*
X839465Y791024D01*
X842283Y792050D01*
X842881Y793331D01*
X841513Y797088D01*
X840232Y797686D01*
X837414Y796660D01*
X846808Y800079D02*
X845271Y798456D01*
X844076Y795893D01*
X844759Y794015D01*
X846041Y793417D01*
X847920Y794101D01*
X848517Y795382D01*
X848175Y796322D01*
X846894Y796919D01*
X844076Y795893D01*
X1246977Y603099D02*
X1249976Y597904D01*
X1253439Y599904D01*
X1255635Y608097D02*
X1252172Y606098D01*
X1255171Y600904D01*
X1258634Y602903D01*
X1253671Y603501D02*
X1255403Y604500D01*
X1257366Y609097D02*
X1260365Y603903D01*
X1262963Y605402D01*
X1263328Y606768D01*
X1261329Y610231D01*
X1259964Y610597D01*
X1257366Y609097D01*
X1268157Y608401D02*
X1265158Y613596D01*
X1264060Y609499D01*
X1267523Y611498D01*
X1172501Y1183999D02*
X1171501Y1184999D01*
X1169502D01*
X1168502Y1183999D01*
Y1183000D01*
X1169502Y1182000D01*
X1171501D01*
X1172501Y1181000D01*
Y1180001D01*
X1171501Y1179001D01*
X1169502D01*
X1168502Y1180001D01*
X1174500Y1184999D02*
Y1179001D01*
X1176500Y1181000D01*
X1178499Y1179001D01*
Y1184999D01*
X1180498Y1179001D02*
X1182498D01*
X1181498D01*
Y1184999D01*
X1180498Y1183999D01*
X984641Y1172057D02*
X986692Y1166421D01*
X990450Y1167789D01*
X994035Y1175476D02*
X990277Y1174109D01*
X992329Y1168472D01*
X996086Y1169840D01*
X991303Y1171290D02*
X993182Y1171974D01*
X995914Y1176160D02*
X997965Y1170524D01*
X1000783Y1171550D01*
X1001381Y1172831D01*
X1000013Y1176588D01*
X998732Y1177186D01*
X995914Y1176160D01*
X1001892Y1177272D02*
X1002489Y1178553D01*
X1004368Y1179237D01*
X1005649Y1178640D01*
X1005991Y1177700D01*
X1005394Y1176419D01*
X1006675Y1175822D01*
X1007017Y1174882D01*
X1006420Y1173601D01*
X1004541Y1172917D01*
X1003259Y1173515D01*
X1002918Y1174454D01*
X1003515Y1175735D01*
X1002234Y1176333D01*
X1001892Y1177272D01*
X1003515Y1175735D02*
X1005394Y1176419D01*
X862634Y1065504D02*
X867229Y1061648D01*
X869799Y1064712D01*
X869060Y1073162D02*
X866490Y1070099D01*
X871084Y1066243D01*
X873655Y1069306D01*
X868787Y1068171D02*
X870072Y1069703D01*
X870345Y1074693D02*
X874940Y1070838D01*
X876868Y1073135D01*
X876744Y1074544D01*
X873681Y1077114D01*
X872273Y1076991D01*
X870345Y1074693D01*
X874201Y1079288D02*
X876771Y1082351D01*
X877537Y1081709D01*
X878030Y1076075D01*
X878795Y1075433D01*
X933976Y628595D02*
X930977Y623401D01*
X934440Y621402D01*
X942634Y623597D02*
X939171Y625596D01*
X936172Y620402D01*
X939635Y618403D01*
X937671Y622999D02*
X939403Y622000D01*
X944365Y622597D02*
X941366Y617403D01*
X943964Y615903D01*
X945329Y616269D01*
X947328Y619732D01*
X946963Y621098D01*
X944365Y622597D01*
X953023Y617599D02*
X949560Y619598D01*
X948060Y617001D01*
X950292Y616867D01*
X951157Y616367D01*
X951523Y615002D01*
X950523Y613270D01*
X949158Y612904D01*
X947427Y613904D01*
X947060Y615270D01*
X1369976Y709095D02*
X1366977Y703901D01*
X1370440Y701902D01*
X1378634Y704097D02*
X1375171Y706096D01*
X1372172Y700902D01*
X1375635Y698903D01*
X1373671Y703499D02*
X1375403Y702499D01*
X1380365Y703097D02*
X1377366Y697903D01*
X1379963Y696403D01*
X1381329Y696769D01*
X1383328Y700232D01*
X1382963Y701598D01*
X1380365Y703097D01*
X1385060Y699233D02*
X1386425Y699599D01*
X1388157Y698599D01*
X1388523Y697233D01*
X1388023Y696368D01*
X1386658Y696002D01*
X1385792Y696501D01*
X1386658Y696002D01*
X1387023Y694636D01*
X1386524Y693770D01*
X1385158Y693404D01*
X1383426Y694404D01*
X1383060Y695770D01*
X1401649Y998729D02*
X1405504Y994134D01*
X1408567Y996705D01*
X1409307Y1005155D02*
X1406243Y1002584D01*
X1410099Y997990D01*
X1413162Y1000560D01*
X1408171Y1000287D02*
X1409703Y1001572D01*
X1410838Y1006440D02*
X1414694Y1001845D01*
X1416991Y1003773D01*
X1417114Y1005181D01*
X1414544Y1008245D01*
X1413135Y1008368D01*
X1410838Y1006440D01*
X1422351Y1008271D02*
X1419288Y1005701D01*
X1419781Y1011334D01*
X1419139Y1012100D01*
X1417730Y1012223D01*
X1416199Y1010938D01*
X1416075Y1009530D01*
X1278842Y1164596D02*
X1275843Y1159401D01*
X1279306Y1157402D01*
X1287500Y1159597D02*
X1284037Y1161597D01*
X1281038Y1156402D01*
X1284501Y1154403D01*
X1282537Y1158999D02*
X1284268Y1158000D01*
X1289231Y1158598D02*
X1286232Y1153403D01*
X1288829Y1151904D01*
X1290195Y1152269D01*
X1292194Y1155733D01*
X1291828Y1157098D01*
X1289231Y1158598D01*
X1291426Y1150404D02*
X1293158Y1149404D01*
X1292292Y1149904D01*
X1295291Y1155099D01*
X1293926Y1154733D01*
X934466Y1087724D02*
X930224Y1091966D01*
X932345Y1094086D01*
X933759D01*
X935172Y1092673D01*
Y1091259D01*
X933052Y1089138D01*
X934466Y1090552D02*
X937293D01*
X941534Y1094793D02*
X938707Y1091966D01*
Y1097621D01*
X938000Y1098328D01*
X936586D01*
X935172Y1096914D01*
Y1095500D01*
X945069Y1098328D02*
X940827Y1102569D01*
Y1098328D01*
X943655Y1101155D01*
X925466Y1099224D02*
X921224Y1103466D01*
X923345Y1105586D01*
X924759D01*
X926173Y1104173D01*
Y1102759D01*
X924052Y1100638D01*
X925466Y1102052D02*
X928293D01*
X932534Y1106293D02*
X929707Y1103466D01*
Y1109121D01*
X929000Y1109828D01*
X927586D01*
X926173Y1108414D01*
Y1107000D01*
X930414Y1111241D02*
Y1112655D01*
X931828Y1114069D01*
X933241D01*
X933948Y1113362D01*
Y1111948D01*
X933241Y1111241D01*
X933948Y1111948D01*
X935362D01*
X936069Y1111241D01*
Y1109828D01*
X934655Y1108414D01*
X933241D01*
X916966Y1108724D02*
X912724Y1112966D01*
X914845Y1115086D01*
X916259D01*
X917673Y1113673D01*
Y1112259D01*
X915552Y1110138D01*
X916966Y1111552D02*
X919793D01*
X924034Y1115793D02*
X921207Y1112966D01*
Y1118621D01*
X920500Y1119328D01*
X919086D01*
X917673Y1117914D01*
Y1116500D01*
X928276Y1120034D02*
X925448Y1117207D01*
Y1122862D01*
X924741Y1123569D01*
X923328D01*
X921914Y1122155D01*
Y1120741D01*
X856425Y944899D02*
X850788Y946950D01*
X851814Y949768D01*
X853096Y950366D01*
X854974Y949682D01*
X855572Y948400D01*
X854546Y945582D01*
X855230Y947461D02*
X857792Y948656D01*
X859844Y954292D02*
X858476Y950535D01*
X856086Y955660D01*
X855147Y956002D01*
X853866Y955404D01*
X853182Y953526D01*
X853779Y952244D01*
X860528Y956171D02*
X861211Y958050D01*
X860870Y957111D01*
X855233Y959162D01*
X855831Y957881D01*
X829834Y960322D02*
X831886Y965958D01*
X834704Y964932D01*
X835301Y963651D01*
X834618Y961772D01*
X833336Y961175D01*
X830518Y962201D01*
X832397Y961517D02*
X833592Y958954D01*
X839228Y956903D02*
X835471Y958270D01*
X840596Y960660D01*
X840938Y961600D01*
X840340Y962881D01*
X838462Y963565D01*
X837180Y962967D01*
X842817Y960916D02*
X844098Y961513D01*
X845977Y960830D01*
X846574Y959548D01*
X845207Y955791D01*
X843925Y955193D01*
X842047Y955877D01*
X841449Y957158D01*
X842817Y960916D01*
X1015929Y609246D02*
X1017980Y614883D01*
X1020798Y613857D01*
X1021396Y612575D01*
X1020712Y610697D01*
X1019431Y610099D01*
X1016613Y611125D01*
X1018491Y610441D02*
X1019686Y607878D01*
X1021565Y607195D02*
X1023444Y606511D01*
X1022505Y606853D01*
X1024556Y612489D01*
X1023275Y611892D01*
X1032071Y609754D02*
X1029850Y609498D01*
X1027288Y608303D01*
X1026604Y606425D01*
X1027201Y605143D01*
X1029080Y604459D01*
X1030362Y605057D01*
X1030704Y605996D01*
X1030106Y607278D01*
X1027288Y608303D01*
X1041929Y585246D02*
X1043980Y590882D01*
X1046799Y589857D01*
X1047396Y588576D01*
X1046712Y586697D01*
X1045431Y586099D01*
X1042613Y587125D01*
X1044491Y586441D02*
X1045686Y583879D01*
X1047565Y583195D02*
X1049444Y582511D01*
X1048505Y582853D01*
X1050556Y588489D01*
X1049275Y587892D01*
X1055080Y580459D02*
X1057132Y586096D01*
X1053288Y584303D01*
X1057045Y582936D01*
X1006929Y576746D02*
X1008980Y582382D01*
X1011798Y581357D01*
X1012396Y580076D01*
X1011712Y578197D01*
X1010431Y577599D01*
X1007613Y578625D01*
X1009492Y577941D02*
X1010686Y575379D01*
X1012565Y574695D02*
X1014444Y574011D01*
X1013505Y574353D01*
X1015556Y579989D01*
X1014275Y579392D01*
X1021020Y571618D02*
X1017262Y572985D01*
X1022387Y575375D01*
X1022729Y576314D01*
X1022132Y577596D01*
X1020253Y578280D01*
X1018972Y577682D01*
X1415349Y838404D02*
X1421255Y837363D01*
X1420735Y834409D01*
X1419576Y833599D01*
X1417608Y833946D01*
X1416797Y835104D01*
X1417317Y838057D01*
X1416970Y836088D02*
X1414654Y834466D01*
X1414307Y832498D02*
X1413960Y830529D01*
X1414133Y831513D01*
X1420040Y830472D01*
X1419229Y831629D01*
X1418361Y826707D02*
X1419172Y825549D01*
X1418825Y823580D01*
X1417667Y822769D01*
X1413729Y823464D01*
X1412918Y824622D01*
X1413265Y826591D01*
X1414423Y827402D01*
X1418361Y826707D01*
X1427915Y823443D02*
X1433821Y822402D01*
X1433301Y819448D01*
X1432143Y818637D01*
X1430174Y818985D01*
X1429363Y820143D01*
X1429883Y823096D01*
X1429536Y821127D02*
X1427220Y819505D01*
X1431795Y816668D02*
X1432606Y815510D01*
X1432259Y813541D01*
X1431101Y812730D01*
X1430116Y812904D01*
X1429306Y814062D01*
X1428148Y813251D01*
X1427163Y813425D01*
X1426352Y814583D01*
X1426699Y816552D01*
X1427857Y817363D01*
X1428842Y817189D01*
X1429653Y816031D01*
X1430811Y816842D01*
X1431795Y816668D01*
X1429653Y816031D02*
X1429306Y814062D01*
X1302243Y1105916D02*
X1306099Y1110510D01*
X1308396Y1108582D01*
X1308519Y1107174D01*
X1307234Y1105643D01*
X1305826Y1105519D01*
X1303528Y1107447D01*
X1305060Y1106162D02*
X1305307Y1103345D01*
X1310693Y1106655D02*
X1313757Y1104084D01*
X1313114Y1103319D01*
X1307481Y1102826D01*
X1306838Y1102060D01*
X1442914Y822443D02*
X1448821Y821402D01*
X1448301Y818448D01*
X1447143Y817637D01*
X1445174Y817984D01*
X1444363Y819143D01*
X1444884Y822096D01*
X1444536Y820127D02*
X1442220Y818505D01*
X1447085Y811557D02*
X1446448Y813699D01*
X1444826Y816016D01*
X1442857Y816363D01*
X1441699Y815552D01*
X1441352Y813583D01*
X1442163Y812425D01*
X1443147Y812251D01*
X1444306Y813062D01*
X1444826Y816016D01*
X1312743Y1118915D02*
X1316599Y1123510D01*
X1318896Y1121583D01*
X1319019Y1120174D01*
X1317734Y1118643D01*
X1316326Y1118519D01*
X1314028Y1120447D01*
X1315560Y1119162D02*
X1315806Y1116345D01*
X1324257Y1117085D02*
X1321194Y1119655D01*
X1319266Y1117357D01*
X1321440Y1116838D01*
X1322206Y1116195D01*
X1322329Y1114787D01*
X1321044Y1113256D01*
X1319635Y1113132D01*
X1318104Y1114417D01*
X1317981Y1115826D01*
X1323743Y1130416D02*
X1327599Y1135010D01*
X1329896Y1133083D01*
X1330019Y1131674D01*
X1328734Y1130143D01*
X1327326Y1130019D01*
X1325028Y1131947D01*
X1326560Y1130662D02*
X1326807Y1127845D01*
X1330635Y1124632D02*
X1334491Y1129227D01*
X1330266Y1128857D01*
X1333329Y1126287D01*
X1229777Y1149891D02*
X1231829Y1155528D01*
X1234647Y1154502D01*
X1235244Y1153221D01*
X1234561Y1151342D01*
X1233279Y1150744D01*
X1230461Y1151770D01*
X1232340Y1151086D02*
X1233535Y1148524D01*
X1237123Y1152537D02*
X1238404Y1153134D01*
X1240283Y1152450D01*
X1240881Y1151169D01*
X1240539Y1150230D01*
X1239258Y1149632D01*
X1238318Y1149974D01*
X1239258Y1149632D01*
X1239855Y1148351D01*
X1239513Y1147412D01*
X1238232Y1146814D01*
X1236353Y1147498D01*
X1235756Y1148779D01*
X1228777Y1172891D02*
X1230829Y1178528D01*
X1233647Y1177502D01*
X1234244Y1176221D01*
X1233561Y1174342D01*
X1232279Y1173744D01*
X1229461Y1174770D01*
X1231340Y1174086D02*
X1232535Y1171524D01*
X1238171Y1169472D02*
X1234414Y1170840D01*
X1239539Y1173230D01*
X1239881Y1174169D01*
X1239283Y1175451D01*
X1237405Y1176134D01*
X1236123Y1175537D01*
X1218217Y1186549D02*
X1220268Y1192186D01*
X1223086Y1191160D01*
X1223684Y1189879D01*
X1223000Y1188000D01*
X1221719Y1187403D01*
X1218900Y1188428D01*
X1220779Y1187744D02*
X1221974Y1185182D01*
X1223853Y1184498D02*
X1225732Y1183814D01*
X1224792Y1184156D01*
X1226844Y1189792D01*
X1225563Y1189195D01*
M02*
