M48
;Layer_Color=9474304
;FILE_FORMAT=2:4
INCH,TZ
;TYPE=PLATED
T1F00S00C0.0197
T2F00S00C0.0280
T3F00S00C0.0354
T4F00S00C0.1260
%
T01
X125000Y60000
X126000
X126500Y61000
X125500
X126000Y62000
X126500Y59000
X127500
X128000Y60000
X129000
X129500Y61000
X130500
X131000Y62000
X121500Y59000
Y57000
X122500
X120500
X119500
X119000Y56000
X109000
X108000
X107000
X106000
Y58000
X104000
X104500Y59000
Y57000
X102500
X101000Y58000
X100000
X100500Y59000
X99500
X98500
X97500
X98000Y60000
X99000
X98500Y61000
X97500
X96500
X95500
X94500
X94000Y62000
X96000Y60000
X97000
X101500Y61000
X108500Y57000
X93000Y62000
X92500Y63000
X93000Y64000
X92000
X91000
X91500Y65000
X90500
X89500
X89000Y66000
X89500Y67000
X88500
X89000Y68000
X90000
X91000
X90500Y69000
X89500
Y71000
X88000Y72000
X87500Y73000
Y75000
X87000Y76000
X86000Y78000
X84500Y77000
X82000Y78000
X86500Y69000
X87000Y68000
X93000Y66000
X94000
X95500Y65000
X97000Y64000
X127500Y63000
X130000Y64000
X130500Y65000
X131500
X132000Y66000
X132500Y67000
X135000Y68000
X136000
X138000
X138500Y69000
X137500
X138000Y70000
X139000
X140000
X140500Y71000
X137500
X136500
X137000Y72000
Y70000
X136000
X134500Y69000
X137500Y67000
X137000Y66000
X135000Y64000
X141000Y72000
X141500Y73000
X142000Y74000
X142500Y75000
X143000Y76000
X143500Y77000
X143000Y78000
X141000
X141500Y77000
Y79000
X141000Y80000
X142000Y82000
X143000
X144000
X144500Y83000
X143500
X142500
X141500
X143000Y84000
X143500Y93000
X142500
X85000Y92000
X84000
X83500Y93000
X82500
X81500
X82000Y92000
X81000
X81500Y89000
X81000Y88000
Y86000
X81500Y85000
X83500
X84500
Y87000
Y89000
X83500
X84000Y82000
X84500Y81000
X83500
X84000Y80000
X85000
X86000
X84500Y79000
X83500
X81500
X82000Y80000
X81500Y81000
X82000Y82000
X81000
Y94000
X81500Y95000
X82000Y96000
X83000
X84000
X84500Y97000
X85000Y98000
Y100000
X87000
X86500Y101000
X87000Y102000
X88500Y103000
X89000Y104000
X90000
X89500Y105000
X90000Y106000
X90500Y107000
X89500
X88500
X87500
X86500
X87000Y106000
X86000
X85500Y105000
X85000Y104000
X84500Y103000
X86500Y99000
X82500
X83000Y98000
X82500Y97000
X81500
X85500Y95000
X88000Y108000
X89000
X90000
X90500Y109000
X89500
X88500
X92000Y108000
X93500Y109000
X133500
Y107000
X137000Y108000
X138000
X138500Y107000
X139000Y106000
X140500Y105000
X140000Y104000
X140500Y103000
X140000Y100000
X139000
X139500Y99000
X140500
X138000Y104000
X137500Y105000
Y109000
X141000Y104000
X141500Y103000
X142000Y102000
X142500Y101000
X141500
X142000Y100000
X143000
X142500Y99000
X141500
X141000Y100000
X143000Y98000
X143500Y97000
X144000Y96000
X143000
X143500Y95000
X144500
X144000Y94000
X143000
X142500Y95000
X133000Y110000
X131000
X130500Y111000
X130000Y112000
X129000
X128500Y111000
X127000Y112000
X127500Y113000
X131500
X132500
X133500
X132000Y114000
X131000
X130500Y115000
X132000Y112000
X125500Y115000
X125000Y116000
X124000
X123000
X123500Y115000
X124500
X121500Y117000
X120500
X120000Y116000
X118500Y117000
X117500
Y119000
X118000Y120000
X117000
X113000
X112000
X111000
X113500Y119000
Y117000
X113000Y116000
X112000
X111000
X110000
X120500Y119000
X121500
X122500
X122000Y118000
X106000
X105000
X104000
X103000
X102000
X101000
X101500Y117000
X100500
X99500
X98500
X97000Y116000
X95500Y115000
X95000Y114000
X94000
Y112000
Y110000
X95500Y111000
X98000Y112000
X97500Y113000
X99500
X100500
X102000Y114000
X103000
X102500Y115000
X101500
X102000Y116000
X101000
X104500Y117000
X106500
X107000Y116000
X106000
X105500Y115000
X104500
Y119000
X105500
X106500
X103500
X93500Y111000
X91500
X91000Y112000
X90000Y110000
X89000
T02
X106200Y56800
X105400Y59500
X92600Y65200
X135450Y69900
X141322Y81778
X84800Y93200
X92000Y106750
X131000Y111450
X120850Y115750
T03
X118944Y116409
X119759Y119451
T04
X110700Y56669
X110700Y59031
X117700Y59031
Y56669
X141819Y84800
X144181
X144181Y91800
X141819
X83881Y90400
X81519
X81519Y83400
X83881
X115300Y116969
Y119331
X108300Y119331
X108300Y116969
M30
