G04*
G04 #@! TF.GenerationSoftware,Altium Limited,Altium Designer,22.9.1 (49)*
G04*
G04 Layer_Physical_Order=1*
G04 Layer_Color=255*
%FSLAX25Y25*%
%MOIN*%
G70*
G04*
G04 #@! TF.SameCoordinates,8A5C06B3-4C5D-48ED-891A-8E98A4BE319D*
G04*
G04*
G04 #@! TF.FilePolarity,Positive*
G04*
G01*
G75*
%ADD14C,0.01000*%
G04:AMPARAMS|DCode=15|XSize=110.24mil|YSize=39.37mil|CornerRadius=0mil|HoleSize=0mil|Usage=FLASHONLY|Rotation=330.000|XOffset=0mil|YOffset=0mil|HoleType=Round|Shape=Rectangle|*
%AMROTATEDRECTD15*
4,1,4,-0.05758,0.01051,-0.03789,0.04461,0.05758,-0.01051,0.03789,-0.04461,-0.05758,0.01051,0.0*
%
%ADD15ROTATEDRECTD15*%

G04:AMPARAMS|DCode=16|XSize=110.24mil|YSize=39.37mil|CornerRadius=0mil|HoleSize=0mil|Usage=FLASHONLY|Rotation=25.000|XOffset=0mil|YOffset=0mil|HoleType=Round|Shape=Rectangle|*
%AMROTATEDRECTD16*
4,1,4,-0.04164,-0.04114,-0.05827,-0.00545,0.04164,0.04114,0.05827,0.00545,-0.04164,-0.04114,0.0*
%
%ADD16ROTATEDRECTD16*%

%ADD17R,0.27559X0.27559*%
G04:AMPARAMS|DCode=18|XSize=110.24mil|YSize=39.37mil|CornerRadius=0mil|HoleSize=0mil|Usage=FLASHONLY|Rotation=210.000|XOffset=0mil|YOffset=0mil|HoleType=Round|Shape=Rectangle|*
%AMROTATEDRECTD18*
4,1,4,0.03789,0.04461,0.05758,0.01051,-0.03789,-0.04461,-0.05758,-0.01051,0.03789,0.04461,0.0*
%
%ADD18ROTATEDRECTD18*%

G04:AMPARAMS|DCode=19|XSize=110.24mil|YSize=39.37mil|CornerRadius=0mil|HoleSize=0mil|Usage=FLASHONLY|Rotation=240.000|XOffset=0mil|YOffset=0mil|HoleType=Round|Shape=Rectangle|*
%AMROTATEDRECTD19*
4,1,4,0.01051,0.05758,0.04461,0.03789,-0.01051,-0.05758,-0.04461,-0.03789,0.01051,0.05758,0.0*
%
%ADD19ROTATEDRECTD19*%

G04:AMPARAMS|DCode=20|XSize=47.24mil|YSize=62.99mil|CornerRadius=0mil|HoleSize=0mil|Usage=FLASHONLY|Rotation=75.000|XOffset=0mil|YOffset=0mil|HoleType=Round|Shape=Rectangle|*
%AMROTATEDRECTD20*
4,1,4,0.02431,-0.03097,-0.03654,-0.01467,-0.02431,0.03097,0.03654,0.01467,0.02431,-0.03097,0.0*
%
%ADD20ROTATEDRECTD20*%

%ADD21R,0.27559X0.27559*%
G04:AMPARAMS|DCode=22|XSize=110.24mil|YSize=39.37mil|CornerRadius=0mil|HoleSize=0mil|Usage=FLASHONLY|Rotation=310.000|XOffset=0mil|YOffset=0mil|HoleType=Round|Shape=Rectangle|*
%AMROTATEDRECTD22*
4,1,4,-0.05051,0.02957,-0.02035,0.05488,0.05051,-0.02957,0.02035,-0.05488,-0.05051,0.02957,0.0*
%
%ADD22ROTATEDRECTD22*%

G04:AMPARAMS|DCode=23|XSize=110.24mil|YSize=39.37mil|CornerRadius=0mil|HoleSize=0mil|Usage=FLASHONLY|Rotation=55.000|XOffset=0mil|YOffset=0mil|HoleType=Round|Shape=Rectangle|*
%AMROTATEDRECTD23*
4,1,4,-0.01549,-0.05644,-0.04774,-0.03386,0.01549,0.05644,0.04774,0.03386,-0.01549,-0.05644,0.0*
%
%ADD23ROTATEDRECTD23*%

G04:AMPARAMS|DCode=24|XSize=110.24mil|YSize=39.37mil|CornerRadius=0mil|HoleSize=0mil|Usage=FLASHONLY|Rotation=110.000|XOffset=0mil|YOffset=0mil|HoleType=Round|Shape=Rectangle|*
%AMROTATEDRECTD24*
4,1,4,0.03735,-0.04506,0.00035,-0.05853,-0.03735,0.04506,-0.00035,0.05853,0.03735,-0.04506,0.0*
%
%ADD24ROTATEDRECTD24*%

G04:AMPARAMS|DCode=25|XSize=37.4mil|YSize=33.47mil|CornerRadius=0mil|HoleSize=0mil|Usage=FLASHONLY|Rotation=320.000|XOffset=0mil|YOffset=0mil|HoleType=Round|Shape=Rectangle|*
%AMROTATEDRECTD25*
4,1,4,-0.02508,-0.00080,-0.00357,0.02484,0.02508,0.00080,0.00357,-0.02484,-0.02508,-0.00080,0.0*
%
%ADD25ROTATEDRECTD25*%

G04:AMPARAMS|DCode=26|XSize=37.4mil|YSize=33.47mil|CornerRadius=0mil|HoleSize=0mil|Usage=FLASHONLY|Rotation=220.000|XOffset=0mil|YOffset=0mil|HoleType=Round|Shape=Rectangle|*
%AMROTATEDRECTD26*
4,1,4,0.00357,0.02484,0.02508,-0.00080,-0.00357,-0.02484,-0.02508,0.00080,0.00357,0.02484,0.0*
%
%ADD26ROTATEDRECTD26*%

G04:AMPARAMS|DCode=27|XSize=37.4mil|YSize=33.47mil|CornerRadius=0mil|HoleSize=0mil|Usage=FLASHONLY|Rotation=160.000|XOffset=0mil|YOffset=0mil|HoleType=Round|Shape=Rectangle|*
%AMROTATEDRECTD27*
4,1,4,0.02330,0.00933,0.01185,-0.02212,-0.02330,-0.00933,-0.01185,0.02212,0.02330,0.00933,0.0*
%
%ADD27ROTATEDRECTD27*%

G04:AMPARAMS|DCode=28|XSize=37.4mil|YSize=33.47mil|CornerRadius=0mil|HoleSize=0mil|Usage=FLASHONLY|Rotation=135.000|XOffset=0mil|YOffset=0mil|HoleType=Round|Shape=Rectangle|*
%AMROTATEDRECTD28*
4,1,4,0.02506,-0.00139,0.00139,-0.02506,-0.02506,0.00139,-0.00139,0.02506,0.02506,-0.00139,0.0*
%
%ADD28ROTATEDRECTD28*%

G04:AMPARAMS|DCode=29|XSize=37.4mil|YSize=33.47mil|CornerRadius=0mil|HoleSize=0mil|Usage=FLASHONLY|Rotation=250.000|XOffset=0mil|YOffset=0mil|HoleType=Round|Shape=Rectangle|*
%AMROTATEDRECTD29*
4,1,4,-0.00933,0.02330,0.02212,0.01185,0.00933,-0.02330,-0.02212,-0.01185,-0.00933,0.02330,0.0*
%
%ADD29ROTATEDRECTD29*%

G04:AMPARAMS|DCode=30|XSize=37.4mil|YSize=33.47mil|CornerRadius=0mil|HoleSize=0mil|Usage=FLASHONLY|Rotation=350.000|XOffset=0mil|YOffset=0mil|HoleType=Round|Shape=Rectangle|*
%AMROTATEDRECTD30*
4,1,4,-0.02132,-0.01323,-0.01551,0.01973,0.02132,0.01323,0.01551,-0.01973,-0.02132,-0.01323,0.0*
%
%ADD30ROTATEDRECTD30*%

G04:AMPARAMS|DCode=31|XSize=37.4mil|YSize=33.47mil|CornerRadius=0mil|HoleSize=0mil|Usage=FLASHONLY|Rotation=50.000|XOffset=0mil|YOffset=0mil|HoleType=Round|Shape=Rectangle|*
%AMROTATEDRECTD31*
4,1,4,0.00080,-0.02508,-0.02484,-0.00357,-0.00080,0.02508,0.02484,0.00357,0.00080,-0.02508,0.0*
%
%ADD31ROTATEDRECTD31*%

%ADD51C,0.19685*%
%ADD52C,0.03937*%
%ADD53C,0.05000*%
%ADD54C,0.03543*%
G36*
X1077423Y1202639D02*
X1077317Y1202584D01*
X1075937Y1201581D01*
X1074730Y1200374D01*
X1073727Y1198994D01*
X1072952Y1197473D01*
X1072425Y1195850D01*
X1072157Y1194164D01*
Y1192458D01*
X1072425Y1190772D01*
X1072952Y1189149D01*
X1073727Y1187628D01*
X1074730Y1186248D01*
X1075937Y1185041D01*
X1077317Y1184038D01*
X1078838Y1183263D01*
X1080461Y1182736D01*
X1081471Y1182576D01*
Y1180424D01*
X1080461Y1180264D01*
X1078838Y1179737D01*
X1077317Y1178962D01*
X1075937Y1177959D01*
X1074730Y1176752D01*
X1073727Y1175372D01*
X1072952Y1173851D01*
X1072425Y1172228D01*
X1072157Y1170542D01*
Y1168836D01*
X1072425Y1167150D01*
X1072952Y1165527D01*
X1073727Y1164006D01*
X1074730Y1162626D01*
X1075937Y1161419D01*
X1077317Y1160416D01*
X1078838Y1159641D01*
X1080461Y1159114D01*
X1082147Y1158846D01*
X1083853D01*
X1085539Y1159114D01*
X1087162Y1159641D01*
X1088683Y1160416D01*
X1090063Y1161419D01*
X1091270Y1162626D01*
X1092273Y1164006D01*
X1093048Y1165527D01*
X1093575Y1167150D01*
X1093843Y1168836D01*
Y1170542D01*
X1093575Y1172228D01*
X1093048Y1173851D01*
X1092273Y1175372D01*
X1091270Y1176752D01*
X1090063Y1177959D01*
X1088683Y1178962D01*
X1087162Y1179737D01*
X1085539Y1180264D01*
X1084529Y1180424D01*
Y1182576D01*
X1085539Y1182736D01*
X1087162Y1183263D01*
X1088683Y1184038D01*
X1090063Y1185041D01*
X1091270Y1186248D01*
X1092273Y1187628D01*
X1093048Y1189149D01*
X1093575Y1190772D01*
X1093843Y1192458D01*
Y1194164D01*
X1093575Y1195850D01*
X1093048Y1197473D01*
X1092757Y1198044D01*
X1093018Y1198471D01*
X1100500D01*
X1101085Y1198587D01*
X1101581Y1198919D01*
X1105634Y1202971D01*
X1131367D01*
X1140576Y1193761D01*
X1141072Y1193430D01*
X1141658Y1193313D01*
X1142157D01*
Y1192458D01*
X1142424Y1190772D01*
X1142952Y1189149D01*
X1143727Y1187628D01*
X1144730Y1186248D01*
X1145937Y1185041D01*
X1147317Y1184038D01*
X1148838Y1183263D01*
X1150461Y1182736D01*
X1151471Y1182576D01*
Y1180424D01*
X1150461Y1180264D01*
X1148838Y1179737D01*
X1147317Y1178962D01*
X1145937Y1177959D01*
X1144730Y1176752D01*
X1143727Y1175372D01*
X1142952Y1173851D01*
X1142424Y1172228D01*
X1142157Y1170542D01*
Y1168836D01*
X1142424Y1167150D01*
X1142952Y1165527D01*
X1143727Y1164006D01*
X1144730Y1162626D01*
X1145937Y1161419D01*
X1147317Y1160416D01*
X1148075Y1160029D01*
X1147955Y1159529D01*
X1139633D01*
X1132809Y1166354D01*
Y1168221D01*
X1132780Y1168368D01*
Y1196280D01*
X1103220D01*
Y1166720D01*
X1129750D01*
Y1165720D01*
X1129867Y1165135D01*
X1130198Y1164639D01*
X1137919Y1156919D01*
X1138415Y1156587D01*
X1139000Y1156471D01*
X1167867D01*
X1169236Y1155101D01*
X1169733Y1154769D01*
X1170318Y1154653D01*
X1179628D01*
X1217457Y1144997D01*
X1278461Y1118853D01*
X1278533Y1118804D01*
X1278918Y1118419D01*
X1279415Y1118087D01*
X1280000Y1117971D01*
X1284367D01*
X1326384Y1075953D01*
X1326880Y1075621D01*
X1327466Y1075505D01*
X1335332D01*
X1350971Y1059867D01*
Y1044040D01*
X1351087Y1043455D01*
X1351419Y1042959D01*
X1381260Y1013117D01*
Y992669D01*
X1381377Y992084D01*
X1381708Y991588D01*
X1418160Y955137D01*
Y928843D01*
X1417336D01*
X1415650Y928576D01*
X1414027Y928048D01*
X1412506Y927273D01*
X1411126Y926270D01*
X1409919Y925063D01*
X1408916Y923683D01*
X1408141Y922162D01*
X1407613Y920539D01*
X1407347Y918853D01*
Y917147D01*
X1407613Y915461D01*
X1408141Y913838D01*
X1408916Y912317D01*
X1409919Y910937D01*
X1411126Y909730D01*
X1412506Y908727D01*
X1414027Y907952D01*
X1415650Y907425D01*
X1417336Y907158D01*
X1419042D01*
X1420728Y907425D01*
X1422351Y907952D01*
X1423872Y908727D01*
X1425252Y909730D01*
X1426459Y910937D01*
X1427462Y912317D01*
X1428237Y913838D01*
X1428765Y915461D01*
X1428845Y915971D01*
X1431155D01*
X1431236Y915461D01*
X1431763Y913838D01*
X1432538Y912317D01*
X1433541Y910937D01*
X1434748Y909730D01*
X1436128Y908727D01*
X1437649Y907952D01*
X1439272Y907425D01*
X1440958Y907158D01*
X1442664D01*
X1444350Y907425D01*
X1445973Y907952D01*
X1447494Y908727D01*
X1448874Y909730D01*
X1448896Y909752D01*
X1451971Y906678D01*
Y868633D01*
X1443261Y859924D01*
X1442930Y859428D01*
X1442813Y858842D01*
X1442790Y858823D01*
X1442664Y858842D01*
X1440958D01*
X1439272Y858576D01*
X1437649Y858048D01*
X1436128Y857273D01*
X1434748Y856270D01*
X1433541Y855063D01*
X1432538Y853683D01*
X1431763Y852162D01*
X1431236Y850539D01*
X1430996Y849029D01*
X1429004D01*
X1428765Y850539D01*
X1428237Y852162D01*
X1427462Y853683D01*
X1426459Y855063D01*
X1425252Y856270D01*
X1423872Y857273D01*
X1422351Y858048D01*
X1420728Y858576D01*
X1419042Y858842D01*
X1417336D01*
X1415650Y858576D01*
X1414027Y858048D01*
X1412506Y857273D01*
X1411125Y856270D01*
X1409919Y855063D01*
X1409029Y853839D01*
X1408529Y854002D01*
Y857366D01*
X1419383Y868221D01*
X1444779D01*
Y897779D01*
X1415221D01*
Y868383D01*
X1405919Y859081D01*
X1405587Y858585D01*
X1405471Y858000D01*
Y850037D01*
X1405465Y850015D01*
X1405307Y848000D01*
X1405465Y845985D01*
X1405471Y845963D01*
Y823633D01*
X1398419Y816581D01*
X1398087Y816085D01*
X1397971Y815500D01*
Y764134D01*
X1359919Y726081D01*
X1359587Y725585D01*
X1359471Y725000D01*
Y714634D01*
X1282366Y637529D01*
X1270500D01*
X1269915Y637413D01*
X1269419Y637081D01*
X1247367Y615029D01*
X1228500D01*
X1227915Y614913D01*
X1227419Y614581D01*
X1204184Y591347D01*
X1199897Y591831D01*
X1199810Y591823D01*
X1199725Y591840D01*
X1187735D01*
X1187576Y592850D01*
X1187048Y594473D01*
X1186273Y595994D01*
X1185270Y597374D01*
X1184063Y598581D01*
X1182683Y599584D01*
X1181162Y600359D01*
X1179539Y600887D01*
X1177853Y601154D01*
X1176147D01*
X1174461Y600887D01*
X1172838Y600359D01*
X1171317Y599584D01*
X1169937Y598581D01*
X1169333Y597978D01*
X1168230Y599081D01*
X1167733Y599413D01*
X1167148Y599529D01*
X1128500D01*
X1127915Y599413D01*
X1127419Y599081D01*
X1120177Y591840D01*
X1117735D01*
X1117575Y592850D01*
X1117048Y594473D01*
X1116273Y595994D01*
X1115270Y597374D01*
X1114063Y598581D01*
X1112683Y599584D01*
X1111162Y600359D01*
X1109539Y600886D01*
X1107853Y601154D01*
X1106147D01*
X1104461Y600886D01*
X1102838Y600359D01*
X1101317Y599584D01*
X1099936Y598581D01*
X1098730Y597374D01*
X1097727Y595994D01*
X1096952Y594473D01*
X1096424Y592850D01*
X1096157Y591164D01*
Y589458D01*
X1096424Y587772D01*
X1096952Y586149D01*
X1097727Y584628D01*
X1098730Y583248D01*
X1099936Y582041D01*
X1101317Y581038D01*
X1102315Y580529D01*
X1102195Y580029D01*
X1080134D01*
X1048237Y611926D01*
X1048237Y611926D01*
X1048237Y611926D01*
X1048070Y612093D01*
X1048024Y612123D01*
X1047990Y612167D01*
X1047777Y612288D01*
X1047574Y612424D01*
X1047520Y612435D01*
X1047472Y612462D01*
X1025940Y619629D01*
X1025697Y619660D01*
X1025457Y619707D01*
X999956D01*
X967957Y651706D01*
X968281Y652089D01*
X971553Y649767D01*
X980215Y644096D01*
X989082Y638753D01*
X998143Y633745D01*
X1007385Y629080D01*
X1016796Y624763D01*
X1026361Y620801D01*
X1036067Y617199D01*
X1045901Y613963D01*
X1055850Y611097D01*
X1065898Y608605D01*
X1076033Y606490D01*
X1086240Y604756D01*
X1096504Y603405D01*
X1106812Y602438D01*
X1117149Y601858D01*
X1127500Y601664D01*
X1137851Y601858D01*
X1148188Y602438D01*
X1158496Y603405D01*
X1168760Y604756D01*
X1178967Y606490D01*
X1189102Y608605D01*
X1199150Y611097D01*
X1209099Y613963D01*
X1218933Y617199D01*
X1228640Y620801D01*
X1238204Y624763D01*
X1247615Y629080D01*
X1256857Y633745D01*
X1265918Y638753D01*
X1274786Y644096D01*
X1283447Y649767D01*
X1291891Y655758D01*
X1300104Y662061D01*
X1308076Y668666D01*
X1315796Y675565D01*
X1323252Y682748D01*
X1330435Y690204D01*
X1337334Y697924D01*
X1343939Y705896D01*
X1350241Y714109D01*
X1356232Y722553D01*
X1361904Y731215D01*
X1367247Y740082D01*
X1372255Y749143D01*
X1376920Y758386D01*
X1381237Y767796D01*
X1385199Y777360D01*
X1388801Y787067D01*
X1392037Y796901D01*
X1394903Y806850D01*
X1397395Y816898D01*
X1399510Y827033D01*
X1401244Y837240D01*
X1402595Y847504D01*
X1403562Y857812D01*
X1404142Y868149D01*
X1404336Y878500D01*
X1404142Y888851D01*
X1403562Y899188D01*
X1402595Y909496D01*
X1401244Y919760D01*
X1399510Y929967D01*
X1397395Y940102D01*
X1394903Y950150D01*
X1392037Y960099D01*
X1388801Y969933D01*
X1385199Y979640D01*
X1381237Y989204D01*
X1376920Y998615D01*
X1372255Y1007857D01*
X1367247Y1016918D01*
X1361904Y1025786D01*
X1356232Y1034447D01*
X1350241Y1042891D01*
X1343939Y1051104D01*
X1337334Y1059076D01*
X1330435Y1066796D01*
X1323252Y1074253D01*
X1315796Y1081435D01*
X1308076Y1088334D01*
X1300104Y1094939D01*
X1291891Y1101241D01*
X1283447Y1107232D01*
X1274786Y1112904D01*
X1265918Y1118247D01*
X1256857Y1123255D01*
X1247615Y1127920D01*
X1238204Y1132237D01*
X1228640Y1136199D01*
X1218933Y1139801D01*
X1209099Y1143037D01*
X1199150Y1145903D01*
X1189102Y1148395D01*
X1178967Y1150510D01*
X1168760Y1152244D01*
X1158496Y1153595D01*
X1148188Y1154562D01*
X1137851Y1155142D01*
X1127500Y1155336D01*
X1117149Y1155142D01*
X1106812Y1154562D01*
X1096504Y1153595D01*
X1086240Y1152244D01*
X1076033Y1150510D01*
X1065898Y1148395D01*
X1055850Y1145903D01*
X1045901Y1143037D01*
X1036067Y1139801D01*
X1026361Y1136199D01*
X1016796Y1132237D01*
X1007385Y1127920D01*
X998143Y1123255D01*
X989082Y1118247D01*
X980215Y1112904D01*
X971553Y1107232D01*
X963109Y1101241D01*
X954896Y1094939D01*
X946924Y1088334D01*
X939204Y1081435D01*
X931748Y1074253D01*
X924565Y1066796D01*
X923569Y1065682D01*
X923162Y1065976D01*
X923262Y1066149D01*
X923500Y1067039D01*
Y1067961D01*
X923262Y1068851D01*
X922801Y1069649D01*
X922149Y1070301D01*
X921351Y1070761D01*
X920461Y1071000D01*
X919539D01*
X918848Y1070815D01*
X912913Y1076750D01*
X920572Y1084409D01*
X921520Y1083461D01*
X925301Y1087242D01*
X928920Y1090861D01*
X927972Y1091809D01*
X953133Y1116971D01*
X956000D01*
X956585Y1117087D01*
X957081Y1117419D01*
X976056Y1136393D01*
X978114D01*
X978653Y1135237D01*
X990456Y1140741D01*
X987947Y1146121D01*
X976144Y1140617D01*
X976491Y1139873D01*
X976222Y1139452D01*
X975422D01*
X974837Y1139335D01*
X974341Y1139004D01*
X955367Y1120029D01*
X952500D01*
X951915Y1119913D01*
X951419Y1119581D01*
X925809Y1093972D01*
X924861Y1094920D01*
X921080Y1091139D01*
X920675Y1091368D01*
X915301Y1096743D01*
X915949Y1097390D01*
X915949Y1097390D01*
X919729Y1101170D01*
X918781Y1102118D01*
X942634Y1125971D01*
X956000D01*
X956585Y1126087D01*
X957081Y1126419D01*
X974289Y1143626D01*
X974782Y1143539D01*
X975492Y1142016D01*
X987295Y1147520D01*
X984786Y1152901D01*
X975045Y1148358D01*
X974814Y1148312D01*
X974509Y1148109D01*
X972983Y1147397D01*
X973222Y1146885D01*
X955367Y1129029D01*
X942000D01*
X941415Y1128913D01*
X940919Y1128581D01*
X916618Y1104281D01*
X915670Y1105229D01*
X912051Y1101610D01*
X912051Y1101610D01*
X911552Y1101111D01*
X906611Y1106052D01*
X907639Y1107080D01*
X907639Y1107080D01*
X911420Y1110861D01*
X910472Y1111809D01*
X930134Y1131471D01*
X951000D01*
X951585Y1131587D01*
X952081Y1131919D01*
X970070Y1149907D01*
X971812D01*
X972330Y1148796D01*
X984134Y1154300D01*
X981625Y1159680D01*
X969821Y1154176D01*
X970189Y1153388D01*
X969921Y1152966D01*
X969437D01*
X968851Y1152849D01*
X968355Y1152518D01*
X950366Y1134529D01*
X929500D01*
X928915Y1134413D01*
X928419Y1134081D01*
X908309Y1113972D01*
X907361Y1114920D01*
X903742Y1111301D01*
X903742Y1111301D01*
X899961Y1107520D01*
X904020Y1103461D01*
X904448Y1103889D01*
X909389Y1098948D01*
X908271Y1097830D01*
X912330Y1093771D01*
X913138Y1094580D01*
X918830Y1088888D01*
X917461Y1087520D01*
X918409Y1086572D01*
X910083Y1078246D01*
X909751Y1077750D01*
X909635Y1077164D01*
Y1076336D01*
X909751Y1075751D01*
X910083Y1075254D01*
X916685Y1068652D01*
X916500Y1067961D01*
Y1067039D01*
X916685Y1066348D01*
X894919Y1044581D01*
X894587Y1044085D01*
X894471Y1043500D01*
Y1034634D01*
X859919Y1000081D01*
X859587Y999585D01*
X859471Y999000D01*
Y962846D01*
X859009Y962654D01*
X856847Y964816D01*
X856374Y965132D01*
X858486Y970935D01*
X856405Y971693D01*
Y1010275D01*
X877680Y1031551D01*
X878356Y1031078D01*
X885826Y1041746D01*
X880963Y1045151D01*
X873493Y1034483D01*
X874817Y1033556D01*
X874861Y1033057D01*
X853794Y1011990D01*
X853462Y1011494D01*
X853346Y1010909D01*
Y973076D01*
X853092Y972898D01*
X853093D01*
X851342Y968089D01*
X850627Y966125D01*
X843538D01*
X841816Y967846D01*
X842533Y969816D01*
X842533Y969816D01*
X844362Y974840D01*
X843529Y975143D01*
Y1007818D01*
X871553Y1035841D01*
X872229Y1035368D01*
X879699Y1046037D01*
X874835Y1049442D01*
X867365Y1038774D01*
X868690Y1037846D01*
X868733Y1037348D01*
X840919Y1009533D01*
X840587Y1009037D01*
X840471Y1008452D01*
Y976692D01*
X840061Y976405D01*
X838968Y976803D01*
X837497Y972762D01*
X837009Y972654D01*
X832986Y976677D01*
X832490Y977008D01*
X831905Y977125D01*
X825768D01*
X825418Y977625D01*
X826987Y981935D01*
X826039Y982280D01*
X825931Y982768D01*
X834081Y990919D01*
X834413Y991415D01*
X834529Y992000D01*
Y1009367D01*
X865349Y1040186D01*
X866101Y1039659D01*
X873571Y1050327D01*
X868708Y1053732D01*
X861238Y1043064D01*
X862486Y1042190D01*
X862529Y1041692D01*
X831919Y1011081D01*
X831587Y1010585D01*
X831471Y1010000D01*
Y992634D01*
X822431Y983593D01*
X821593Y983898D01*
X819764Y978874D01*
X819764Y978874D01*
X818013Y974065D01*
X823407Y972102D01*
X824122Y974066D01*
X831271D01*
X836184Y969153D01*
X835389Y966970D01*
X840072Y965265D01*
X841823Y963514D01*
X842319Y963182D01*
X842905Y963066D01*
X849513D01*
X849514Y963065D01*
Y963065D01*
X851595Y962307D01*
Y960258D01*
X845919Y954581D01*
X845587Y954085D01*
X845471Y953500D01*
Y934586D01*
X845498Y934448D01*
X845199Y934149D01*
X844738Y933351D01*
X844500Y932461D01*
Y931539D01*
X844738Y930649D01*
X845199Y929851D01*
X845851Y929199D01*
X846649Y928738D01*
X847539Y928500D01*
X848461D01*
X849351Y928738D01*
X850149Y929199D01*
X850801Y929851D01*
X851262Y930649D01*
X851500Y931539D01*
Y932461D01*
X851262Y933351D01*
X850801Y934149D01*
X850149Y934801D01*
X849351Y935262D01*
X848529Y935482D01*
Y952866D01*
X854206Y958543D01*
X854538Y959039D01*
X854654Y959625D01*
Y960924D01*
X854908Y961102D01*
X854907D01*
X855103Y961638D01*
X855591Y961746D01*
X858504Y958833D01*
X859000Y958501D01*
X859586Y958385D01*
X860414D01*
X860999Y958501D01*
X861496Y958833D01*
X862081Y959419D01*
X862413Y959915D01*
X862866Y959761D01*
X860097Y950150D01*
X857605Y940102D01*
X855490Y929967D01*
X853756Y919760D01*
X852405Y909496D01*
X851438Y899188D01*
X850858Y888851D01*
X850664Y878500D01*
X850858Y868149D01*
X851438Y857812D01*
X852405Y847504D01*
X853756Y837240D01*
X855490Y827033D01*
X857605Y816898D01*
X860097Y806850D01*
X862963Y796901D01*
X866199Y787067D01*
X869801Y777360D01*
X873763Y767796D01*
X878080Y758386D01*
X882745Y749143D01*
X887753Y740082D01*
X893096Y731215D01*
X898767Y722553D01*
X904758Y714109D01*
X911061Y705896D01*
X917666Y697924D01*
X919513Y695857D01*
X919150Y695513D01*
X866722Y747940D01*
Y767807D01*
X866606Y768392D01*
X866275Y768888D01*
X856198Y778965D01*
X856029Y779428D01*
Y818311D01*
X855913Y818896D01*
X855581Y819392D01*
X855289Y819685D01*
X847484Y827490D01*
X848084Y828317D01*
X848859Y829838D01*
X849387Y831461D01*
X849654Y833147D01*
Y834853D01*
X849387Y836539D01*
X848859Y838162D01*
X848084Y839683D01*
X847081Y841063D01*
X845875Y842270D01*
X844494Y843273D01*
X842973Y844048D01*
X841350Y844576D01*
X839664Y844843D01*
X837958D01*
X836272Y844576D01*
X834649Y844048D01*
X833128Y843273D01*
X831748Y842270D01*
X830541Y841063D01*
X829538Y839683D01*
X828763Y838162D01*
X828236Y836539D01*
X828076Y835529D01*
X825924D01*
X825764Y836539D01*
X825237Y838162D01*
X824462Y839683D01*
X823459Y841063D01*
X822252Y842270D01*
X820872Y843273D01*
X819351Y844048D01*
X817728Y844576D01*
X816042Y844843D01*
X814336D01*
X812650Y844576D01*
X811027Y844048D01*
X809506Y843273D01*
X808679Y842673D01*
X803029Y848322D01*
Y884867D01*
X811848Y893685D01*
X812650Y893425D01*
X814336Y893157D01*
X816042D01*
X817728Y893425D01*
X819351Y893952D01*
X820872Y894727D01*
X822252Y895730D01*
X823459Y896937D01*
X824462Y898317D01*
X825237Y899838D01*
X825764Y901461D01*
X825924Y902471D01*
X828076D01*
X828236Y901461D01*
X828763Y899838D01*
X829538Y898317D01*
X830541Y896937D01*
X831748Y895730D01*
X833128Y894727D01*
X834649Y893952D01*
X836272Y893425D01*
X837958Y893157D01*
X839664D01*
X841350Y893425D01*
X842973Y893952D01*
X844494Y894727D01*
X845874Y895730D01*
X847081Y896937D01*
X848084Y898317D01*
X848859Y899838D01*
X849387Y901461D01*
X849654Y903147D01*
Y904853D01*
X849387Y906539D01*
X848859Y908162D01*
X848084Y909683D01*
X847081Y911063D01*
X845874Y912270D01*
X844494Y913273D01*
X842973Y914048D01*
X841350Y914575D01*
X839664Y914843D01*
X837958D01*
X836272Y914575D01*
X834649Y914048D01*
X833128Y913273D01*
X831748Y912270D01*
X830541Y911063D01*
X829538Y909683D01*
X828763Y908162D01*
X828236Y906539D01*
X828076Y905529D01*
X825924D01*
X825764Y906539D01*
X825237Y908162D01*
X824462Y909683D01*
X823459Y911063D01*
X822252Y912270D01*
X820872Y913273D01*
X819351Y914048D01*
X817728Y914575D01*
X816042Y914843D01*
X814336D01*
X812650Y914575D01*
X811027Y914048D01*
X809506Y913273D01*
X808126Y912270D01*
X806919Y911063D01*
X805916Y909683D01*
X805141Y908162D01*
X804613Y906539D01*
X804346Y904853D01*
Y903147D01*
X804613Y901461D01*
X805141Y899838D01*
X805916Y898317D01*
X806919Y896937D01*
X808126Y895730D01*
X808649Y895350D01*
X808688Y894851D01*
X800419Y886581D01*
X800087Y886085D01*
X799971Y885500D01*
Y861357D01*
X799471Y861344D01*
X799166Y867284D01*
X798975Y878500D01*
X799166Y889716D01*
X799740Y900919D01*
X800697Y912096D01*
X802034Y923234D01*
X803751Y934320D01*
X805846Y945341D01*
X808315Y956283D01*
X811157Y967135D01*
X814368Y977884D01*
X817943Y988517D01*
X821880Y999021D01*
X826173Y1009385D01*
X830817Y1019596D01*
X835807Y1029643D01*
X841137Y1039514D01*
X846801Y1049197D01*
X852793Y1058680D01*
X859105Y1067954D01*
X865729Y1077007D01*
X872659Y1085828D01*
X879886Y1094408D01*
X887402Y1102736D01*
X895197Y1110803D01*
X903264Y1118598D01*
X911592Y1126114D01*
X920172Y1133341D01*
X928993Y1140271D01*
X938046Y1146895D01*
X947320Y1153207D01*
X956803Y1159198D01*
X966486Y1164863D01*
X976357Y1170193D01*
X986404Y1175183D01*
X996615Y1179827D01*
X1006979Y1184120D01*
X1017484Y1188057D01*
X1028116Y1191632D01*
X1038865Y1194843D01*
X1049717Y1197684D01*
X1060660Y1200154D01*
X1071680Y1202248D01*
X1077270Y1203114D01*
X1077423Y1202639D01*
D02*
G37*
G36*
X1138716Y1206834D02*
X1149919Y1206260D01*
X1161096Y1205303D01*
X1172234Y1203965D01*
X1183320Y1202248D01*
X1194341Y1200154D01*
X1205283Y1197684D01*
X1216135Y1194843D01*
X1226884Y1191632D01*
X1237516Y1188057D01*
X1248021Y1184120D01*
X1258385Y1179827D01*
X1268596Y1175183D01*
X1278643Y1170193D01*
X1288514Y1164863D01*
X1298197Y1159198D01*
X1307680Y1153207D01*
X1316954Y1146895D01*
X1326007Y1140271D01*
X1334828Y1133341D01*
X1343408Y1126114D01*
X1351736Y1118598D01*
X1359803Y1110803D01*
X1367598Y1102736D01*
X1375114Y1094408D01*
X1382341Y1085828D01*
X1389271Y1077007D01*
X1395895Y1067954D01*
X1402207Y1058680D01*
X1408199Y1049197D01*
X1413863Y1039514D01*
X1419193Y1029643D01*
X1424183Y1019596D01*
X1428827Y1009385D01*
X1433120Y999021D01*
X1437057Y988517D01*
X1440632Y977884D01*
X1443843Y967135D01*
X1446684Y956283D01*
X1449154Y945341D01*
X1451248Y934320D01*
X1452966Y923234D01*
X1454303Y912096D01*
X1454558Y909124D01*
X1454075Y908899D01*
X1450904Y912070D01*
X1451084Y912317D01*
X1451859Y913838D01*
X1452386Y915461D01*
X1452654Y917147D01*
Y918853D01*
X1452386Y920539D01*
X1451859Y922162D01*
X1451084Y923683D01*
X1450081Y925063D01*
X1448874Y926270D01*
X1447494Y927273D01*
X1445973Y928048D01*
X1444350Y928576D01*
X1442664Y928843D01*
X1440958D01*
X1439272Y928576D01*
X1437649Y928048D01*
X1436128Y927273D01*
X1434748Y926270D01*
X1433541Y925063D01*
X1432538Y923683D01*
X1431763Y922162D01*
X1431236Y920539D01*
X1430996Y919029D01*
X1429004D01*
X1428765Y920539D01*
X1428237Y922162D01*
X1427462Y923683D01*
X1426459Y925063D01*
X1425252Y926270D01*
X1423872Y927273D01*
X1422351Y928048D01*
X1421218Y928416D01*
Y955770D01*
X1421102Y956355D01*
X1420770Y956852D01*
X1384319Y993303D01*
Y1013750D01*
X1384203Y1014335D01*
X1383871Y1014832D01*
X1354029Y1044673D01*
Y1060500D01*
X1353913Y1061085D01*
X1353582Y1061581D01*
X1338120Y1077043D01*
X1338311Y1077505D01*
X1341929D01*
X1362105Y1057328D01*
Y1045923D01*
X1362222Y1045338D01*
X1362553Y1044842D01*
X1378345Y1029051D01*
X1378323Y1028551D01*
X1377945Y1028234D01*
X1386316Y1018257D01*
X1390864Y1022073D01*
X1382493Y1032050D01*
X1380958Y1030762D01*
X1365164Y1046557D01*
Y1057962D01*
X1365048Y1058547D01*
X1364716Y1059043D01*
X1343644Y1080116D01*
X1343148Y1080447D01*
X1342562Y1080564D01*
X1336168D01*
X1321960Y1094771D01*
X1322853Y1095835D01*
X1318932Y1099125D01*
X1318932Y1099125D01*
X1318236Y1099710D01*
X1318214Y1100209D01*
X1326019Y1108014D01*
X1326782Y1107373D01*
X1326782Y1107373D01*
X1330703Y1104083D01*
X1331173Y1104643D01*
X1331672Y1104665D01*
X1341471Y1094866D01*
Y1089135D01*
X1341587Y1088550D01*
X1341919Y1088054D01*
X1386328Y1043644D01*
Y1035268D01*
X1383675Y1033042D01*
X1392047Y1023065D01*
X1396595Y1026882D01*
X1389387Y1035472D01*
Y1037095D01*
X1389887Y1037277D01*
X1397777Y1027874D01*
X1402325Y1031690D01*
X1395117Y1040280D01*
Y1048913D01*
X1395000Y1049498D01*
X1394669Y1049994D01*
X1366029Y1078633D01*
Y1097500D01*
X1365913Y1098085D01*
X1365581Y1098582D01*
X1344384Y1119779D01*
X1345393Y1120980D01*
X1341297Y1124417D01*
X1341297Y1124417D01*
X1337376Y1127707D01*
X1333687Y1123310D01*
X1334490Y1122635D01*
X1334512Y1122136D01*
X1327033Y1114656D01*
X1326376Y1115207D01*
X1322687Y1110810D01*
X1323383Y1110225D01*
X1323405Y1109726D01*
X1317031Y1103352D01*
X1316569Y1103543D01*
Y1109460D01*
X1316453Y1110046D01*
X1316121Y1110542D01*
X1313315Y1113348D01*
X1313500Y1114039D01*
Y1114961D01*
X1313262Y1115851D01*
X1312801Y1116649D01*
X1312149Y1117301D01*
X1311351Y1117762D01*
X1310461Y1118000D01*
X1309539D01*
X1308649Y1117762D01*
X1307851Y1117301D01*
X1307199Y1116649D01*
X1306738Y1115851D01*
X1306500Y1114961D01*
Y1114039D01*
X1306738Y1113149D01*
X1307199Y1112351D01*
X1307851Y1111699D01*
X1308649Y1111238D01*
X1309539Y1111000D01*
X1310461D01*
X1311152Y1111185D01*
X1313510Y1108827D01*
Y1100981D01*
X1311147Y1098165D01*
X1315068Y1094875D01*
X1315068Y1094875D01*
X1319163Y1091438D01*
X1319748Y1092136D01*
X1320248Y1092157D01*
X1333380Y1079025D01*
X1333189Y1078564D01*
X1328099D01*
X1286081Y1120581D01*
X1285585Y1120913D01*
X1285000Y1121029D01*
X1280634D01*
X1280593Y1121070D01*
X1280471Y1121151D01*
X1280369Y1121255D01*
X1280056Y1121467D01*
X1279921Y1121524D01*
X1279801Y1121607D01*
X1234594Y1140981D01*
X1234694Y1141471D01*
X1263867D01*
X1265927Y1139410D01*
X1265135Y1138038D01*
X1276414Y1131526D01*
X1279383Y1136668D01*
X1268104Y1143179D01*
X1267716Y1142508D01*
X1267220Y1142443D01*
X1265581Y1144081D01*
X1265085Y1144413D01*
X1264500Y1144529D01*
X1232163D01*
X1227067Y1149625D01*
X1227898Y1151907D01*
X1223857Y1153378D01*
X1223749Y1153866D01*
X1227081Y1157199D01*
X1227413Y1157695D01*
X1227529Y1158280D01*
Y1164453D01*
X1227939Y1164740D01*
X1232340Y1163138D01*
X1232825Y1164471D01*
X1253366D01*
X1265093Y1152744D01*
X1265093Y1152744D01*
X1270503Y1147334D01*
X1268875Y1144516D01*
X1280154Y1138004D01*
X1283123Y1143146D01*
X1273409Y1148754D01*
X1267256Y1154907D01*
X1267256Y1154907D01*
X1255081Y1167081D01*
X1254585Y1167413D01*
X1254000Y1167529D01*
X1234374D01*
X1234087Y1167939D01*
X1234303Y1168532D01*
X1229494Y1170283D01*
X1229494Y1170283D01*
X1227529Y1170998D01*
Y1177866D01*
X1231347Y1181684D01*
X1233316Y1180967D01*
X1233316Y1180967D01*
X1238340Y1179138D01*
X1238825Y1180471D01*
X1246272D01*
X1273762Y1152980D01*
X1272616Y1150994D01*
X1283894Y1144482D01*
X1286863Y1149624D01*
X1275584Y1156136D01*
X1275551Y1156078D01*
X1275055Y1156013D01*
X1247987Y1183081D01*
X1247491Y1183413D01*
X1246905Y1183529D01*
X1240374D01*
X1240087Y1183939D01*
X1240303Y1184532D01*
X1235494Y1186283D01*
X1235494Y1186283D01*
X1230470Y1188111D01*
X1228765Y1183428D01*
X1224919Y1179581D01*
X1224587Y1179085D01*
X1224471Y1178500D01*
Y1172846D01*
X1224009Y1172654D01*
X1214581Y1182081D01*
X1214085Y1182413D01*
X1213500Y1182529D01*
X1204797D01*
X1204492Y1182926D01*
X1204740Y1183853D01*
X1196724Y1186001D01*
X1194984Y1179506D01*
X1203000Y1177357D01*
X1203566Y1179471D01*
X1212866D01*
X1223337Y1169000D01*
X1222506Y1166717D01*
X1224471Y1166002D01*
Y1158914D01*
X1220249Y1154692D01*
X1218065Y1155486D01*
X1217307Y1153405D01*
X1214758D01*
X1211815Y1156348D01*
X1212000Y1157039D01*
Y1157961D01*
X1211761Y1158851D01*
X1211301Y1159649D01*
X1210649Y1160301D01*
X1209851Y1160762D01*
X1208961Y1161000D01*
X1208039D01*
X1207149Y1160762D01*
X1206351Y1160301D01*
X1205699Y1159649D01*
X1205239Y1158851D01*
X1205000Y1157961D01*
Y1157039D01*
X1205239Y1156149D01*
X1205699Y1155351D01*
X1206351Y1154699D01*
X1207149Y1154239D01*
X1208039Y1154000D01*
X1208961D01*
X1209652Y1154185D01*
X1213043Y1150794D01*
X1213540Y1150462D01*
X1214125Y1150346D01*
X1215924D01*
X1216102Y1150093D01*
Y1150093D01*
X1220911Y1148342D01*
X1220911Y1148342D01*
X1225806Y1146560D01*
X1228045Y1144322D01*
X1227764Y1143908D01*
X1218553Y1147856D01*
X1218436Y1147880D01*
X1218328Y1147932D01*
X1218253Y1147951D01*
X1180198Y1157664D01*
X1180007Y1157674D01*
X1179820Y1157712D01*
X1170951D01*
X1169581Y1159081D01*
X1169085Y1159413D01*
X1168500Y1159529D01*
X1158045D01*
X1157925Y1160029D01*
X1158683Y1160416D01*
X1160063Y1161419D01*
X1161270Y1162626D01*
X1162273Y1164006D01*
X1163048Y1165527D01*
X1163537Y1167030D01*
X1163864Y1167171D01*
X1164088Y1167187D01*
X1170356Y1160919D01*
X1170852Y1160587D01*
X1171437Y1160471D01*
X1178072D01*
X1178377Y1160074D01*
X1178233Y1159538D01*
X1186250Y1157390D01*
X1187375Y1161592D01*
X1187938Y1161760D01*
X1188373Y1161509D01*
X1189078Y1161320D01*
X1189808D01*
X1190513Y1161509D01*
X1191145Y1161874D01*
X1191661Y1162390D01*
X1192026Y1163022D01*
X1192140Y1163446D01*
X1192668Y1163822D01*
X1198924Y1162146D01*
X1200664Y1168641D01*
X1192648Y1170789D01*
X1191520Y1166580D01*
X1190959Y1166417D01*
X1190513Y1166674D01*
X1189808Y1166863D01*
X1189078D01*
X1188373Y1166674D01*
X1187741Y1166309D01*
X1187225Y1165793D01*
X1186860Y1165161D01*
X1186747Y1164736D01*
X1186218Y1164361D01*
X1179974Y1166034D01*
X1179303Y1163529D01*
X1172070D01*
X1165424Y1170176D01*
X1164928Y1170507D01*
X1164342Y1170624D01*
X1163830D01*
X1163575Y1172228D01*
X1163048Y1173851D01*
X1162273Y1175372D01*
X1161270Y1176752D01*
X1160063Y1177959D01*
X1158683Y1178962D01*
X1157162Y1179737D01*
X1155539Y1180264D01*
X1154529Y1180424D01*
Y1182576D01*
X1155539Y1182736D01*
X1157162Y1183263D01*
X1158683Y1184038D01*
X1160063Y1185041D01*
X1161270Y1186248D01*
X1162273Y1187628D01*
X1163048Y1189149D01*
X1163575Y1190772D01*
X1163842Y1192458D01*
Y1194164D01*
X1163575Y1195850D01*
X1163048Y1197473D01*
X1162273Y1198994D01*
X1161270Y1200375D01*
X1160063Y1201581D01*
X1158683Y1202584D01*
X1157162Y1203359D01*
X1155539Y1203887D01*
X1153853Y1204154D01*
X1152147D01*
X1150461Y1203887D01*
X1148838Y1203359D01*
X1147317Y1202584D01*
X1145937Y1201581D01*
X1144730Y1200375D01*
X1143727Y1198994D01*
X1142952Y1197473D01*
X1142681Y1196638D01*
X1142123Y1196540D01*
X1133081Y1205581D01*
X1132585Y1205913D01*
X1132000Y1206029D01*
X1110357D01*
X1110344Y1206529D01*
X1116284Y1206834D01*
X1127500Y1207025D01*
X1138716Y1206834D01*
D02*
G37*
G36*
X922203Y1064153D02*
X917666Y1059076D01*
X911061Y1051104D01*
X904758Y1042891D01*
X898767Y1034447D01*
X893096Y1025786D01*
X887753Y1016918D01*
X882745Y1007857D01*
X878080Y998615D01*
X873763Y989204D01*
X869801Y979640D01*
X866199Y969933D01*
X862963Y960099D01*
X862951Y960055D01*
X862465Y960174D01*
X862529Y960500D01*
Y998367D01*
X897081Y1032918D01*
X897413Y1033415D01*
X897529Y1034000D01*
Y1042867D01*
X918848Y1064185D01*
X919539Y1064000D01*
X920461D01*
X921351Y1064238D01*
X921884Y1064546D01*
X922203Y1064153D01*
D02*
G37*
G36*
X1455834Y889716D02*
X1456025Y878500D01*
X1455834Y867284D01*
X1455260Y856081D01*
X1454303Y844904D01*
X1452966Y833766D01*
X1451248Y822680D01*
X1449154Y811660D01*
X1446684Y800717D01*
X1443843Y789865D01*
X1440632Y779116D01*
X1437057Y768483D01*
X1433120Y757979D01*
X1428827Y747615D01*
X1424183Y737404D01*
X1419193Y727357D01*
X1413863Y717486D01*
X1408199Y707803D01*
X1402207Y698320D01*
X1395895Y689046D01*
X1389271Y679993D01*
X1382341Y671172D01*
X1375114Y662592D01*
X1367598Y654264D01*
X1359803Y646197D01*
X1351736Y638402D01*
X1343408Y630886D01*
X1334828Y623659D01*
X1326007Y616729D01*
X1316954Y610105D01*
X1307680Y603793D01*
X1298197Y597801D01*
X1288514Y592137D01*
X1278643Y586807D01*
X1268596Y581817D01*
X1258385Y577173D01*
X1248021Y572880D01*
X1237516Y568943D01*
X1226884Y565368D01*
X1216135Y562157D01*
X1205283Y559315D01*
X1194341Y556846D01*
X1183320Y554751D01*
X1172234Y553034D01*
X1161096Y551697D01*
X1149919Y550740D01*
X1138716Y550166D01*
X1127500Y549975D01*
X1116284Y550166D01*
X1105081Y550740D01*
X1093904Y551697D01*
X1082766Y553034D01*
X1071680Y554751D01*
X1060660Y556846D01*
X1049717Y559315D01*
X1038865Y562157D01*
X1028116Y565368D01*
X1017484Y568943D01*
X1006979Y572880D01*
X996615Y577173D01*
X986404Y581817D01*
X976357Y586807D01*
X966486Y592137D01*
X956803Y597801D01*
X947320Y603793D01*
X938046Y610105D01*
X928993Y616729D01*
X920172Y623659D01*
X911592Y630886D01*
X903264Y638402D01*
X895197Y646197D01*
X887402Y654264D01*
X879886Y662592D01*
X872659Y671172D01*
X865729Y679993D01*
X859105Y689046D01*
X852793Y698320D01*
X846801Y707803D01*
X841137Y717486D01*
X835807Y727357D01*
X830817Y737404D01*
X826173Y747615D01*
X821880Y757979D01*
X817943Y768483D01*
X814368Y779116D01*
X811157Y789865D01*
X808315Y800717D01*
X805846Y811660D01*
X803751Y822680D01*
X802034Y833766D01*
X800697Y844904D01*
X800626Y845736D01*
X801079Y845947D01*
X806516Y840510D01*
X805916Y839683D01*
X805141Y838162D01*
X804613Y836539D01*
X804346Y834853D01*
Y833147D01*
X804613Y831461D01*
X805141Y829838D01*
X805916Y828317D01*
X806919Y826937D01*
X808126Y825730D01*
X809506Y824727D01*
X811027Y823952D01*
X812650Y823425D01*
X814336Y823158D01*
X816042D01*
X817728Y823425D01*
X819351Y823952D01*
X820872Y824727D01*
X822252Y825730D01*
X823459Y826937D01*
X824462Y828317D01*
X825237Y829838D01*
X825764Y831461D01*
X825924Y832471D01*
X828076D01*
X828236Y831461D01*
X828763Y829838D01*
X829538Y828317D01*
X830541Y826937D01*
X831748Y825730D01*
X833128Y824727D01*
X834649Y823952D01*
X836272Y823425D01*
X837958Y823158D01*
X839664D01*
X841350Y823425D01*
X842973Y823952D01*
X844494Y824727D01*
X845321Y825327D01*
X852971Y817677D01*
Y779159D01*
X853022Y778898D01*
X853063Y778636D01*
X853440Y777600D01*
X853457Y777571D01*
X853464Y777538D01*
X853611Y777317D01*
X853749Y777090D01*
X853777Y777070D01*
X853795Y777042D01*
X863664Y767173D01*
Y747307D01*
X863780Y746722D01*
X864112Y746225D01*
X959418Y650919D01*
X959915Y650587D01*
X960500Y650471D01*
X964867D01*
X983346Y631991D01*
X983154Y631529D01*
X969098D01*
X967511Y633117D01*
X968865Y635462D01*
X957586Y641974D01*
X954618Y636833D01*
X961276Y632988D01*
X961656Y632734D01*
X961747Y632716D01*
X965896Y630321D01*
X965896Y630321D01*
X965971Y630331D01*
X967273Y629029D01*
X967136Y628592D01*
X967088Y628529D01*
X965362D01*
X965112Y628962D01*
X965125Y628984D01*
X953846Y635496D01*
X950877Y630354D01*
X957536Y626510D01*
X957916Y626256D01*
X958007Y626238D01*
X962156Y623843D01*
X963152Y625568D01*
X963643Y625471D01*
X977166D01*
X979454Y623182D01*
X979262Y622720D01*
X961013D01*
X950106Y629018D01*
X947137Y623876D01*
X953796Y620032D01*
X954176Y619778D01*
X954267Y619760D01*
X958416Y617364D01*
X959742Y619662D01*
X980146D01*
X1027932Y571875D01*
X1027102Y569593D01*
X1032126Y567764D01*
Y567764D01*
X1036935Y566013D01*
X1038898Y571407D01*
X1036934Y572122D01*
Y587214D01*
X1037344Y587501D01*
X1038340Y587138D01*
X1038647Y587983D01*
X1039226Y588111D01*
X1044971Y582367D01*
Y576000D01*
X1045087Y575415D01*
X1045419Y574919D01*
X1053247Y567090D01*
X1053743Y566759D01*
X1054328Y566642D01*
X1058743D01*
X1059199Y565851D01*
X1059851Y565199D01*
X1060649Y564739D01*
X1061539Y564500D01*
X1062461D01*
X1063351Y564739D01*
X1064149Y565199D01*
X1064801Y565851D01*
X1065261Y566649D01*
X1065500Y567539D01*
Y568461D01*
X1065315Y569152D01*
X1072667Y576504D01*
X1072999Y577001D01*
X1073115Y577586D01*
Y578414D01*
X1072999Y579000D01*
X1072667Y579496D01*
X1057500Y594663D01*
Y595461D01*
X1057261Y596351D01*
X1056801Y597149D01*
X1056149Y597801D01*
X1055351Y598261D01*
X1054461Y598500D01*
X1053539D01*
X1052649Y598261D01*
X1051851Y597801D01*
X1051199Y597149D01*
X1050739Y596351D01*
X1050500Y595461D01*
Y594539D01*
X1050739Y593649D01*
X1051199Y592851D01*
X1051851Y592199D01*
X1052649Y591739D01*
X1053539Y591500D01*
X1054461D01*
X1055351Y591739D01*
X1055825Y592012D01*
X1069837Y578000D01*
X1063152Y571315D01*
X1062461Y571500D01*
X1061539D01*
X1060649Y571262D01*
X1059851Y570801D01*
X1059199Y570149D01*
X1058941Y569701D01*
X1054962D01*
X1048029Y576634D01*
Y583000D01*
X1047913Y583585D01*
X1047581Y584081D01*
X1040553Y591110D01*
X1040057Y591441D01*
X1039965Y591604D01*
X1040303Y592532D01*
X1039512Y592820D01*
X1039529Y592909D01*
Y596885D01*
X1039971Y597228D01*
X1041935Y596514D01*
X1043898Y601907D01*
X1038874Y603736D01*
Y603736D01*
X1034065Y605486D01*
X1033352Y603529D01*
X1012634D01*
X999976Y616187D01*
X1000168Y616648D01*
X1025209D01*
X1046163Y609674D01*
X1077772Y578065D01*
X1078126Y577711D01*
X1078112Y577698D01*
X1078419Y577419D01*
X1078486Y577374D01*
X1078728Y577212D01*
X1078915Y577087D01*
X1078915Y577087D01*
X1078915Y577087D01*
X1079223Y577026D01*
X1079500Y576971D01*
X1102195D01*
X1102315Y576471D01*
X1101317Y575962D01*
X1099937Y574959D01*
X1098730Y573752D01*
X1097727Y572372D01*
X1096952Y570851D01*
X1096424Y569228D01*
X1096157Y567542D01*
Y565836D01*
X1096424Y564150D01*
X1096952Y562527D01*
X1097727Y561006D01*
X1098730Y559626D01*
X1099937Y558419D01*
X1101317Y557416D01*
X1102838Y556641D01*
X1104461Y556113D01*
X1106147Y555847D01*
X1107853D01*
X1109539Y556113D01*
X1111162Y556641D01*
X1112683Y557416D01*
X1114063Y558419D01*
X1115270Y559626D01*
X1116273Y561006D01*
X1116622Y561691D01*
X1125646D01*
X1131419Y555919D01*
X1131915Y555587D01*
X1132500Y555471D01*
X1165811D01*
X1166396Y555587D01*
X1166892Y555919D01*
X1169665Y558691D01*
X1169937Y558419D01*
X1171317Y557416D01*
X1172838Y556641D01*
X1174461Y556113D01*
X1176147Y555847D01*
X1177853D01*
X1179539Y556113D01*
X1181162Y556641D01*
X1182683Y557416D01*
X1184063Y558419D01*
X1185270Y559626D01*
X1186273Y561006D01*
X1187048Y562527D01*
X1187576Y564150D01*
X1187842Y565836D01*
Y567542D01*
X1187576Y569228D01*
X1187048Y570851D01*
X1186273Y572372D01*
X1185270Y573752D01*
X1184063Y574959D01*
X1182683Y575962D01*
X1181162Y576737D01*
X1179539Y577264D01*
X1177853Y577531D01*
X1177029D01*
Y579468D01*
X1177853D01*
X1179539Y579736D01*
X1181162Y580263D01*
X1182683Y581038D01*
X1184063Y582041D01*
X1185270Y583248D01*
X1186273Y584628D01*
X1187048Y586149D01*
X1187576Y587772D01*
X1187735Y588782D01*
X1199639D01*
X1203899Y588301D01*
X1204358Y588246D01*
X1204378Y588243D01*
X1204378Y588243D01*
X1204378Y588243D01*
Y588243D01*
X1204792Y588263D01*
X1204871Y588279D01*
X1205378Y588379D01*
X1205874Y588711D01*
X1229134Y611971D01*
X1248000D01*
X1248585Y612087D01*
X1249081Y612419D01*
X1271134Y634471D01*
X1283000D01*
X1283585Y634587D01*
X1284081Y634919D01*
X1362081Y712919D01*
X1362413Y713415D01*
X1362529Y714000D01*
Y724367D01*
X1400581Y762419D01*
X1400913Y762915D01*
X1401029Y763500D01*
Y814867D01*
X1408081Y821919D01*
X1408413Y822415D01*
X1408529Y823000D01*
Y841998D01*
X1409029Y842161D01*
X1409919Y840937D01*
X1411125Y839730D01*
X1412506Y838727D01*
X1414027Y837952D01*
X1415650Y837424D01*
X1417336Y837158D01*
X1419042D01*
X1420728Y837424D01*
X1422351Y837952D01*
X1423872Y838727D01*
X1425252Y839730D01*
X1426459Y840937D01*
X1427462Y842317D01*
X1428237Y843838D01*
X1428765Y845461D01*
X1428845Y845971D01*
X1431155D01*
X1431236Y845461D01*
X1431763Y843838D01*
X1432538Y842317D01*
X1433541Y840937D01*
X1434748Y839730D01*
X1436128Y838727D01*
X1437649Y837952D01*
X1439272Y837424D01*
X1440958Y837158D01*
X1442664D01*
X1444350Y837424D01*
X1445973Y837952D01*
X1447494Y838727D01*
X1448874Y839730D01*
X1450081Y840937D01*
X1451084Y842317D01*
X1451859Y843838D01*
X1452387Y845461D01*
X1452654Y847147D01*
Y848853D01*
X1452387Y850539D01*
X1451859Y852162D01*
X1451084Y853683D01*
X1450081Y855063D01*
X1448874Y856270D01*
X1447494Y857273D01*
X1446268Y857898D01*
X1446160Y858497D01*
X1454581Y866919D01*
X1454913Y867415D01*
X1455029Y868000D01*
Y895644D01*
X1455529Y895656D01*
X1455834Y889716D01*
D02*
G37*
%LPC*%
G36*
X1197960Y1197286D02*
X1197230D01*
X1196525Y1197097D01*
X1195893Y1196732D01*
X1195377Y1196216D01*
X1195012Y1195584D01*
X1194898Y1195159D01*
X1194370Y1194783D01*
X1188125Y1196457D01*
X1186385Y1189961D01*
X1194401Y1187813D01*
X1195527Y1192015D01*
X1196090Y1192183D01*
X1196525Y1191932D01*
X1197230Y1191743D01*
X1197960D01*
X1198665Y1191932D01*
X1199297Y1192296D01*
X1199813Y1192812D01*
X1200178Y1193445D01*
X1200366Y1194149D01*
Y1194879D01*
X1200178Y1195584D01*
X1199813Y1196216D01*
X1199297Y1196732D01*
X1198665Y1197097D01*
X1197960Y1197286D01*
D02*
G37*
G36*
X1413683Y821278D02*
X1412761D01*
X1411871Y821039D01*
X1411073Y820578D01*
X1410421Y819927D01*
X1409961Y819129D01*
X1409722Y818239D01*
Y817317D01*
X1409961Y816427D01*
X1410421Y815629D01*
X1411073Y814977D01*
X1411871Y814516D01*
X1411915Y814505D01*
Y812893D01*
X1411532Y812572D01*
X1411082Y812651D01*
X1410275Y808077D01*
X1410193Y807611D01*
X1410193D01*
X1409265Y802346D01*
X1413225Y801647D01*
X1417471Y797402D01*
Y765790D01*
X1391761Y740081D01*
X1389538Y741365D01*
X1383026Y730086D01*
X1388167Y727118D01*
X1394679Y738396D01*
X1394679Y738396D01*
X1394647Y738641D01*
X1408509Y752503D01*
X1408971Y752311D01*
Y748134D01*
X1397567Y736729D01*
X1396016Y737625D01*
X1389504Y726346D01*
X1394646Y723377D01*
X1401157Y734656D01*
X1400665Y734941D01*
X1400599Y735436D01*
X1410509Y745346D01*
X1410971Y745154D01*
Y739134D01*
X1404540Y732703D01*
X1402494Y733884D01*
X1395982Y722606D01*
X1401124Y719637D01*
X1407635Y730916D01*
X1407636Y730916D01*
X1407571Y731408D01*
X1413581Y737419D01*
X1413913Y737915D01*
X1414029Y738500D01*
Y752366D01*
X1425081Y763419D01*
X1425413Y763915D01*
X1425529Y764500D01*
Y782367D01*
X1441043Y797880D01*
X1441375Y798376D01*
X1441441Y798708D01*
X1443362Y798369D01*
X1444291Y803634D01*
X1444291D01*
X1445179Y808675D01*
X1439526Y809671D01*
X1439244Y808070D01*
X1431753D01*
X1430950Y808873D01*
X1431179Y810175D01*
X1425527Y811171D01*
X1425244Y809570D01*
X1416756D01*
X1416435Y809953D01*
X1416735Y811654D01*
X1414974Y811965D01*
Y814748D01*
X1415371Y814977D01*
X1416023Y815629D01*
X1416484Y816427D01*
X1416722Y817317D01*
Y818239D01*
X1416484Y819129D01*
X1416023Y819927D01*
X1415371Y820578D01*
X1414573Y821039D01*
X1413683Y821278D01*
D02*
G37*
G36*
X856554Y772054D02*
X850975Y770023D01*
X855429Y757785D01*
X856971Y758346D01*
X857471Y757996D01*
Y731000D01*
X857587Y730415D01*
X857919Y729919D01*
X885919Y701919D01*
X886415Y701587D01*
X887000Y701471D01*
X894439D01*
X896417Y699114D01*
X896728Y698743D01*
X897213Y698165D01*
X894646Y695599D01*
X894038D01*
X893452Y695482D01*
X892956Y695151D01*
X890482Y692677D01*
X889982Y692698D01*
X889438Y693347D01*
X889127Y693718D01*
X888816Y694089D01*
X885690Y697813D01*
X884489Y696805D01*
X853529Y727764D01*
Y756423D01*
X853413Y757008D01*
X853429Y757057D01*
X853979Y757257D01*
X849525Y769495D01*
X843946Y767465D01*
X848400Y755227D01*
X849975Y755800D01*
X850471Y755448D01*
Y727131D01*
X850587Y726546D01*
X850919Y726049D01*
X881875Y695093D01*
X881853Y694593D01*
X881293Y694124D01*
X884272Y690574D01*
X884583Y690203D01*
X885476Y689139D01*
X883146Y686809D01*
X882748D01*
X882163Y686693D01*
X881667Y686361D01*
X879482Y684177D01*
X878982Y684198D01*
X878438Y684847D01*
X878127Y685218D01*
X877816Y685589D01*
X874690Y689313D01*
X874233Y688930D01*
X846529Y716634D01*
Y753864D01*
X846413Y754449D01*
X846433Y754511D01*
X846950Y754699D01*
X842496Y766937D01*
X836917Y764906D01*
X841371Y752668D01*
X842980Y753254D01*
X843471Y752900D01*
Y716000D01*
X843587Y715415D01*
X843919Y714919D01*
X871619Y687218D01*
X871598Y686718D01*
X870293Y685624D01*
X873272Y682074D01*
X873583Y681703D01*
X877020Y677607D01*
X881417Y681297D01*
X881194Y681563D01*
X883382Y683750D01*
X883780D01*
X884365Y683867D01*
X884861Y684198D01*
X887188Y686525D01*
X887687Y686503D01*
X888020Y686107D01*
X892417Y689797D01*
X892194Y690063D01*
X894671Y692540D01*
X895280D01*
X895865Y692657D01*
X896362Y692988D01*
X898925Y695551D01*
X899424Y695529D01*
X900165Y694647D01*
X902600Y696691D01*
X935116Y664175D01*
X931454Y655783D01*
X928375Y654575D01*
X928149Y654801D01*
X927351Y655262D01*
X926461Y655500D01*
X925539D01*
X924649Y655262D01*
X923851Y654801D01*
X923199Y654149D01*
X922738Y653351D01*
X922500Y652461D01*
Y651539D01*
X922738Y650649D01*
X923199Y649851D01*
X923851Y649199D01*
X924649Y648738D01*
X925539Y648500D01*
X926461D01*
X927351Y648738D01*
X928149Y649199D01*
X928801Y649851D01*
X929261Y650649D01*
X929500Y651539D01*
Y651730D01*
X932970Y653092D01*
X932982Y653099D01*
X932996Y653102D01*
X933232Y653260D01*
X933472Y653414D01*
X933480Y653426D01*
X933492Y653434D01*
X933774Y653715D01*
X933932Y653952D01*
X934094Y654185D01*
X938148Y663473D01*
X938151Y663487D01*
X938159Y663500D01*
X938214Y663778D01*
X938275Y664056D01*
X938272Y664071D01*
X938275Y664085D01*
Y664708D01*
X938159Y665293D01*
X937827Y665789D01*
X903996Y699621D01*
X903500Y699953D01*
X903147Y700023D01*
X901583Y701886D01*
X901272Y702257D01*
X900961Y702628D01*
X897835Y706353D01*
X895631Y704503D01*
X895500Y704529D01*
X887634D01*
X860529Y731634D01*
Y758981D01*
X860413Y759566D01*
X860425Y759603D01*
X861008Y759816D01*
X856554Y772054D01*
D02*
G37*
G36*
X1354961Y702500D02*
X1354039D01*
X1353149Y702261D01*
X1352351Y701801D01*
X1351699Y701149D01*
X1351239Y700351D01*
X1351000Y699461D01*
Y698539D01*
X1351239Y697649D01*
X1351699Y696851D01*
X1352351Y696199D01*
X1352971Y695842D01*
Y693264D01*
X1342011Y682305D01*
X1340810Y683313D01*
X1337373Y679218D01*
X1337373Y679218D01*
X1334083Y675297D01*
X1334643Y674827D01*
X1334665Y674328D01*
X1329419Y669081D01*
X1329087Y668585D01*
X1328971Y668000D01*
Y656634D01*
X1306866Y634529D01*
X1292604D01*
X1292019Y634413D01*
X1291560Y634520D01*
X1290916Y635636D01*
X1279637Y629124D01*
X1282606Y623982D01*
X1293884Y630494D01*
X1293571Y631038D01*
X1293821Y631471D01*
X1297122D01*
X1297313Y631009D01*
X1295241Y628937D01*
X1294746Y629002D01*
X1294656Y629157D01*
X1283377Y622646D01*
X1286346Y617504D01*
X1297625Y624016D01*
X1296534Y625904D01*
X1300101Y629471D01*
X1304012D01*
X1304059Y629408D01*
X1304196Y628971D01*
X1297234Y622008D01*
X1287117Y616167D01*
X1290086Y611026D01*
X1301365Y617538D01*
X1299800Y620248D01*
X1306022Y626471D01*
X1329500D01*
X1330085Y626587D01*
X1330581Y626919D01*
X1358646Y654984D01*
X1360835Y653147D01*
X1364272Y657243D01*
X1364272Y657243D01*
X1365294Y658461D01*
X1365730Y658547D01*
X1366226Y658879D01*
X1366558Y659375D01*
X1366674Y659960D01*
X1366651Y660078D01*
X1367562Y661163D01*
X1363165Y664853D01*
X1362832Y664457D01*
X1362333Y664435D01*
X1354897Y671871D01*
X1355562Y672663D01*
X1351165Y676353D01*
X1350100Y675084D01*
X1349601Y675062D01*
X1345130Y679532D01*
X1345207Y679624D01*
X1344647Y680093D01*
X1344625Y680593D01*
X1355581Y691549D01*
X1355913Y692046D01*
X1356029Y692631D01*
Y695842D01*
X1356649Y696199D01*
X1357301Y696851D01*
X1357761Y697649D01*
X1358000Y698539D01*
Y699461D01*
X1357761Y700351D01*
X1357301Y701149D01*
X1356649Y701801D01*
X1355851Y702261D01*
X1354961Y702500D01*
D02*
G37*
%LPD*%
D14*
X1079207Y578793D02*
X1079207Y578793D01*
X1407000Y849860D02*
X1406885Y848933D01*
X1406847Y848000D01*
X1406885Y847067D01*
X1407000Y846140D01*
X1204378Y589792D02*
X1204378D01*
X965500Y652000D02*
X999322Y618178D01*
X960500Y652000D02*
X965500D01*
X999322Y618178D02*
X1025457D01*
X1025457Y618178D01*
X865193Y747307D02*
X960500Y652000D01*
X865193Y747307D02*
Y767807D01*
X1197605Y1181000D02*
X1213500D01*
X903881Y1106619D02*
X912500Y1098000D01*
X900514Y698552D02*
X900518Y698598D01*
X902500Y698540D02*
X902914D01*
X932217Y654439D02*
X932411Y654515D01*
X932692Y654797D02*
X936746Y664085D01*
X902914Y698540D02*
X936746Y664708D01*
Y664085D02*
Y664708D01*
X932411Y654515D02*
X932692Y654797D01*
X900645Y698540D02*
X902500Y698540D01*
X926000Y652000D02*
X932217Y654439D01*
X1413222Y817778D02*
X1413444Y817556D01*
X1413000Y818000D02*
X1413222Y817778D01*
X1037801Y590618D02*
X1038391Y590028D01*
X1037670Y590750D02*
X1037801Y590618D01*
X1038000Y590817D01*
X1037535Y590352D02*
X1037801Y590618D01*
X1346634Y668540D02*
X1348355D01*
X1309094Y631000D02*
X1346634Y668540D01*
X1294241Y616853D02*
X1305389Y628000D01*
X1359447Y657947D02*
X1360748Y659248D01*
X1329500Y628000D02*
X1359447Y657947D01*
X1290501Y623331D02*
X1291798D01*
X1305389Y628000D02*
X1329500D01*
X1291798Y623331D02*
X1299467Y631000D01*
X1309094D01*
X1289413Y629809D02*
X1292604Y633000D01*
X1286761Y629809D02*
X1289413D01*
X1307500Y633000D02*
X1330500Y656000D01*
X1292604Y633000D02*
X1307500D01*
X1360748Y659248D02*
X1360818Y659190D01*
X1361000Y714000D02*
Y725000D01*
X1270500Y636000D02*
X1283000D01*
X1361000Y714000D01*
X1105000Y1204500D02*
X1132000D01*
X1100500Y1200000D02*
X1105000Y1204500D01*
X1132000D02*
X1141658Y1194843D01*
X900500Y698616D02*
X900518Y698598D01*
X859000Y731000D02*
X887000Y703000D01*
X895500D01*
X859000Y731000D02*
Y758981D01*
X899827Y698616D02*
X900500D01*
X895280Y694069D02*
X899827Y698616D01*
X895500Y703000D02*
X897000Y701500D01*
X845000Y716000D02*
X874210Y686790D01*
X845000Y716000D02*
Y753864D01*
X874210Y685421D02*
Y686790D01*
X1036809Y590750D02*
X1037670D01*
X1039472Y590028D02*
X1046500Y583000D01*
Y576000D02*
X1054328Y568172D01*
X1038391Y590028D02*
X1039472D01*
X1046500Y576000D02*
Y583000D01*
X1037670Y591147D02*
X1038000Y590817D01*
X1037670Y591147D02*
Y592579D01*
X1046989Y611011D02*
X1047156Y610844D01*
X1025457Y618178D02*
X1046989Y611011D01*
X1047156Y610844D02*
X1079207Y578793D01*
X854877Y778123D02*
X865193Y767807D01*
X854500Y779159D02*
X854877Y778123D01*
X854500Y779159D02*
Y818311D01*
X823375Y980405D02*
Y982375D01*
X1427889Y808040D02*
X1429619D01*
X1413444Y809520D02*
Y817556D01*
X1429619Y808040D02*
X1431119Y806540D01*
X1363645Y660960D02*
X1364645Y659960D01*
X1352145Y672460D02*
X1363645Y660960D01*
X1054328Y568172D02*
X1061828D01*
X1062000Y568000D01*
X1071586Y577586D01*
Y578414D01*
X1054000Y595000D02*
X1055000D01*
X1071586Y578414D01*
X1079500Y578500D02*
X1140500D01*
X1079207Y578793D02*
X1079500Y578500D01*
X1036809Y589780D02*
Y590750D01*
X1035405Y569625D02*
Y588376D01*
X1036809Y589780D01*
X1032094Y591522D02*
X1032116Y591500D01*
X1013299D02*
X1029702D01*
X977799Y627000D02*
X1013299Y591500D01*
X1029724Y591522D02*
X1032094D01*
X1029702Y591500D02*
X1029724Y591522D01*
X1038000Y592909D02*
Y597720D01*
X1040405Y600125D01*
X1037670Y592579D02*
X1038000Y592909D01*
X1012000Y602000D02*
X1036145D01*
X984000Y630000D02*
X1012000Y602000D01*
X954761Y621191D02*
X980779D01*
X1030595Y571375D01*
X958501Y627669D02*
X962973D01*
X963643Y627000D01*
X977799D01*
X1415372Y808040D02*
X1427889D01*
X1412556Y804480D02*
X1419000Y798035D01*
Y765157D02*
Y798035D01*
X1407000Y823000D02*
Y846140D01*
X1399500Y815500D02*
X1407000Y823000D01*
X1399500Y763500D02*
Y815500D01*
X1388853Y735009D02*
X1419000Y765157D01*
X1431119Y806540D02*
X1441889D01*
X1407000Y858000D02*
X1431500Y882500D01*
X1407000Y849860D02*
Y858000D01*
X1361000Y725000D02*
X1399500Y763500D01*
X1217950Y1146450D02*
X1279198Y1120201D01*
X1217875Y1146469D02*
X1217950Y1146450D01*
X1179820Y1156182D02*
X1217875Y1146469D01*
X1231529Y1143000D02*
X1264500D01*
X1268500Y1139000D01*
X1224405Y1150125D02*
X1231529Y1143000D01*
X1279198Y1120201D02*
X1279511Y1119989D01*
X1315166Y1099324D02*
Y1100652D01*
Y1098771D02*
Y1099324D01*
X1326579Y1110737D01*
X1310000Y1114500D02*
X1315040Y1109460D01*
Y1100779D02*
Y1109460D01*
Y1098645D02*
X1315166Y1098771D01*
X1315040Y1100779D02*
X1315166Y1100652D01*
X1444343Y858842D02*
X1453500Y868000D01*
X1443311Y917500D02*
X1453500Y907311D01*
Y868000D02*
Y907311D01*
X1422000Y791000D02*
X1427111Y796111D01*
X1422000Y765328D02*
Y791000D01*
X1427111Y796111D02*
Y804460D01*
X1410500Y753828D02*
X1422000Y765328D01*
X1412500Y753000D02*
X1424000Y764500D01*
Y783000D01*
X1439962Y800462D02*
X1441000Y801500D01*
X1439962Y798962D02*
Y800462D01*
X1424000Y783000D02*
X1439962Y798962D01*
X962241Y634147D02*
X964317D01*
X968465Y630000D01*
X984000D01*
X883780Y685280D02*
X888500Y690000D01*
X888500D01*
X877500Y681500D02*
X878968D01*
X882748Y685280D01*
X883780D01*
X889968Y690000D02*
X894038Y694069D01*
X888500Y690000D02*
X889968D01*
X894038Y694069D02*
X895280D01*
X853125Y959625D02*
Y964595D01*
X847000Y953500D02*
X853125Y959625D01*
X847000Y934586D02*
Y953500D01*
X847235Y932765D02*
X848000Y932000D01*
X847235Y932765D02*
Y934351D01*
X847000Y934586D02*
X847235Y934351D01*
X839000Y968500D02*
X842905Y964595D01*
X853125D01*
X839000Y968500D02*
X839000D01*
X831905Y975595D02*
X839000Y968500D01*
X839000D01*
X821625Y975595D02*
X831905D01*
X840751Y973309D02*
X842000Y974559D01*
Y1008452D01*
X840751Y971287D02*
Y973309D01*
X853985Y963735D02*
X855765D01*
X861000Y960500D02*
Y999000D01*
X853125Y964595D02*
X853985Y963735D01*
X859586Y959914D02*
X860414D01*
X861000Y960500D01*
X855765Y963735D02*
X859586Y959914D01*
X861000Y999000D02*
X896000Y1034000D01*
X842000Y1008452D02*
X873532Y1039984D01*
X854875Y969405D02*
Y1010909D01*
X879659Y1035693D01*
X896000Y1034000D02*
Y1043500D01*
X920000Y1067500D01*
X912190Y1097690D02*
X921381Y1088500D01*
Y1087381D02*
Y1088500D01*
X903881Y1106619D02*
Y1107381D01*
X911164Y1077164D02*
X921381Y1087381D01*
X911164Y1076336D02*
Y1077164D01*
Y1076336D02*
X920000Y1067500D01*
X921381Y1087381D02*
Y1087381D01*
X1214125Y1151875D02*
X1219595D01*
X1208500Y1157500D02*
X1214125Y1151875D01*
X1091523Y1200000D02*
X1100500D01*
X1083000Y1193311D02*
X1084834D01*
X1091523Y1200000D01*
X1280000Y1119500D02*
X1285000D01*
X1279511Y1119989D02*
X1280000Y1119500D01*
X1285000D02*
X1327466Y1077034D01*
X1246905Y1182000D02*
X1276905Y1152000D01*
X1237559Y1182000D02*
X1246905D01*
X1254000Y1166000D02*
X1266174Y1153826D01*
X1231559Y1166000D02*
X1254000D01*
X1266174Y1153826D02*
X1274500Y1145500D01*
X1266174Y1153826D02*
Y1153826D01*
X1364500Y1078000D02*
X1393587Y1048913D01*
Y1037048D02*
Y1048913D01*
X1364500Y1078000D02*
Y1097500D01*
X1131279Y1165720D02*
X1139000Y1158000D01*
X1170318Y1156182D02*
X1179820D01*
X1139000Y1158000D02*
X1168500D01*
X1170318Y1156182D01*
X1213500Y1181000D02*
X1226000Y1168500D01*
X1171437Y1162000D02*
X1184763D01*
X1164342Y1169094D02*
X1171437Y1162000D01*
X1232000Y1184500D02*
Y1184500D01*
X1226000Y1168500D02*
Y1178500D01*
X1232000Y1184500D01*
X1219595Y1151875D02*
X1226000Y1158280D01*
Y1168500D01*
X1326579Y1112040D02*
X1337579Y1123040D01*
Y1123790D01*
X1326579Y1111290D02*
Y1112040D01*
Y1110737D02*
Y1111290D01*
X1327466Y1077034D02*
X1335966D01*
X1351645Y672460D02*
X1352145D01*
X1350040D02*
X1351645D01*
X1204378Y589792D02*
X1204792Y589792D01*
X1204322D02*
X1204378Y589792D01*
X1204792Y589792D02*
X1228500Y613500D01*
X1204266Y589799D02*
X1204322Y589792D01*
X1228500Y613500D02*
X1248000D01*
X1341290Y679421D02*
X1343079D01*
X1350040Y672460D01*
X1364645Y659960D02*
X1365145D01*
X1341290Y679421D02*
Y679421D01*
X1354500Y692631D01*
Y699000D01*
X1248000Y613500D02*
X1270500Y636000D01*
X1199725Y590311D02*
X1204266Y589799D01*
X1175500Y590311D02*
X1199725D01*
X854207Y818604D02*
X854500Y818311D01*
X838811Y834000D02*
X854207Y818604D01*
X1083000Y1169689D02*
Y1193311D01*
X1083000Y1193311D02*
X1083000Y1193311D01*
Y1169689D02*
X1083000Y1169689D01*
X1141658Y1194843D02*
X1151468D01*
X1153000Y1193311D01*
Y1169689D02*
Y1193311D01*
X1153594Y1169094D02*
X1164342D01*
X1153000Y1169689D02*
X1153594Y1169094D01*
X1393587Y1037048D02*
X1395865Y1034770D01*
X1343000Y1089135D02*
X1387857Y1044278D01*
Y1032239D02*
X1390135Y1029962D01*
X1387857Y1032239D02*
Y1044278D01*
X1363635Y1045923D02*
X1384405Y1025154D01*
Y1025154D02*
Y1025154D01*
X1363635Y1045923D02*
Y1057962D01*
X1131279Y1165720D02*
Y1168221D01*
X1118000Y1181500D02*
X1131279Y1168221D01*
X1335534Y1079034D02*
X1342562D01*
X1363635Y1057962D02*
X1363635D01*
X1342562Y1079034D02*
X1363635Y1057962D01*
X1335966Y1077034D02*
X1352500Y1060500D01*
Y1044040D02*
Y1060500D01*
Y1044040D02*
X1382790Y1013750D01*
Y992669D02*
Y1013750D01*
Y992669D02*
X1419689Y955770D01*
Y917500D02*
Y955770D01*
Y917500D02*
X1443311D01*
X1443311Y847500D02*
X1444343Y848532D01*
Y858842D01*
X1419689Y847500D02*
X1443311D01*
X1175500Y566689D02*
Y590311D01*
X1132500Y557000D02*
X1165811D01*
X1175500Y566689D01*
X1108969Y563221D02*
X1126280D01*
X1132500Y557000D01*
X1105500Y566689D02*
X1108969Y563221D01*
X1167148Y598000D02*
X1174837Y590311D01*
X1128500Y598000D02*
X1167148D01*
X1174837Y590311D02*
X1175500D01*
X1105500Y590311D02*
X1120811D01*
X1128500Y598000D01*
X815189Y834000D02*
X838811D01*
X801500Y847689D02*
X815189Y834000D01*
X801500Y847689D02*
Y885500D01*
X815189Y899189D02*
Y904000D01*
X801500Y885500D02*
X815189Y899189D01*
Y904000D02*
X838811D01*
X1410500Y747500D02*
Y753828D01*
X1395331Y730501D02*
Y732331D01*
X1410500Y747500D01*
X1388853Y734241D02*
Y735009D01*
X973058Y1151437D02*
X975300Y1153679D01*
X969437Y1151437D02*
X973058D01*
X907500Y1111000D02*
X929500Y1133000D01*
X951000D01*
X969437Y1151437D01*
X942000Y1127500D02*
X956000D01*
X975399Y1146900D01*
X915810Y1101309D02*
X942000Y1127500D01*
X975399Y1146900D02*
X978462D01*
X925000Y1091000D02*
X952500Y1118500D01*
X925000Y1091000D02*
X925000D01*
X952500Y1118500D02*
X956000D01*
X975422Y1137922D01*
X979425D01*
X981623Y1140120D01*
X907500Y1111000D02*
X907500D01*
X833000Y1010000D02*
X867404Y1044404D01*
X823375Y982375D02*
X833000Y992000D01*
Y1010000D01*
X867404Y1044404D02*
Y1046696D01*
X879659Y1035693D02*
Y1038114D01*
X873532Y1039984D02*
Y1042405D01*
X855992Y761989D02*
X859000Y758981D01*
X855992Y761989D02*
Y764919D01*
X848962Y759460D02*
Y762361D01*
X852000Y727131D02*
X885210Y693921D01*
X848962Y759460D02*
X852000Y756423D01*
Y727131D02*
Y756423D01*
X841933Y756931D02*
X845000Y753864D01*
X841933Y756931D02*
Y759802D01*
X1030595Y571375D02*
Y571375D01*
X1412500Y738500D02*
Y753000D01*
X1330500Y656000D02*
Y668000D01*
X1338000Y675500D01*
X1401809Y727809D02*
X1412500Y738500D01*
X1401809Y726761D02*
Y727809D01*
X1230809Y1166749D02*
X1231559Y1166000D01*
X1235394Y1182000D02*
X1237559D01*
X1236809Y1182749D02*
X1237559Y1182000D01*
X1343000Y1089135D02*
Y1095500D01*
X1330500Y1108000D02*
X1343000Y1095500D01*
X1319213Y1095355D02*
X1335534Y1079034D01*
X1318960Y1095355D02*
X1319213D01*
X1341500Y1120500D02*
X1364500Y1097500D01*
D15*
X1287261Y1128691D02*
D03*
X1272259Y1137353D02*
D03*
X1291001Y1135169D02*
D03*
X1275999Y1143831D02*
D03*
X1294741Y1141647D02*
D03*
X1279739Y1150309D02*
D03*
X946739Y644809D02*
D03*
X961741Y636147D02*
D03*
X942999Y638331D02*
D03*
X958001Y629669D02*
D03*
X939259Y631852D02*
D03*
X954261Y623191D02*
D03*
D16*
X999000Y1148000D02*
D03*
X983300Y1140679D02*
D03*
X995839Y1154779D02*
D03*
X980139Y1147458D02*
D03*
X992677Y1161559D02*
D03*
X976978Y1154238D02*
D03*
D17*
X1142000Y578500D02*
D03*
X1118000Y1181500D02*
D03*
D18*
X1271759Y621147D02*
D03*
X1286761Y629809D02*
D03*
X1275499Y614669D02*
D03*
X1290501Y623331D02*
D03*
X1279239Y608191D02*
D03*
X1294241Y616853D02*
D03*
D19*
X1380191Y719239D02*
D03*
X1388853Y734241D02*
D03*
X1386669Y715499D02*
D03*
X1395331Y730501D02*
D03*
X1393147Y711759D02*
D03*
X1401809Y726761D02*
D03*
D20*
X1195786Y1166468D02*
D03*
X1191263Y1192135D02*
D03*
X1199862Y1181679D02*
D03*
X1183111Y1161712D02*
D03*
D21*
X1430000Y883000D02*
D03*
X827000Y869000D02*
D03*
D22*
X1395539Y1011884D02*
D03*
X1384405Y1025154D02*
D03*
X1401270Y1016692D02*
D03*
X1390135Y1029962D02*
D03*
X1407000Y1021500D02*
D03*
X1395865Y1034770D02*
D03*
D23*
X889596Y1052305D02*
D03*
X879659Y1038114D02*
D03*
X883468Y1056595D02*
D03*
X873532Y1042405D02*
D03*
X877340Y1060886D02*
D03*
X867404Y1046696D02*
D03*
D24*
X850067Y781198D02*
D03*
X855992Y764919D02*
D03*
X843038Y778639D02*
D03*
X848962Y762361D02*
D03*
X836008Y776081D02*
D03*
X841933Y759802D02*
D03*
D25*
X1363645Y660960D02*
D03*
X1360355Y657040D02*
D03*
X1351645Y672460D02*
D03*
X1348355Y668540D02*
D03*
X1341290Y679421D02*
D03*
X1338000Y675500D02*
D03*
D26*
X877500Y681500D02*
D03*
X874210Y685421D02*
D03*
X888500Y690000D02*
D03*
X885210Y693921D02*
D03*
X900645Y698540D02*
D03*
X897355Y702460D02*
D03*
D27*
X823375Y980405D02*
D03*
X821625Y975595D02*
D03*
X840751Y973309D02*
D03*
X839000Y968500D02*
D03*
X854875Y969405D02*
D03*
X853125Y964595D02*
D03*
D28*
X921381Y1087381D02*
D03*
X925000Y1091000D02*
D03*
X912190Y1097690D02*
D03*
X915810Y1101309D02*
D03*
X903881Y1107381D02*
D03*
X907500Y1111000D02*
D03*
D29*
X1040405Y600125D02*
D03*
X1035595Y601875D02*
D03*
X1036809Y590750D02*
D03*
X1032000Y592500D02*
D03*
X1035405Y569625D02*
D03*
X1030595Y571375D02*
D03*
X1219595Y1151875D02*
D03*
X1224405Y1150125D02*
D03*
X1226000Y1168500D02*
D03*
X1230809Y1166749D02*
D03*
X1232000Y1184500D02*
D03*
X1236809Y1182749D02*
D03*
D30*
X1413444Y809520D02*
D03*
X1412556Y804480D02*
D03*
X1427889Y808040D02*
D03*
X1427000Y803000D02*
D03*
X1441889Y806540D02*
D03*
X1441000Y801500D02*
D03*
D31*
X1315040Y1098645D02*
D03*
X1318960Y1095355D02*
D03*
X1326579Y1111290D02*
D03*
X1330500Y1108000D02*
D03*
X1337579Y1123790D02*
D03*
X1341500Y1120500D02*
D03*
D51*
X1107000Y566689D02*
D03*
X1107000Y590311D02*
D03*
X1177000Y590311D02*
D03*
Y566689D02*
D03*
X1083000Y1169689D02*
D03*
X1083000Y1193311D02*
D03*
X1153000Y1193311D02*
D03*
Y1169689D02*
D03*
X1418189Y918000D02*
D03*
X1441811D02*
D03*
X1441811Y848000D02*
D03*
X1418189D02*
D03*
X815189Y904000D02*
D03*
X838811D02*
D03*
X838811Y834000D02*
D03*
X815189D02*
D03*
D52*
X1440000Y960000D02*
D03*
X1445000Y950000D02*
D03*
X1440000Y940000D02*
D03*
X1445000Y830000D02*
D03*
X1440000Y820000D02*
D03*
X1430000Y1000000D02*
D03*
Y980000D02*
D03*
X1435000Y970000D02*
D03*
X1430000Y960000D02*
D03*
X1435000Y950000D02*
D03*
X1430000Y940000D02*
D03*
X1435000Y930000D02*
D03*
X1430000Y840000D02*
D03*
X1435000Y830000D02*
D03*
X1430000Y820000D02*
D03*
Y780000D02*
D03*
X1435000Y770000D02*
D03*
X1430000Y760000D02*
D03*
X1420000Y1020000D02*
D03*
X1425000Y1010000D02*
D03*
X1420000Y1000000D02*
D03*
X1425000Y990000D02*
D03*
Y950000D02*
D03*
Y930000D02*
D03*
Y830000D02*
D03*
X1420000Y820000D02*
D03*
X1425000Y750000D02*
D03*
X1420000Y740000D02*
D03*
X1410000Y1040000D02*
D03*
X1415000Y1030000D02*
D03*
Y1010000D02*
D03*
X1410000Y1000000D02*
D03*
X1415000Y990000D02*
D03*
Y830000D02*
D03*
X1410000Y800000D02*
D03*
X1415000Y790000D02*
D03*
X1410000Y780000D02*
D03*
X1415000Y770000D02*
D03*
Y730000D02*
D03*
X1410000Y720000D02*
D03*
X1405000Y1050000D02*
D03*
X1400000Y1040000D02*
D03*
X1405000Y1030000D02*
D03*
X1400000Y1000000D02*
D03*
X1405000Y990000D02*
D03*
Y710000D02*
D03*
X1400000Y700000D02*
D03*
X1390000Y1060000D02*
D03*
Y1000000D02*
D03*
X1395000Y990000D02*
D03*
X1390000Y700000D02*
D03*
X1380000Y1080000D02*
D03*
X1385000Y1070000D02*
D03*
X1380000Y1040000D02*
D03*
Y700000D02*
D03*
X1385000Y690000D02*
D03*
X1380000Y680000D02*
D03*
X1375000Y1090000D02*
D03*
X1370000Y1080000D02*
D03*
X1375000Y1050000D02*
D03*
X1370000Y720000D02*
D03*
X1375000Y710000D02*
D03*
X1370000Y700000D02*
D03*
X1375000Y690000D02*
D03*
Y670000D02*
D03*
X1370000Y660000D02*
D03*
X1365000Y710000D02*
D03*
X1360000Y700000D02*
D03*
Y680000D02*
D03*
X1350000D02*
D03*
Y640000D02*
D03*
X1345000Y690000D02*
D03*
X1335000Y1130000D02*
D03*
X1330000Y1100000D02*
D03*
X1335000Y1090000D02*
D03*
Y1070000D02*
D03*
X1320000Y1140000D02*
D03*
X1325000Y1130000D02*
D03*
X1320000Y1120000D02*
D03*
X1325000Y670000D02*
D03*
X1320000Y660000D02*
D03*
X1310000Y1140000D02*
D03*
X1315000Y1130000D02*
D03*
X1310000Y1100000D02*
D03*
X1315000Y650000D02*
D03*
X1310000Y620000D02*
D03*
X1305000Y1150000D02*
D03*
X1300000Y1120000D02*
D03*
X1305000Y1110000D02*
D03*
Y650000D02*
D03*
X1300000Y640000D02*
D03*
X1305000Y610000D02*
D03*
X1290000Y1120000D02*
D03*
X1295000Y610000D02*
D03*
X1290000Y600000D02*
D03*
X1285000Y1110000D02*
D03*
X1280000Y600000D02*
D03*
X1275000Y1130000D02*
D03*
X1270000Y1120000D02*
D03*
X1275000Y630000D02*
D03*
Y590000D02*
D03*
X1260000Y620000D02*
D03*
X1265000Y610000D02*
D03*
X1260000Y600000D02*
D03*
X1265000Y590000D02*
D03*
X1250000Y1160000D02*
D03*
X1255000Y1150000D02*
D03*
Y610000D02*
D03*
X1250000Y600000D02*
D03*
X1240000Y1160000D02*
D03*
X1245000Y1150000D02*
D03*
X1230000Y1160000D02*
D03*
X1235000Y1150000D02*
D03*
X1225000Y1190000D02*
D03*
X1220000Y1180000D02*
D03*
X1225000Y570000D02*
D03*
X1215000Y1190000D02*
D03*
Y1170000D02*
D03*
Y590000D02*
D03*
Y570000D02*
D03*
X1205000Y1190000D02*
D03*
Y1170000D02*
D03*
X1200000Y1160000D02*
D03*
X1205000Y570000D02*
D03*
X1195000D02*
D03*
X1190000Y560000D02*
D03*
X1180000Y1200000D02*
D03*
X1185000Y1170000D02*
D03*
X1170000Y1200000D02*
D03*
X1175000Y1190000D02*
D03*
Y1170000D02*
D03*
X1130000Y1200000D02*
D03*
X1135000Y1190000D02*
D03*
Y1170000D02*
D03*
X1130000Y1160000D02*
D03*
X1120000Y1200000D02*
D03*
Y1160000D02*
D03*
X1110000Y1200000D02*
D03*
Y1160000D02*
D03*
X1100000D02*
D03*
X1090000Y560000D02*
D03*
X1085000Y570000D02*
D03*
X1080000Y560000D02*
D03*
X1070000Y1160000D02*
D03*
Y560000D02*
D03*
X1065000Y1190000D02*
D03*
X1060000Y1180000D02*
D03*
X1065000Y1170000D02*
D03*
X1060000Y1160000D02*
D03*
Y580000D02*
D03*
Y560000D02*
D03*
X1055000Y1190000D02*
D03*
X1050000Y1180000D02*
D03*
X1055000Y1150000D02*
D03*
X1045000Y1190000D02*
D03*
X1040000Y1180000D02*
D03*
X1045000Y1170000D02*
D03*
Y1150000D02*
D03*
Y590000D02*
D03*
X1040000Y580000D02*
D03*
X1045000Y570000D02*
D03*
X1035000Y1190000D02*
D03*
X1030000Y1180000D02*
D03*
Y1140000D02*
D03*
X1020000Y1180000D02*
D03*
Y1160000D02*
D03*
X1025000Y1150000D02*
D03*
X1020000Y1140000D02*
D03*
X1025000Y570000D02*
D03*
X1010000Y1180000D02*
D03*
X1015000Y1170000D02*
D03*
X1010000Y1160000D02*
D03*
X1015000Y1150000D02*
D03*
Y610000D02*
D03*
X1010000Y580000D02*
D03*
X1005000Y1170000D02*
D03*
Y1130000D02*
D03*
Y590000D02*
D03*
X1000000Y580000D02*
D03*
X995000Y1170000D02*
D03*
Y1130000D02*
D03*
X990000Y600000D02*
D03*
X995000Y590000D02*
D03*
X985000Y1170000D02*
D03*
X980000Y1120000D02*
D03*
X985000Y610000D02*
D03*
X980000Y600000D02*
D03*
X985000Y590000D02*
D03*
X970000Y1160000D02*
D03*
X975000Y1130000D02*
D03*
X970000Y640000D02*
D03*
X975000Y610000D02*
D03*
X970000Y600000D02*
D03*
X975000Y590000D02*
D03*
X965000Y610000D02*
D03*
X960000Y600000D02*
D03*
X955000Y1150000D02*
D03*
X950000Y1140000D02*
D03*
X955000Y1110000D02*
D03*
Y650000D02*
D03*
Y610000D02*
D03*
X940000Y1140000D02*
D03*
Y1120000D02*
D03*
Y1100000D02*
D03*
Y660000D02*
D03*
Y620000D02*
D03*
X945000Y610000D02*
D03*
X935000Y1110000D02*
D03*
Y1090000D02*
D03*
X930000Y660000D02*
D03*
Y640000D02*
D03*
Y620000D02*
D03*
X920000Y1080000D02*
D03*
Y640000D02*
D03*
X925000Y630000D02*
D03*
X910000Y1120000D02*
D03*
X915000Y1110000D02*
D03*
X910000Y680000D02*
D03*
X915000Y650000D02*
D03*
X910000Y640000D02*
D03*
X900000Y1100000D02*
D03*
X905000Y1090000D02*
D03*
X900000Y1080000D02*
D03*
X905000Y1070000D02*
D03*
X900000Y1060000D02*
D03*
Y1040000D02*
D03*
X905000Y690000D02*
D03*
X900000Y680000D02*
D03*
X905000Y650000D02*
D03*
X890000Y1100000D02*
D03*
X895000Y1090000D02*
D03*
X890000Y1080000D02*
D03*
X895000Y1070000D02*
D03*
Y1050000D02*
D03*
X890000Y1040000D02*
D03*
X895000Y710000D02*
D03*
Y690000D02*
D03*
X890000Y680000D02*
D03*
X895000Y670000D02*
D03*
X890000Y660000D02*
D03*
X895000Y650000D02*
D03*
X885000Y1090000D02*
D03*
X880000Y1080000D02*
D03*
X885000Y1070000D02*
D03*
Y1030000D02*
D03*
X880000Y720000D02*
D03*
X885000Y670000D02*
D03*
X875000Y1070000D02*
D03*
X870000Y1060000D02*
D03*
Y1020000D02*
D03*
Y1000000D02*
D03*
Y760000D02*
D03*
X875000Y750000D02*
D03*
Y730000D02*
D03*
X870000Y680000D02*
D03*
X865000Y1070000D02*
D03*
X860000Y1060000D02*
D03*
X865000Y1010000D02*
D03*
Y990000D02*
D03*
X860000Y800000D02*
D03*
Y780000D02*
D03*
X865000Y690000D02*
D03*
X855000Y1050000D02*
D03*
X850000Y1040000D02*
D03*
Y1000000D02*
D03*
Y980000D02*
D03*
X855000Y950000D02*
D03*
X850000Y920000D02*
D03*
Y800000D02*
D03*
X845000Y1030000D02*
D03*
Y970000D02*
D03*
X840000Y960000D02*
D03*
Y920000D02*
D03*
X845000Y890000D02*
D03*
Y870000D02*
D03*
Y850000D02*
D03*
X840000Y820000D02*
D03*
X845000Y810000D02*
D03*
X840000Y800000D02*
D03*
X845000Y790000D02*
D03*
Y770000D02*
D03*
X830000Y980000D02*
D03*
Y960000D02*
D03*
X835000Y930000D02*
D03*
Y890000D02*
D03*
Y850000D02*
D03*
Y810000D02*
D03*
Y790000D02*
D03*
X825000Y990000D02*
D03*
Y970000D02*
D03*
X820000Y960000D02*
D03*
X825000Y930000D02*
D03*
X820000Y920000D02*
D03*
Y820000D02*
D03*
Y800000D02*
D03*
Y780000D02*
D03*
X815000Y970000D02*
D03*
Y950000D02*
D03*
X810000Y940000D02*
D03*
X815000Y930000D02*
D03*
X810000Y920000D02*
D03*
X815000Y890000D02*
D03*
X810000Y880000D02*
D03*
Y860000D02*
D03*
X815000Y850000D02*
D03*
X810000Y820000D02*
D03*
X815000Y810000D02*
D03*
Y790000D02*
D03*
D53*
X926000Y652000D02*
D03*
X1413222Y817778D02*
D03*
X1062000Y568000D02*
D03*
X1054000Y595000D02*
D03*
X1310000Y1114500D02*
D03*
X848000Y932000D02*
D03*
X920000Y1067500D02*
D03*
X1208500Y1157500D02*
D03*
X1354500Y699000D02*
D03*
D54*
X1189443Y1164091D02*
D03*
X1197595Y1194514D02*
D03*
M02*
