G04*
G04 #@! TF.GenerationSoftware,Altium Limited,Altium Designer,22.9.1 (49)*
G04*
G04 Layer_Color=16711935*
%FSLAX25Y25*%
%MOIN*%
G70*
G04*
G04 #@! TF.SameCoordinates,8A5C06B3-4C5D-48ED-891A-8E98A4BE319D*
G04*
G04*
G04 #@! TF.FilePolarity,Positive*
G04*
G01*
G75*
%ADD10C,0.00787*%
%ADD12C,0.00394*%
D10*
X1270055Y1135897D02*
X1279897Y1152945D01*
X1270055Y1135897D02*
X1287103Y1126055D01*
X1296945Y1143103D01*
X1279897Y1152945D02*
X1296945Y1143103D01*
X974909Y1155880D02*
X983228Y1138039D01*
X1001069Y1146358D01*
X992750Y1164199D02*
X1001069Y1146358D01*
X974909Y1155880D02*
X992750Y1164199D01*
X954103Y620555D02*
X963945Y637603D01*
X946897Y647445D02*
X963945Y637603D01*
X937055Y630397D02*
X946897Y647445D01*
X937055Y630397D02*
X954103Y620555D01*
X1286603Y632445D02*
X1296445Y615397D01*
X1269555Y622603D02*
X1286603Y632445D01*
X1269555Y622603D02*
X1279397Y605555D01*
X1296445Y615397D01*
X1387397Y736445D02*
X1404445Y726603D01*
X1377555Y719397D02*
X1387397Y736445D01*
X1377555Y719397D02*
X1394603Y709555D01*
X1404445Y726603D01*
X1381836Y1024540D02*
X1396915Y1037193D01*
X1381836Y1024540D02*
X1394489Y1009460D01*
X1409569Y1022114D01*
X1396915Y1037193D02*
X1409569Y1022114D01*
X864792Y1047083D02*
X880917Y1035792D01*
X892208Y1051917D01*
X876083Y1063208D02*
X892208Y1051917D01*
X864792Y1047083D02*
X876083Y1063208D01*
X840117Y757885D02*
X858615Y764617D01*
X851883Y783115D02*
X858615Y764617D01*
X833385Y776383D02*
X851883Y783115D01*
X833385Y776383D02*
X840117Y757885D01*
D12*
X1362782Y662841D02*
X1365647Y660437D01*
X1358353Y657563D02*
X1361218Y655159D01*
X1365647Y660437D01*
X1358353Y657563D02*
X1362782Y662841D01*
X1350782Y674341D02*
X1353647Y671937D01*
X1346353Y669063D02*
X1349218Y666659D01*
X1353647Y671937D01*
X1346353Y669063D02*
X1350782Y674341D01*
X1340427Y681301D02*
X1343292Y678897D01*
X1335998Y676023D02*
X1338863Y673619D01*
X1343292Y678897D01*
X1335998Y676023D02*
X1340427Y681301D01*
X876637Y679619D02*
X879502Y682023D01*
X872208Y684897D02*
X875073Y687301D01*
X872208Y684897D02*
X876637Y679619D01*
X875073Y687301D02*
X879502Y682023D01*
X887637Y688119D02*
X890502Y690523D01*
X883208Y693397D02*
X886073Y695801D01*
X883208Y693397D02*
X887637Y688119D01*
X886073Y695801D02*
X890502Y690523D01*
X899782Y696659D02*
X902647Y699063D01*
X895353Y701937D02*
X898218Y704341D01*
X895353Y701937D02*
X899782Y696659D01*
X898218Y704341D02*
X902647Y699063D01*
X823079Y974123D02*
X825436Y980597D01*
X819565Y975402D02*
X821921Y981877D01*
X825436Y980597D01*
X819565Y975402D02*
X823079Y974123D01*
X840454Y967028D02*
X842811Y973502D01*
X836940Y968307D02*
X839296Y974781D01*
X842811Y973502D01*
X836940Y968307D02*
X840454Y967028D01*
X854579Y963123D02*
X856936Y969598D01*
X851064Y964402D02*
X853421Y970877D01*
X856936Y969598D01*
X851064Y964402D02*
X854579Y963123D01*
X919432Y1088077D02*
X922077Y1085432D01*
X924304Y1092949D02*
X926949Y1090304D01*
X919432Y1088077D02*
X924304Y1092949D01*
X922077Y1085432D02*
X926949Y1090304D01*
X910242Y1098386D02*
X912887Y1095742D01*
X915114Y1103258D02*
X917758Y1100613D01*
X910242Y1098386D02*
X915114Y1103258D01*
X912887Y1095742D02*
X917758Y1100613D01*
X901932Y1108077D02*
X904577Y1105432D01*
X906804Y1112949D02*
X909449Y1110304D01*
X901932Y1108077D02*
X906804Y1112949D01*
X904577Y1105432D02*
X909449Y1110304D01*
X1040598Y598065D02*
X1041877Y601579D01*
X1034123Y600421D02*
X1035402Y603935D01*
X1034123Y600421D02*
X1040598Y598065D01*
X1035402Y603935D02*
X1041877Y601579D01*
X1037002Y588689D02*
X1038281Y592204D01*
X1030528Y591046D02*
X1031807Y594560D01*
X1030528Y591046D02*
X1037002Y588689D01*
X1031807Y594560D02*
X1038281Y592204D01*
X1035598Y567564D02*
X1036877Y571079D01*
X1029123Y569921D02*
X1030402Y573435D01*
X1029123Y569921D02*
X1035598Y567564D01*
X1030402Y573435D02*
X1036877Y571079D01*
X1411757Y810717D02*
X1415440Y810068D01*
X1410560Y803932D02*
X1414244Y803283D01*
X1415440Y810068D01*
X1410560Y803932D02*
X1411757Y810717D01*
X1426201Y809237D02*
X1429884Y808588D01*
X1425004Y802452D02*
X1428688Y801803D01*
X1429884Y808588D01*
X1425004Y802452D02*
X1426201Y809237D01*
X1313159Y1097782D02*
X1315563Y1100647D01*
X1318437Y1093353D02*
X1320841Y1096218D01*
X1315563Y1100647D02*
X1320841Y1096218D01*
X1313159Y1097782D02*
X1318437Y1093353D01*
X1440201Y807738D02*
X1443884Y807088D01*
X1439005Y800952D02*
X1442688Y800303D01*
X1443884Y807088D01*
X1439005Y800952D02*
X1440201Y807738D01*
X1324699Y1110427D02*
X1327103Y1113292D01*
X1329976Y1105998D02*
X1332381Y1108863D01*
X1327103Y1113292D02*
X1332381Y1108863D01*
X1324699Y1110427D02*
X1329976Y1105998D01*
X1335699Y1122927D02*
X1338103Y1125792D01*
X1340977Y1118498D02*
X1343381Y1121363D01*
X1338103Y1125792D02*
X1343381Y1121363D01*
X1335699Y1122927D02*
X1340977Y1118498D01*
X1218123Y1150421D02*
X1219402Y1153936D01*
X1224597Y1148065D02*
X1225877Y1151579D01*
X1219402Y1153936D02*
X1225877Y1151579D01*
X1218123Y1150421D02*
X1224597Y1148065D01*
X1224528Y1167046D02*
X1225807Y1170560D01*
X1231002Y1164689D02*
X1232281Y1168204D01*
X1225807Y1170560D02*
X1232281Y1168204D01*
X1224528Y1167046D02*
X1231002Y1164689D01*
X1230528Y1183046D02*
X1231807Y1186560D01*
X1237002Y1180689D02*
X1238281Y1184204D01*
X1231807Y1186560D02*
X1238281Y1184204D01*
X1230528Y1183046D02*
X1237002Y1180689D01*
M02*
