G04*
G04 #@! TF.GenerationSoftware,Altium Limited,Altium Designer,22.9.1 (49)*
G04*
G04 Layer_Physical_Order=2*
G04 Layer_Color=16711680*
%FSLAX25Y25*%
%MOIN*%
G70*
G04*
G04 #@! TF.SameCoordinates,8A5C06B3-4C5D-48ED-891A-8E98A4BE319D*
G04*
G04*
G04 #@! TF.FilePolarity,Positive*
G04*
G01*
G75*
%ADD14C,0.01000*%
%ADD51C,0.19685*%
%ADD52C,0.03937*%
%ADD53C,0.05000*%
%ADD54C,0.03543*%
G36*
X1138716Y1206834D02*
X1149919Y1206260D01*
X1161096Y1205303D01*
X1172234Y1203965D01*
X1183320Y1202248D01*
X1194341Y1200154D01*
X1205283Y1197684D01*
X1216135Y1194843D01*
X1226884Y1191632D01*
X1237516Y1188057D01*
X1248021Y1184120D01*
X1258385Y1179827D01*
X1268596Y1175183D01*
X1278643Y1170193D01*
X1288514Y1164863D01*
X1298197Y1159198D01*
X1307680Y1153207D01*
X1316954Y1146895D01*
X1326007Y1140271D01*
X1334828Y1133341D01*
X1343408Y1126114D01*
X1351736Y1118598D01*
X1359803Y1110803D01*
X1367598Y1102736D01*
X1375114Y1094408D01*
X1382341Y1085828D01*
X1389271Y1077007D01*
X1395895Y1067954D01*
X1402207Y1058680D01*
X1408199Y1049197D01*
X1413863Y1039514D01*
X1419193Y1029643D01*
X1424183Y1019596D01*
X1428827Y1009385D01*
X1433120Y999021D01*
X1437057Y988517D01*
X1440632Y977884D01*
X1443843Y967135D01*
X1446684Y956283D01*
X1449154Y945341D01*
X1451248Y934320D01*
X1452966Y923234D01*
X1454303Y912096D01*
X1455260Y900919D01*
X1455834Y889716D01*
X1456025Y878500D01*
X1455834Y867284D01*
X1455260Y856081D01*
X1454303Y844904D01*
X1452966Y833766D01*
X1451248Y822680D01*
X1449154Y811660D01*
X1446684Y800717D01*
X1443843Y789865D01*
X1440632Y779116D01*
X1437057Y768483D01*
X1433120Y757979D01*
X1428827Y747615D01*
X1424183Y737404D01*
X1419193Y727357D01*
X1413863Y717486D01*
X1408199Y707803D01*
X1402207Y698320D01*
X1395895Y689046D01*
X1389271Y679993D01*
X1382341Y671172D01*
X1375114Y662592D01*
X1367598Y654264D01*
X1359803Y646197D01*
X1351736Y638402D01*
X1343408Y630886D01*
X1334828Y623659D01*
X1326007Y616729D01*
X1316954Y610105D01*
X1307680Y603793D01*
X1298197Y597801D01*
X1288514Y592137D01*
X1278643Y586807D01*
X1268596Y581817D01*
X1258385Y577173D01*
X1248021Y572880D01*
X1237516Y568943D01*
X1226884Y565368D01*
X1216135Y562157D01*
X1205283Y559315D01*
X1194341Y556846D01*
X1183320Y554751D01*
X1172234Y553034D01*
X1161096Y551697D01*
X1149919Y550740D01*
X1138716Y550166D01*
X1127500Y549975D01*
X1116284Y550166D01*
X1105081Y550740D01*
X1093904Y551697D01*
X1082766Y553034D01*
X1071680Y554751D01*
X1060660Y556846D01*
X1049717Y559315D01*
X1038865Y562157D01*
X1028116Y565368D01*
X1017484Y568943D01*
X1006979Y572880D01*
X996615Y577173D01*
X986404Y581817D01*
X976357Y586807D01*
X966486Y592137D01*
X956803Y597801D01*
X947320Y603793D01*
X938046Y610105D01*
X928993Y616729D01*
X920172Y623659D01*
X911592Y630886D01*
X903264Y638402D01*
X895197Y646197D01*
X887402Y654264D01*
X879886Y662592D01*
X872659Y671172D01*
X865729Y679993D01*
X859105Y689046D01*
X852793Y698320D01*
X846801Y707803D01*
X841137Y717486D01*
X835807Y727357D01*
X830817Y737404D01*
X826173Y747615D01*
X821880Y757979D01*
X817943Y768483D01*
X814368Y779116D01*
X811157Y789865D01*
X808315Y800717D01*
X805846Y811660D01*
X803751Y822680D01*
X802034Y833766D01*
X800697Y844904D01*
X799740Y856081D01*
X799166Y867284D01*
X798975Y878500D01*
X799166Y889716D01*
X799740Y900919D01*
X800697Y912096D01*
X802034Y923234D01*
X803751Y934320D01*
X805846Y945341D01*
X808315Y956283D01*
X811157Y967135D01*
X814368Y977884D01*
X817943Y988517D01*
X821880Y999021D01*
X826173Y1009385D01*
X830817Y1019596D01*
X835807Y1029643D01*
X841137Y1039514D01*
X846801Y1049197D01*
X852793Y1058680D01*
X859105Y1067954D01*
X865729Y1077007D01*
X872659Y1085828D01*
X879886Y1094408D01*
X887402Y1102736D01*
X895197Y1110803D01*
X903264Y1118598D01*
X911592Y1126114D01*
X920172Y1133341D01*
X928993Y1140271D01*
X938046Y1146895D01*
X947320Y1153207D01*
X956803Y1159198D01*
X966486Y1164863D01*
X976357Y1170193D01*
X986404Y1175183D01*
X996615Y1179827D01*
X1006979Y1184120D01*
X1017484Y1188057D01*
X1028116Y1191632D01*
X1038865Y1194843D01*
X1049717Y1197684D01*
X1060660Y1200154D01*
X1071680Y1202248D01*
X1077270Y1203114D01*
X1077423Y1202639D01*
X1077317Y1202584D01*
X1075937Y1201581D01*
X1074730Y1200374D01*
X1073727Y1198994D01*
X1072952Y1197473D01*
X1072425Y1195850D01*
X1072157Y1194164D01*
Y1192458D01*
X1072425Y1190772D01*
X1072952Y1189149D01*
X1073727Y1187628D01*
X1074730Y1186248D01*
X1075937Y1185041D01*
X1077317Y1184038D01*
X1078838Y1183263D01*
X1079459Y1183061D01*
X1079380Y1182561D01*
X1068532D01*
X1067946Y1182444D01*
X1067450Y1182113D01*
X1031866Y1146529D01*
X1018768D01*
X1018501Y1146476D01*
X1018233Y1146433D01*
X987933Y1135131D01*
X987909Y1135117D01*
X987882Y1135112D01*
X987656Y1134960D01*
X987425Y1134818D01*
X987409Y1134795D01*
X987386Y1134780D01*
X922799Y1070194D01*
X922256D01*
X922149Y1070301D01*
X921351Y1070761D01*
X920461Y1071000D01*
X919539D01*
X918649Y1070761D01*
X917851Y1070301D01*
X917199Y1069649D01*
X916739Y1068851D01*
X916500Y1067961D01*
Y1067039D01*
X916739Y1066149D01*
X917199Y1065351D01*
X917851Y1064699D01*
X918649Y1064238D01*
X919539Y1064000D01*
X920461D01*
X921351Y1064238D01*
X921884Y1064546D01*
X922203Y1064153D01*
X917666Y1059076D01*
X911061Y1051104D01*
X904758Y1042891D01*
X898767Y1034447D01*
X893096Y1025786D01*
X887753Y1016918D01*
X882745Y1007857D01*
X878080Y998615D01*
X873763Y989204D01*
X869801Y979640D01*
X866199Y969933D01*
X862963Y960099D01*
X860097Y950150D01*
X857605Y940102D01*
X855490Y929967D01*
X853756Y919760D01*
X852405Y909496D01*
X851438Y899188D01*
X850858Y888851D01*
X850664Y878500D01*
X850858Y868149D01*
X851438Y857812D01*
X852405Y847504D01*
X853756Y837240D01*
X855490Y827033D01*
X857605Y816898D01*
X860097Y806850D01*
X862963Y796901D01*
X866199Y787067D01*
X869801Y777360D01*
X873763Y767796D01*
X878080Y758386D01*
X882745Y749143D01*
X887753Y740082D01*
X893096Y731215D01*
X898767Y722553D01*
X904758Y714109D01*
X911061Y705896D01*
X917666Y697924D01*
X919513Y695857D01*
X919150Y695513D01*
X919081Y695581D01*
X918585Y695913D01*
X918000Y696029D01*
X876134D01*
X842859Y729304D01*
X842812Y729371D01*
X828998Y759647D01*
Y828306D01*
X829484Y828423D01*
X829538Y828317D01*
X830541Y826937D01*
X831748Y825730D01*
X833128Y824727D01*
X834649Y823952D01*
X836272Y823425D01*
X837958Y823158D01*
X839664D01*
X841350Y823425D01*
X842973Y823952D01*
X844494Y824727D01*
X845875Y825730D01*
X847081Y826937D01*
X848084Y828317D01*
X848859Y829838D01*
X849387Y831461D01*
X849654Y833147D01*
Y834853D01*
X849387Y836539D01*
X848859Y838162D01*
X848084Y839683D01*
X847081Y841063D01*
X845875Y842270D01*
X844494Y843273D01*
X842973Y844048D01*
X841350Y844576D01*
X839664Y844843D01*
X837958D01*
X836272Y844576D01*
X834649Y844048D01*
X833128Y843273D01*
X831748Y842270D01*
X830541Y841063D01*
X829538Y839683D01*
X829484Y839577D01*
X828998Y839694D01*
Y898306D01*
X829484Y898422D01*
X829538Y898317D01*
X830541Y896937D01*
X831748Y895730D01*
X833128Y894727D01*
X834649Y893952D01*
X836272Y893425D01*
X837958Y893157D01*
X839664D01*
X841350Y893425D01*
X842973Y893952D01*
X844494Y894727D01*
X845874Y895730D01*
X847081Y896937D01*
X848084Y898317D01*
X848859Y899838D01*
X849387Y901461D01*
X849654Y903147D01*
Y904853D01*
X849387Y906539D01*
X848859Y908162D01*
X848084Y909683D01*
X847081Y911063D01*
X845874Y912270D01*
X844494Y913273D01*
X842973Y914048D01*
X841350Y914575D01*
X839664Y914843D01*
X837958D01*
X836272Y914575D01*
X834649Y914048D01*
X833128Y913273D01*
X831748Y912270D01*
X830541Y911063D01*
X829538Y909683D01*
X829484Y909578D01*
X828998Y909694D01*
Y915835D01*
X843633Y930471D01*
X844841D01*
X845199Y929851D01*
X845851Y929199D01*
X846649Y928738D01*
X847539Y928500D01*
X848461D01*
X849351Y928738D01*
X850149Y929199D01*
X850801Y929851D01*
X851262Y930649D01*
X851500Y931539D01*
Y932461D01*
X851262Y933351D01*
X850801Y934149D01*
X850149Y934801D01*
X849351Y935262D01*
X848461Y935500D01*
X847539D01*
X846649Y935262D01*
X845851Y934801D01*
X845199Y934149D01*
X844841Y933529D01*
X843000D01*
X842415Y933413D01*
X841919Y933081D01*
X826387Y917550D01*
X826056Y917054D01*
X825939Y916469D01*
Y907620D01*
X825439Y907541D01*
X825237Y908162D01*
X824462Y909683D01*
X823459Y911063D01*
X822252Y912270D01*
X820872Y913273D01*
X819351Y914048D01*
X817728Y914575D01*
X816042Y914843D01*
X814336D01*
X812650Y914575D01*
X811027Y914048D01*
X809506Y913273D01*
X808126Y912270D01*
X806919Y911063D01*
X805916Y909683D01*
X805141Y908162D01*
X804613Y906539D01*
X804346Y904853D01*
Y903147D01*
X804613Y901461D01*
X805141Y899838D01*
X805916Y898317D01*
X806919Y896937D01*
X808126Y895730D01*
X809506Y894727D01*
X811027Y893952D01*
X812650Y893425D01*
X814336Y893157D01*
X816042D01*
X817728Y893425D01*
X819351Y893952D01*
X820872Y894727D01*
X822252Y895730D01*
X823459Y896937D01*
X824462Y898317D01*
X825237Y899838D01*
X825439Y900459D01*
X825939Y900380D01*
Y837620D01*
X825439Y837541D01*
X825237Y838162D01*
X824462Y839683D01*
X823459Y841063D01*
X822252Y842270D01*
X820872Y843273D01*
X819351Y844048D01*
X817728Y844576D01*
X816042Y844843D01*
X814336D01*
X812650Y844576D01*
X811027Y844048D01*
X809506Y843273D01*
X808126Y842270D01*
X806919Y841063D01*
X805916Y839683D01*
X805141Y838162D01*
X804613Y836539D01*
X804346Y834853D01*
Y833147D01*
X804613Y831461D01*
X805141Y829838D01*
X805916Y828317D01*
X806919Y826937D01*
X808126Y825730D01*
X809506Y824727D01*
X811027Y823952D01*
X812650Y823425D01*
X814336Y823158D01*
X816042D01*
X817728Y823425D01*
X819351Y823952D01*
X820872Y824727D01*
X822252Y825730D01*
X823459Y826937D01*
X824462Y828317D01*
X825237Y829838D01*
X825439Y830459D01*
X825939Y830380D01*
Y759526D01*
X825939Y759526D01*
X825939Y759526D01*
X825939Y759315D01*
X825945Y759288D01*
X825940Y759261D01*
X826003Y758996D01*
X826056Y758729D01*
X826071Y758707D01*
X826077Y758680D01*
X840086Y727977D01*
X840166Y727866D01*
X840221Y727740D01*
X840373Y727521D01*
X840373Y727521D01*
X840373Y727521D01*
X840424Y727448D01*
X840523Y727352D01*
X840599Y727238D01*
X874419Y693419D01*
X874915Y693087D01*
X875500Y692971D01*
X917367D01*
X924471Y685866D01*
Y655159D01*
X923851Y654801D01*
X923199Y654149D01*
X922738Y653351D01*
X922500Y652461D01*
Y651539D01*
X922738Y650649D01*
X923199Y649851D01*
X923851Y649199D01*
X924649Y648738D01*
X925539Y648500D01*
X926461D01*
X927351Y648738D01*
X928149Y649199D01*
X928162Y649213D01*
X1021658Y615179D01*
X1025919Y610919D01*
X1026415Y610587D01*
X1027000Y610471D01*
X1036366D01*
X1050685Y596152D01*
X1050500Y595461D01*
Y594539D01*
X1050739Y593649D01*
X1051199Y592851D01*
X1051851Y592199D01*
X1052649Y591739D01*
X1053539Y591500D01*
X1054461D01*
X1055351Y591739D01*
X1056149Y592199D01*
X1056801Y592851D01*
X1057261Y593649D01*
X1057500Y594539D01*
Y595461D01*
X1057261Y596351D01*
X1056801Y597149D01*
X1056149Y597801D01*
X1055351Y598261D01*
X1054461Y598500D01*
X1053539D01*
X1052848Y598315D01*
X1038081Y613081D01*
X1037585Y613413D01*
X1037000Y613529D01*
X1027633D01*
X1023581Y617581D01*
X1023553Y617600D01*
X1023533Y617627D01*
X1023306Y617765D01*
X1023085Y617913D01*
X1023052Y617920D01*
X1023023Y617937D01*
X929500Y651981D01*
Y652461D01*
X929261Y653351D01*
X928801Y654149D01*
X928149Y654801D01*
X927529Y655159D01*
Y686406D01*
X927755Y686557D01*
X928015Y686622D01*
X931748Y682748D01*
X939204Y675565D01*
X946924Y668666D01*
X954896Y662061D01*
X963109Y655758D01*
X971553Y649767D01*
X980215Y644096D01*
X989082Y638753D01*
X998143Y633745D01*
X1007385Y629080D01*
X1016796Y624763D01*
X1026361Y620801D01*
X1036067Y617199D01*
X1045901Y613963D01*
X1055850Y611097D01*
X1065898Y608605D01*
X1076033Y606490D01*
X1086240Y604756D01*
X1096504Y603405D01*
X1106812Y602438D01*
X1117149Y601858D01*
X1127500Y601664D01*
X1137851Y601858D01*
X1148188Y602438D01*
X1158496Y603405D01*
X1168760Y604756D01*
X1178967Y606490D01*
X1189102Y608605D01*
X1199150Y611097D01*
X1209099Y613963D01*
X1218933Y617199D01*
X1228640Y620801D01*
X1238204Y624763D01*
X1247615Y629080D01*
X1256857Y633745D01*
X1265918Y638753D01*
X1274786Y644096D01*
X1283447Y649767D01*
X1291891Y655758D01*
X1300104Y662061D01*
X1308076Y668666D01*
X1315796Y675565D01*
X1323252Y682748D01*
X1330435Y690204D01*
X1337334Y697924D01*
X1343939Y705896D01*
X1350241Y714109D01*
X1356232Y722553D01*
X1361904Y731215D01*
X1367247Y740082D01*
X1372255Y749143D01*
X1376920Y758386D01*
X1381237Y767796D01*
X1385199Y777360D01*
X1388801Y787067D01*
X1392037Y796901D01*
X1394903Y806850D01*
X1397395Y816898D01*
X1399510Y827033D01*
X1401244Y837240D01*
X1402595Y847504D01*
X1403562Y857812D01*
X1404142Y868149D01*
X1404336Y878500D01*
X1404142Y888851D01*
X1403562Y899188D01*
X1402595Y909496D01*
X1401244Y919760D01*
X1399510Y929967D01*
X1397395Y940102D01*
X1394903Y950150D01*
X1392037Y960099D01*
X1388801Y969933D01*
X1385199Y979640D01*
X1381237Y989204D01*
X1376920Y998615D01*
X1372255Y1007857D01*
X1367247Y1016918D01*
X1361904Y1025786D01*
X1356232Y1034447D01*
X1350241Y1042891D01*
X1343939Y1051104D01*
X1337334Y1059076D01*
X1330435Y1066796D01*
X1323252Y1074253D01*
X1315796Y1081435D01*
X1308076Y1088334D01*
X1300104Y1094939D01*
X1291891Y1101241D01*
X1283447Y1107232D01*
X1274786Y1112904D01*
X1265918Y1118247D01*
X1256857Y1123255D01*
X1247615Y1127920D01*
X1238204Y1132237D01*
X1228640Y1136199D01*
X1218933Y1139801D01*
X1209099Y1143037D01*
X1199150Y1145903D01*
X1189102Y1148395D01*
X1178967Y1150510D01*
X1168760Y1152244D01*
X1158496Y1153595D01*
X1148188Y1154562D01*
X1137851Y1155142D01*
X1127500Y1155336D01*
X1117149Y1155142D01*
X1106812Y1154562D01*
X1096504Y1153595D01*
X1086240Y1152244D01*
X1076033Y1150510D01*
X1065898Y1148395D01*
X1055850Y1145903D01*
X1045901Y1143037D01*
X1036067Y1139801D01*
X1026361Y1136199D01*
X1016796Y1132237D01*
X1007385Y1127920D01*
X998143Y1123255D01*
X989082Y1118247D01*
X980215Y1112904D01*
X971553Y1107232D01*
X963109Y1101241D01*
X954896Y1094939D01*
X946924Y1088334D01*
X939204Y1081435D01*
X935660Y1078021D01*
X935310Y1078378D01*
X989313Y1132382D01*
X1019044Y1143471D01*
X1032500D01*
X1033085Y1143587D01*
X1033581Y1143919D01*
X1069165Y1179502D01*
X1077306D01*
X1077422Y1179016D01*
X1077317Y1178962D01*
X1075937Y1177959D01*
X1074730Y1176752D01*
X1073727Y1175372D01*
X1072952Y1173851D01*
X1072425Y1172228D01*
X1072157Y1170542D01*
Y1168836D01*
X1072425Y1167150D01*
X1072952Y1165527D01*
X1073727Y1164006D01*
X1074730Y1162626D01*
X1075937Y1161419D01*
X1077317Y1160416D01*
X1078838Y1159641D01*
X1080461Y1159114D01*
X1082147Y1158846D01*
X1083853D01*
X1085539Y1159114D01*
X1087162Y1159641D01*
X1088683Y1160416D01*
X1090063Y1161419D01*
X1091270Y1162626D01*
X1092273Y1164006D01*
X1093048Y1165527D01*
X1093575Y1167150D01*
X1093843Y1168836D01*
Y1170542D01*
X1093575Y1172228D01*
X1093048Y1173851D01*
X1092273Y1175372D01*
X1091270Y1176752D01*
X1090063Y1177959D01*
X1088683Y1178962D01*
X1088578Y1179016D01*
X1088694Y1179502D01*
X1147306D01*
X1147422Y1179016D01*
X1147317Y1178962D01*
X1145937Y1177959D01*
X1144730Y1176752D01*
X1143727Y1175372D01*
X1142952Y1173851D01*
X1142424Y1172228D01*
X1142157Y1170542D01*
Y1168836D01*
X1142424Y1167150D01*
X1142952Y1165527D01*
X1143727Y1164006D01*
X1144730Y1162626D01*
X1145937Y1161419D01*
X1147317Y1160416D01*
X1148838Y1159641D01*
X1150461Y1159113D01*
X1152147Y1158846D01*
X1153853D01*
X1155539Y1159113D01*
X1157162Y1159641D01*
X1158683Y1160416D01*
X1160063Y1161419D01*
X1161270Y1162626D01*
X1162273Y1164006D01*
X1163048Y1165527D01*
X1163575Y1167150D01*
X1163842Y1168836D01*
Y1170542D01*
X1163575Y1172228D01*
X1163048Y1173851D01*
X1162273Y1175372D01*
X1161270Y1176752D01*
X1160063Y1177959D01*
X1158683Y1178962D01*
X1158578Y1179016D01*
X1158694Y1179502D01*
X1184335D01*
X1205185Y1158652D01*
X1205000Y1157961D01*
Y1157039D01*
X1205239Y1156149D01*
X1205699Y1155351D01*
X1206351Y1154699D01*
X1207149Y1154239D01*
X1208039Y1154000D01*
X1208961D01*
X1209851Y1154239D01*
X1210649Y1154699D01*
X1211301Y1155351D01*
X1211761Y1156149D01*
X1211968Y1156920D01*
X1259798Y1170891D01*
X1298058Y1149929D01*
X1307648Y1117098D01*
X1307199Y1116649D01*
X1306738Y1115851D01*
X1306500Y1114961D01*
Y1114039D01*
X1306738Y1113149D01*
X1307199Y1112351D01*
X1307851Y1111699D01*
X1308649Y1111238D01*
X1309539Y1111000D01*
X1310461D01*
X1311351Y1111238D01*
X1312149Y1111699D01*
X1312801Y1112351D01*
X1313262Y1113149D01*
X1313500Y1114039D01*
Y1114961D01*
X1313262Y1115851D01*
X1312801Y1116649D01*
X1312149Y1117301D01*
X1311351Y1117762D01*
X1310580Y1117968D01*
X1300933Y1150997D01*
X1300861Y1151243D01*
X1300822Y1151317D01*
X1300806Y1151399D01*
X1300685Y1151580D01*
X1300585Y1151772D01*
X1300521Y1151826D01*
X1300474Y1151896D01*
X1300192Y1152178D01*
X1300012Y1152298D01*
X1299845Y1152438D01*
X1260851Y1173802D01*
X1260771Y1173827D01*
X1260701Y1173873D01*
X1260489Y1173916D01*
X1260348Y1173960D01*
X1260282Y1173981D01*
X1260137Y1173991D01*
X1259860Y1174009D01*
X1259860Y1174009D01*
X1259858Y1174009D01*
X1259717Y1173990D01*
X1259383Y1173937D01*
X1259288Y1173928D01*
X1259151Y1173888D01*
X1259151Y1173888D01*
X1259151Y1173888D01*
X1258921Y1173821D01*
X1211098Y1159852D01*
X1210649Y1160301D01*
X1209851Y1160762D01*
X1208961Y1161000D01*
X1208039D01*
X1207348Y1160815D01*
X1186050Y1182113D01*
X1185554Y1182444D01*
X1184968Y1182561D01*
X1156620D01*
X1156540Y1183061D01*
X1157162Y1183263D01*
X1158683Y1184038D01*
X1160063Y1185041D01*
X1161270Y1186248D01*
X1162273Y1187628D01*
X1163048Y1189149D01*
X1163575Y1190772D01*
X1163842Y1192458D01*
Y1194164D01*
X1163575Y1195850D01*
X1163048Y1197473D01*
X1162273Y1198994D01*
X1161270Y1200375D01*
X1160063Y1201581D01*
X1158683Y1202584D01*
X1157162Y1203359D01*
X1155539Y1203887D01*
X1153853Y1204154D01*
X1152147D01*
X1150461Y1203887D01*
X1148838Y1203359D01*
X1147317Y1202584D01*
X1145937Y1201581D01*
X1144730Y1200375D01*
X1143727Y1198994D01*
X1142952Y1197473D01*
X1142424Y1195850D01*
X1142157Y1194164D01*
Y1192458D01*
X1142424Y1190772D01*
X1142952Y1189149D01*
X1143727Y1187628D01*
X1144730Y1186248D01*
X1145937Y1185041D01*
X1147317Y1184038D01*
X1148838Y1183263D01*
X1149459Y1183061D01*
X1149380Y1182561D01*
X1086620D01*
X1086541Y1183061D01*
X1087162Y1183263D01*
X1088683Y1184038D01*
X1090063Y1185041D01*
X1091270Y1186248D01*
X1092273Y1187628D01*
X1093048Y1189149D01*
X1093575Y1190772D01*
X1093843Y1192458D01*
Y1194164D01*
X1093575Y1195850D01*
X1093048Y1197473D01*
X1092273Y1198994D01*
X1091270Y1200374D01*
X1090063Y1201581D01*
X1088683Y1202584D01*
X1087162Y1203359D01*
X1085745Y1203820D01*
X1085795Y1204329D01*
X1093904Y1205303D01*
X1105081Y1206260D01*
X1116284Y1206834D01*
X1127500Y1207025D01*
X1138716Y1206834D01*
D02*
G37*
%LPC*%
G36*
X1197960Y1197286D02*
X1197230D01*
X1196525Y1197097D01*
X1195893Y1196732D01*
X1195377Y1196216D01*
X1195012Y1195584D01*
X1194823Y1194879D01*
Y1194149D01*
X1195012Y1193445D01*
X1195377Y1192812D01*
X1195893Y1192296D01*
X1196525Y1191932D01*
X1197230Y1191743D01*
X1197960D01*
X1198665Y1191932D01*
X1199297Y1192296D01*
X1199813Y1192812D01*
X1200178Y1193445D01*
X1200366Y1194149D01*
Y1194879D01*
X1200178Y1195584D01*
X1199813Y1196216D01*
X1199297Y1196732D01*
X1198665Y1197097D01*
X1197960Y1197286D01*
D02*
G37*
G36*
X1189808Y1166863D02*
X1189078D01*
X1188373Y1166674D01*
X1187741Y1166309D01*
X1187225Y1165793D01*
X1186860Y1165161D01*
X1186672Y1164456D01*
Y1163727D01*
X1186860Y1163022D01*
X1187225Y1162390D01*
X1187741Y1161874D01*
X1188373Y1161509D01*
X1189078Y1161320D01*
X1189808D01*
X1190513Y1161509D01*
X1191145Y1161874D01*
X1191661Y1162390D01*
X1192026Y1163022D01*
X1192215Y1163727D01*
Y1164456D01*
X1192026Y1165161D01*
X1191661Y1165793D01*
X1191145Y1166309D01*
X1190513Y1166674D01*
X1189808Y1166863D01*
D02*
G37*
G36*
X1442664Y928843D02*
X1440958D01*
X1439272Y928576D01*
X1437649Y928048D01*
X1436128Y927273D01*
X1434748Y926270D01*
X1433541Y925063D01*
X1432538Y923683D01*
X1431763Y922162D01*
X1431236Y920539D01*
X1430968Y918853D01*
Y917147D01*
X1431236Y915461D01*
X1431763Y913838D01*
X1432538Y912317D01*
X1433541Y910937D01*
X1434748Y909730D01*
X1436128Y908727D01*
X1437649Y907952D01*
X1439272Y907425D01*
X1440958Y907158D01*
X1442664D01*
X1444350Y907425D01*
X1445973Y907952D01*
X1447494Y908727D01*
X1448874Y909730D01*
X1450081Y910937D01*
X1451084Y912317D01*
X1451859Y913838D01*
X1452386Y915461D01*
X1452654Y917147D01*
Y918853D01*
X1452386Y920539D01*
X1451859Y922162D01*
X1451084Y923683D01*
X1450081Y925063D01*
X1448874Y926270D01*
X1447494Y927273D01*
X1445973Y928048D01*
X1444350Y928576D01*
X1442664Y928843D01*
D02*
G37*
G36*
X1419042D02*
X1417336D01*
X1415650Y928576D01*
X1414027Y928048D01*
X1412506Y927273D01*
X1411126Y926270D01*
X1409919Y925063D01*
X1408916Y923683D01*
X1408141Y922162D01*
X1407613Y920539D01*
X1407347Y918853D01*
Y917147D01*
X1407613Y915461D01*
X1408141Y913838D01*
X1408916Y912317D01*
X1409919Y910937D01*
X1411126Y909730D01*
X1412506Y908727D01*
X1414027Y907952D01*
X1415650Y907425D01*
X1417336Y907158D01*
X1419042D01*
X1420728Y907425D01*
X1422351Y907952D01*
X1423872Y908727D01*
X1425252Y909730D01*
X1426459Y910937D01*
X1427462Y912317D01*
X1428237Y913838D01*
X1428765Y915461D01*
X1429031Y917147D01*
Y918853D01*
X1428765Y920539D01*
X1428237Y922162D01*
X1427462Y923683D01*
X1426459Y925063D01*
X1425252Y926270D01*
X1423872Y927273D01*
X1422351Y928048D01*
X1420728Y928576D01*
X1419042Y928843D01*
D02*
G37*
G36*
X1442664Y858842D02*
X1440958D01*
X1439272Y858576D01*
X1437649Y858048D01*
X1436128Y857273D01*
X1434748Y856270D01*
X1433541Y855063D01*
X1432538Y853683D01*
X1431763Y852162D01*
X1431236Y850539D01*
X1430968Y848853D01*
Y847147D01*
X1431236Y845461D01*
X1431763Y843838D01*
X1432538Y842317D01*
X1433541Y840937D01*
X1434748Y839730D01*
X1436128Y838727D01*
X1437649Y837952D01*
X1439272Y837424D01*
X1440958Y837158D01*
X1442664D01*
X1444350Y837424D01*
X1445973Y837952D01*
X1447494Y838727D01*
X1448874Y839730D01*
X1450081Y840937D01*
X1451084Y842317D01*
X1451859Y843838D01*
X1452387Y845461D01*
X1452654Y847147D01*
Y848853D01*
X1452387Y850539D01*
X1451859Y852162D01*
X1451084Y853683D01*
X1450081Y855063D01*
X1448874Y856270D01*
X1447494Y857273D01*
X1445973Y858048D01*
X1444350Y858576D01*
X1442664Y858842D01*
D02*
G37*
G36*
X1419042D02*
X1417336D01*
X1415650Y858576D01*
X1414027Y858048D01*
X1412506Y857273D01*
X1411125Y856270D01*
X1409919Y855063D01*
X1408916Y853683D01*
X1408141Y852162D01*
X1407613Y850539D01*
X1407347Y848853D01*
Y847147D01*
X1407613Y845461D01*
X1408141Y843838D01*
X1408916Y842317D01*
X1409919Y840937D01*
X1411125Y839730D01*
X1412506Y838727D01*
X1414027Y837952D01*
X1415650Y837424D01*
X1417336Y837158D01*
X1419042D01*
X1420728Y837424D01*
X1422351Y837952D01*
X1423872Y838727D01*
X1425252Y839730D01*
X1426459Y840937D01*
X1427462Y842317D01*
X1428237Y843838D01*
X1428765Y845461D01*
X1429031Y847147D01*
Y848853D01*
X1428765Y850539D01*
X1428237Y852162D01*
X1427462Y853683D01*
X1426459Y855063D01*
X1425252Y856270D01*
X1423872Y857273D01*
X1422351Y858048D01*
X1420728Y858576D01*
X1419042Y858842D01*
D02*
G37*
G36*
X1413683Y821278D02*
X1412761D01*
X1411871Y821039D01*
X1411073Y820578D01*
X1410421Y819927D01*
X1410192Y819529D01*
X1404500D01*
X1403915Y819413D01*
X1403419Y819081D01*
X1401419Y817081D01*
X1401087Y816585D01*
X1400971Y816000D01*
Y760634D01*
X1353419Y713081D01*
X1353087Y712585D01*
X1352971Y712000D01*
Y702158D01*
X1352351Y701801D01*
X1351699Y701149D01*
X1351239Y700351D01*
X1351000Y699461D01*
Y698539D01*
X1351239Y697649D01*
X1351699Y696851D01*
X1352351Y696199D01*
X1353149Y695739D01*
X1354039Y695500D01*
X1354961D01*
X1355064Y695528D01*
X1368546Y676277D01*
X1353612Y658873D01*
X1331255Y633431D01*
X1316949Y617529D01*
X1284500D01*
X1283915Y617413D01*
X1283419Y617081D01*
X1246835Y580498D01*
X1213494D01*
X1182694Y580498D01*
X1182578Y580984D01*
X1182683Y581038D01*
X1184063Y582041D01*
X1185270Y583248D01*
X1186273Y584628D01*
X1187048Y586149D01*
X1187576Y587772D01*
X1187842Y589458D01*
Y591164D01*
X1187576Y592850D01*
X1187048Y594473D01*
X1186273Y595994D01*
X1185270Y597374D01*
X1184063Y598581D01*
X1182683Y599584D01*
X1181162Y600359D01*
X1179539Y600887D01*
X1177853Y601154D01*
X1176147D01*
X1174461Y600887D01*
X1172838Y600359D01*
X1171317Y599584D01*
X1169937Y598581D01*
X1168730Y597374D01*
X1167727Y595994D01*
X1166952Y594473D01*
X1166424Y592850D01*
X1166158Y591164D01*
Y589458D01*
X1166424Y587772D01*
X1166952Y586149D01*
X1167727Y584628D01*
X1168730Y583248D01*
X1169937Y582041D01*
X1171317Y581038D01*
X1171422Y580984D01*
X1171306Y580498D01*
X1112694Y580498D01*
X1112578Y580984D01*
X1112683Y581038D01*
X1114063Y582041D01*
X1115270Y583248D01*
X1116273Y584628D01*
X1117048Y586149D01*
X1117575Y587772D01*
X1117842Y589458D01*
Y591164D01*
X1117575Y592850D01*
X1117048Y594473D01*
X1116273Y595994D01*
X1115270Y597374D01*
X1114063Y598581D01*
X1112683Y599584D01*
X1111162Y600359D01*
X1109539Y600886D01*
X1107853Y601154D01*
X1106147D01*
X1104461Y600886D01*
X1102838Y600359D01*
X1101317Y599584D01*
X1099936Y598581D01*
X1098730Y597374D01*
X1097727Y595994D01*
X1096952Y594473D01*
X1096424Y592850D01*
X1096157Y591164D01*
Y589458D01*
X1096424Y587772D01*
X1096952Y586149D01*
X1097727Y584628D01*
X1098730Y583248D01*
X1099936Y582041D01*
X1101317Y581038D01*
X1101422Y580984D01*
X1101306Y580498D01*
X1082174D01*
X1081589Y580381D01*
X1081093Y580050D01*
X1070572Y569529D01*
X1065158D01*
X1064801Y570149D01*
X1064149Y570801D01*
X1063351Y571262D01*
X1062461Y571500D01*
X1061539D01*
X1060649Y571262D01*
X1059851Y570801D01*
X1059199Y570149D01*
X1058739Y569351D01*
X1058500Y568461D01*
Y567539D01*
X1058739Y566649D01*
X1059199Y565851D01*
X1059851Y565199D01*
X1060649Y564739D01*
X1061539Y564500D01*
X1062461D01*
X1063351Y564739D01*
X1064149Y565199D01*
X1064801Y565851D01*
X1065158Y566471D01*
X1071206D01*
X1071791Y566587D01*
X1072287Y566919D01*
X1082808Y577439D01*
X1103380D01*
X1103459Y576939D01*
X1102838Y576737D01*
X1101317Y575962D01*
X1099937Y574959D01*
X1098730Y573752D01*
X1097727Y572372D01*
X1096952Y570851D01*
X1096424Y569228D01*
X1096157Y567542D01*
Y565836D01*
X1096424Y564150D01*
X1096952Y562527D01*
X1097727Y561006D01*
X1098730Y559626D01*
X1099937Y558419D01*
X1101317Y557416D01*
X1102838Y556641D01*
X1104461Y556113D01*
X1106147Y555847D01*
X1107853D01*
X1109539Y556113D01*
X1111162Y556641D01*
X1112683Y557416D01*
X1114063Y558419D01*
X1115270Y559626D01*
X1116273Y561006D01*
X1117048Y562527D01*
X1117575Y564150D01*
X1117842Y565836D01*
Y567542D01*
X1117575Y569228D01*
X1117048Y570851D01*
X1116273Y572372D01*
X1115270Y573752D01*
X1114063Y574959D01*
X1112683Y575962D01*
X1111162Y576737D01*
X1110541Y576939D01*
X1110620Y577439D01*
X1173380Y577439D01*
X1173460Y576939D01*
X1172838Y576737D01*
X1171317Y575962D01*
X1169937Y574959D01*
X1168730Y573752D01*
X1167727Y572372D01*
X1166952Y570851D01*
X1166424Y569228D01*
X1166158Y567542D01*
Y565836D01*
X1166424Y564150D01*
X1166952Y562527D01*
X1167727Y561006D01*
X1168730Y559626D01*
X1169937Y558419D01*
X1171317Y557416D01*
X1172838Y556641D01*
X1174461Y556113D01*
X1176147Y555847D01*
X1177853D01*
X1179539Y556113D01*
X1181162Y556641D01*
X1182683Y557416D01*
X1184063Y558419D01*
X1185270Y559626D01*
X1186273Y561006D01*
X1187048Y562527D01*
X1187576Y564150D01*
X1187842Y565836D01*
Y567542D01*
X1187576Y569228D01*
X1187048Y570851D01*
X1186273Y572372D01*
X1185270Y573752D01*
X1184063Y574959D01*
X1182683Y575962D01*
X1181162Y576737D01*
X1180540Y576939D01*
X1180620Y577439D01*
X1213494Y577439D01*
X1247468D01*
X1248054Y577556D01*
X1248550Y577887D01*
X1285133Y614471D01*
X1317652D01*
X1318237Y614587D01*
X1318733Y614919D01*
X1318777Y614984D01*
X1318777Y614984D01*
X1318821Y615051D01*
X1333535Y631404D01*
X1355915Y656873D01*
X1371253Y674747D01*
X1371305Y674782D01*
X1371637Y675278D01*
X1371729Y675742D01*
X1371753Y675863D01*
X1371773Y676232D01*
X1371773Y676232D01*
X1371773Y676232D01*
X1371773Y676232D01*
X1371773Y676232D01*
X1371773D01*
X1371753Y676548D01*
X1371720Y676719D01*
X1371717Y676879D01*
X1371663Y677000D01*
X1371637Y677130D01*
X1371637Y677133D01*
X1371607Y677177D01*
X1371544Y677272D01*
X1371476Y677425D01*
X1371296Y677683D01*
X1357559Y697298D01*
X1357761Y697649D01*
X1358000Y698539D01*
Y699461D01*
X1357761Y700351D01*
X1357301Y701149D01*
X1356649Y701801D01*
X1356029Y702158D01*
Y711367D01*
X1403581Y758919D01*
X1403913Y759415D01*
X1404029Y760000D01*
Y815366D01*
X1405134Y816471D01*
X1409949D01*
X1409961Y816427D01*
X1410421Y815629D01*
X1411073Y814977D01*
X1411871Y814516D01*
X1412761Y814278D01*
X1413683D01*
X1414573Y814516D01*
X1415371Y814977D01*
X1416023Y815629D01*
X1416484Y816427D01*
X1416722Y817317D01*
Y818239D01*
X1416484Y819129D01*
X1416023Y819927D01*
X1415371Y820578D01*
X1414573Y821039D01*
X1413683Y821278D01*
D02*
G37*
%LPD*%
D14*
X1317652Y616000D02*
X1318319Y616740D01*
X1318987Y617480D01*
X1319654Y618220D01*
X1320320Y618960D01*
X1320987Y619700D01*
X1321653Y620441D01*
X1322319Y621182D01*
X1322985Y621923D01*
X1323650Y622664D01*
X1324315Y623406D01*
X1324980Y624148D01*
X1325645Y624890D01*
X1326309Y625632D01*
X1326974Y626374D01*
X1327637Y627117D01*
X1328301Y627860D01*
X1328965Y628603D01*
X1329628Y629347D01*
X1330291Y630090D01*
X1330953Y630834D01*
X1331616Y631578D01*
X1332278Y632323D01*
X1332939Y633067D01*
X1333601Y633812D01*
X1334262Y634557D01*
X1334923Y635302D01*
X1335584Y636048D01*
X1336245Y636793D01*
X1336905Y637539D01*
X1337565Y638285D01*
X1338225Y639032D01*
X1338885Y639778D01*
X1339544Y640525D01*
X1340203Y641272D01*
X1340862Y642020D01*
X1341520Y642767D01*
X1342179Y643515D01*
X1342836Y644263D01*
X1343494Y645011D01*
X1344152Y645759D01*
X1344809Y646508D01*
X1345466Y647257D01*
X1346123Y648006D01*
X1346779Y648755D01*
X1347435Y649505D01*
X1348091Y650255D01*
X1348747Y651005D01*
X1349402Y651755D01*
X1350058Y652505D01*
X1350712Y653256D01*
X1351367Y654007D01*
X1352021Y654758D01*
X1352676Y655510D01*
X1353329Y656261D01*
X1353983Y657013D01*
X1354636Y657765D01*
X1355289Y658517D01*
X1355942Y659270D01*
X1356595Y660022D01*
X1357247Y660775D01*
X1357899Y661528D01*
X1358551Y662282D01*
X1359202Y663035D01*
X1359854Y663789D01*
X1360505Y664543D01*
X1361156Y665298D01*
X1361806Y666052D01*
X1362456Y666807D01*
X1363106Y667562D01*
X1363756Y668317D01*
X1364405Y669072D01*
X1365055Y669828D01*
X1365703Y670584D01*
X1366352Y671340D01*
X1367001Y672096D01*
X1367649Y672853D01*
X1368297Y673609D01*
X1368944Y674367D01*
X1369592Y675124D01*
X1370224Y675864D01*
X1370224Y676232D02*
Y676232D01*
X1259860Y1172460D02*
X1259860D01*
X1213494Y578968D02*
X1247468D01*
X1284500Y616000D01*
X1317652D01*
X1370224Y675863D02*
Y676232D01*
Y675863D02*
Y675863D01*
X1107000Y578968D02*
X1213494Y578968D01*
X1370043Y676806D02*
X1370224Y676548D01*
Y676232D02*
Y676548D01*
X1354500Y699000D02*
X1370043Y676806D01*
X1082174Y578968D02*
X1107000D01*
X926000Y652000D02*
Y686500D01*
X918000Y694500D02*
X926000Y686500D01*
X875500Y694500D02*
X918000D01*
X841680Y728320D02*
X875500Y694500D01*
X926000Y652000D02*
X926586Y651414D01*
X841629Y728393D02*
X841680Y728320D01*
X841477Y728612D02*
X841629Y728393D01*
X1022500Y616500D02*
X1022793Y616207D01*
X926586Y651414D02*
X1022500Y616500D01*
X1022793Y616207D02*
X1027000Y612000D01*
X923433Y1068664D02*
X988467Y1133698D01*
X1018768Y1145000D01*
X1032500D01*
X827468Y916469D02*
X843000Y932000D01*
X848000D01*
X827468Y759526D02*
Y916469D01*
X827468Y759315D02*
X841477Y728612D01*
X1354500Y699000D02*
Y712000D01*
X1402500Y760000D02*
Y816000D01*
X1354500Y712000D02*
X1402500Y760000D01*
X1027000Y612000D02*
X1037000D01*
X1054000Y595000D01*
X1402500Y816000D02*
X1404500Y818000D01*
X1413000D01*
X1071206Y568000D02*
X1082174Y578968D01*
X1062000Y568000D02*
X1071206D01*
X1054000Y595000D02*
Y595000D01*
X1259717Y1172460D02*
X1259860D01*
X1259860D02*
X1260116D01*
X1299111Y1151096D01*
X1259580Y1172420D02*
X1259717Y1172460D01*
X1299465Y1150568D02*
X1310000Y1114500D01*
X1299393Y1150814D02*
X1299465Y1150568D01*
X1299111Y1151096D02*
X1299393Y1150814D01*
X1208500Y1157500D02*
X1259580Y1172420D01*
X827468Y759526D02*
X827468Y759315D01*
X1032500Y1145000D02*
X1068532Y1181032D01*
X1184968D01*
X922247Y1068664D02*
X923433D01*
X920235Y1068265D02*
X921848D01*
X919836Y1068664D02*
X920235Y1068265D01*
X921848D02*
X922247Y1068664D01*
X1184968Y1181032D02*
X1208500Y1157500D01*
D51*
X1107000Y566689D02*
D03*
X1107000Y590311D02*
D03*
X1177000Y590311D02*
D03*
Y566689D02*
D03*
X1083000Y1169689D02*
D03*
X1083000Y1193311D02*
D03*
X1153000Y1193311D02*
D03*
Y1169689D02*
D03*
X1418189Y918000D02*
D03*
X1441811D02*
D03*
X1441811Y848000D02*
D03*
X1418189D02*
D03*
X815189Y904000D02*
D03*
X838811D02*
D03*
X838811Y834000D02*
D03*
X815189D02*
D03*
D52*
X1440000Y960000D02*
D03*
X1445000Y950000D02*
D03*
X1440000Y940000D02*
D03*
X1445000Y830000D02*
D03*
X1440000Y820000D02*
D03*
X1430000Y1000000D02*
D03*
Y980000D02*
D03*
X1435000Y970000D02*
D03*
X1430000Y960000D02*
D03*
X1435000Y950000D02*
D03*
X1430000Y940000D02*
D03*
X1435000Y930000D02*
D03*
X1430000Y840000D02*
D03*
X1435000Y830000D02*
D03*
X1430000Y820000D02*
D03*
Y780000D02*
D03*
X1435000Y770000D02*
D03*
X1430000Y760000D02*
D03*
X1420000Y1020000D02*
D03*
X1425000Y1010000D02*
D03*
X1420000Y1000000D02*
D03*
X1425000Y990000D02*
D03*
Y950000D02*
D03*
Y930000D02*
D03*
Y830000D02*
D03*
X1420000Y820000D02*
D03*
X1425000Y750000D02*
D03*
X1420000Y740000D02*
D03*
X1410000Y1040000D02*
D03*
X1415000Y1030000D02*
D03*
Y1010000D02*
D03*
X1410000Y1000000D02*
D03*
X1415000Y990000D02*
D03*
Y830000D02*
D03*
X1410000Y800000D02*
D03*
X1415000Y790000D02*
D03*
X1410000Y780000D02*
D03*
X1415000Y770000D02*
D03*
Y730000D02*
D03*
X1410000Y720000D02*
D03*
X1405000Y1050000D02*
D03*
X1400000Y1040000D02*
D03*
X1405000Y1030000D02*
D03*
X1400000Y1000000D02*
D03*
X1405000Y990000D02*
D03*
Y710000D02*
D03*
X1400000Y700000D02*
D03*
X1390000Y1060000D02*
D03*
Y1000000D02*
D03*
X1395000Y990000D02*
D03*
X1390000Y700000D02*
D03*
X1380000Y1080000D02*
D03*
X1385000Y1070000D02*
D03*
X1380000Y1040000D02*
D03*
Y700000D02*
D03*
X1385000Y690000D02*
D03*
X1380000Y680000D02*
D03*
X1375000Y1090000D02*
D03*
X1370000Y1080000D02*
D03*
X1375000Y1050000D02*
D03*
X1370000Y720000D02*
D03*
X1375000Y710000D02*
D03*
X1370000Y700000D02*
D03*
X1375000Y690000D02*
D03*
Y670000D02*
D03*
X1370000Y660000D02*
D03*
X1365000Y710000D02*
D03*
X1360000Y700000D02*
D03*
Y680000D02*
D03*
X1350000D02*
D03*
Y640000D02*
D03*
X1345000Y690000D02*
D03*
X1335000Y1130000D02*
D03*
X1330000Y1100000D02*
D03*
X1335000Y1090000D02*
D03*
Y1070000D02*
D03*
X1320000Y1140000D02*
D03*
X1325000Y1130000D02*
D03*
X1320000Y1120000D02*
D03*
X1325000Y670000D02*
D03*
X1320000Y660000D02*
D03*
X1310000Y1140000D02*
D03*
X1315000Y1130000D02*
D03*
X1310000Y1100000D02*
D03*
X1315000Y650000D02*
D03*
X1310000Y620000D02*
D03*
X1305000Y1150000D02*
D03*
X1300000Y1120000D02*
D03*
X1305000Y1110000D02*
D03*
Y650000D02*
D03*
X1300000Y640000D02*
D03*
X1305000Y610000D02*
D03*
X1290000Y1120000D02*
D03*
X1295000Y610000D02*
D03*
X1290000Y600000D02*
D03*
X1285000Y1110000D02*
D03*
X1280000Y600000D02*
D03*
X1275000Y1130000D02*
D03*
X1270000Y1120000D02*
D03*
X1275000Y630000D02*
D03*
Y590000D02*
D03*
X1260000Y620000D02*
D03*
X1265000Y610000D02*
D03*
X1260000Y600000D02*
D03*
X1265000Y590000D02*
D03*
X1250000Y1160000D02*
D03*
X1255000Y1150000D02*
D03*
Y610000D02*
D03*
X1250000Y600000D02*
D03*
X1240000Y1160000D02*
D03*
X1245000Y1150000D02*
D03*
X1230000Y1160000D02*
D03*
X1235000Y1150000D02*
D03*
X1225000Y1190000D02*
D03*
X1220000Y1180000D02*
D03*
X1225000Y570000D02*
D03*
X1215000Y1190000D02*
D03*
Y1170000D02*
D03*
Y590000D02*
D03*
Y570000D02*
D03*
X1205000Y1190000D02*
D03*
Y1170000D02*
D03*
X1200000Y1160000D02*
D03*
X1205000Y570000D02*
D03*
X1195000D02*
D03*
X1190000Y560000D02*
D03*
X1180000Y1200000D02*
D03*
X1185000Y1170000D02*
D03*
X1170000Y1200000D02*
D03*
X1175000Y1190000D02*
D03*
Y1170000D02*
D03*
X1130000Y1200000D02*
D03*
X1135000Y1190000D02*
D03*
Y1170000D02*
D03*
X1130000Y1160000D02*
D03*
X1120000Y1200000D02*
D03*
Y1160000D02*
D03*
X1110000Y1200000D02*
D03*
Y1160000D02*
D03*
X1100000D02*
D03*
X1090000Y560000D02*
D03*
X1085000Y570000D02*
D03*
X1080000Y560000D02*
D03*
X1070000Y1160000D02*
D03*
Y560000D02*
D03*
X1065000Y1190000D02*
D03*
X1060000Y1180000D02*
D03*
X1065000Y1170000D02*
D03*
X1060000Y1160000D02*
D03*
Y580000D02*
D03*
Y560000D02*
D03*
X1055000Y1190000D02*
D03*
X1050000Y1180000D02*
D03*
X1055000Y1150000D02*
D03*
X1045000Y1190000D02*
D03*
X1040000Y1180000D02*
D03*
X1045000Y1170000D02*
D03*
Y1150000D02*
D03*
Y590000D02*
D03*
X1040000Y580000D02*
D03*
X1045000Y570000D02*
D03*
X1035000Y1190000D02*
D03*
X1030000Y1180000D02*
D03*
Y1140000D02*
D03*
X1020000Y1180000D02*
D03*
Y1160000D02*
D03*
X1025000Y1150000D02*
D03*
X1020000Y1140000D02*
D03*
X1025000Y570000D02*
D03*
X1010000Y1180000D02*
D03*
X1015000Y1170000D02*
D03*
X1010000Y1160000D02*
D03*
X1015000Y1150000D02*
D03*
Y610000D02*
D03*
X1010000Y580000D02*
D03*
X1005000Y1170000D02*
D03*
Y1130000D02*
D03*
Y590000D02*
D03*
X1000000Y580000D02*
D03*
X995000Y1170000D02*
D03*
Y1130000D02*
D03*
X990000Y600000D02*
D03*
X995000Y590000D02*
D03*
X985000Y1170000D02*
D03*
X980000Y1120000D02*
D03*
X985000Y610000D02*
D03*
X980000Y600000D02*
D03*
X985000Y590000D02*
D03*
X970000Y1160000D02*
D03*
X975000Y1130000D02*
D03*
X970000Y640000D02*
D03*
X975000Y610000D02*
D03*
X970000Y600000D02*
D03*
X975000Y590000D02*
D03*
X965000Y610000D02*
D03*
X960000Y600000D02*
D03*
X955000Y1150000D02*
D03*
X950000Y1140000D02*
D03*
X955000Y1110000D02*
D03*
Y650000D02*
D03*
Y610000D02*
D03*
X940000Y1140000D02*
D03*
Y1120000D02*
D03*
Y1100000D02*
D03*
Y660000D02*
D03*
Y620000D02*
D03*
X945000Y610000D02*
D03*
X935000Y1110000D02*
D03*
Y1090000D02*
D03*
X930000Y660000D02*
D03*
Y640000D02*
D03*
Y620000D02*
D03*
X920000Y1080000D02*
D03*
Y640000D02*
D03*
X925000Y630000D02*
D03*
X910000Y1120000D02*
D03*
X915000Y1110000D02*
D03*
X910000Y680000D02*
D03*
X915000Y650000D02*
D03*
X910000Y640000D02*
D03*
X900000Y1100000D02*
D03*
X905000Y1090000D02*
D03*
X900000Y1080000D02*
D03*
X905000Y1070000D02*
D03*
X900000Y1060000D02*
D03*
Y1040000D02*
D03*
X905000Y690000D02*
D03*
X900000Y680000D02*
D03*
X905000Y650000D02*
D03*
X890000Y1100000D02*
D03*
X895000Y1090000D02*
D03*
X890000Y1080000D02*
D03*
X895000Y1070000D02*
D03*
Y1050000D02*
D03*
X890000Y1040000D02*
D03*
X895000Y710000D02*
D03*
Y690000D02*
D03*
X890000Y680000D02*
D03*
X895000Y670000D02*
D03*
X890000Y660000D02*
D03*
X895000Y650000D02*
D03*
X885000Y1090000D02*
D03*
X880000Y1080000D02*
D03*
X885000Y1070000D02*
D03*
Y1030000D02*
D03*
X880000Y720000D02*
D03*
X885000Y670000D02*
D03*
X875000Y1070000D02*
D03*
X870000Y1060000D02*
D03*
Y1020000D02*
D03*
Y1000000D02*
D03*
Y760000D02*
D03*
X875000Y750000D02*
D03*
Y730000D02*
D03*
X870000Y680000D02*
D03*
X865000Y1070000D02*
D03*
X860000Y1060000D02*
D03*
X865000Y1010000D02*
D03*
Y990000D02*
D03*
X860000Y800000D02*
D03*
Y780000D02*
D03*
X865000Y690000D02*
D03*
X855000Y1050000D02*
D03*
X850000Y1040000D02*
D03*
Y1000000D02*
D03*
Y980000D02*
D03*
X855000Y950000D02*
D03*
X850000Y920000D02*
D03*
Y800000D02*
D03*
X845000Y1030000D02*
D03*
Y970000D02*
D03*
X840000Y960000D02*
D03*
Y920000D02*
D03*
X845000Y890000D02*
D03*
Y870000D02*
D03*
Y850000D02*
D03*
X840000Y820000D02*
D03*
X845000Y810000D02*
D03*
X840000Y800000D02*
D03*
X845000Y790000D02*
D03*
Y770000D02*
D03*
X830000Y980000D02*
D03*
Y960000D02*
D03*
X835000Y930000D02*
D03*
Y890000D02*
D03*
Y850000D02*
D03*
Y810000D02*
D03*
Y790000D02*
D03*
X825000Y990000D02*
D03*
Y970000D02*
D03*
X820000Y960000D02*
D03*
X825000Y930000D02*
D03*
X820000Y920000D02*
D03*
Y820000D02*
D03*
Y800000D02*
D03*
Y780000D02*
D03*
X815000Y970000D02*
D03*
Y950000D02*
D03*
X810000Y940000D02*
D03*
X815000Y930000D02*
D03*
X810000Y920000D02*
D03*
X815000Y890000D02*
D03*
X810000Y880000D02*
D03*
Y860000D02*
D03*
X815000Y850000D02*
D03*
X810000Y820000D02*
D03*
X815000Y810000D02*
D03*
Y790000D02*
D03*
D53*
X926000Y652000D02*
D03*
X1413222Y817778D02*
D03*
X1062000Y568000D02*
D03*
X1054000Y595000D02*
D03*
X1310000Y1114500D02*
D03*
X848000Y932000D02*
D03*
X920000Y1067500D02*
D03*
X1208500Y1157500D02*
D03*
X1354500Y699000D02*
D03*
D54*
X1189443Y1164091D02*
D03*
X1197595Y1194514D02*
D03*
M02*
